<ttFont>
<head>
    <!-- Most of this table will be recalculated by the compiler -->
    <tableVersion value="1.0"/>
    <fontRevision value="1.0"/>
    <checkSumAdjustment value="0xb8ff035d"/>
    <magicNumber value="0x5f0f3cf5"/>
    <flags value="00000000 00001011"/>
    <unitsPerEm value="2048"/>
    <created value="Mon Mar 13 13:22:56 2017"/>
    <modified value="Mon Mar 13 13:22:56 2017"/>
    <xMin value="0"/>
    <yMin value="-64"/>
    <xMax value="512"/>
    <yMax value="682"/>
    <macStyle value="00000000 00000000"/>
    <lowestRecPPEM value="8"/>
    <fontDirectionHint value="2"/>
    <indexToLocFormat value="0"/>
    <glyphDataFormat value="0"/>
  </head>
    <TTGlyph name=".notdef" xMin="34" yMin="0" xMax="306" yMax="682">
      <contour>
        <pt x="34" y="0" on="1"/>
        <pt x="34" y="682" on="1"/>
        <pt x="306" y="682" on="1"/>
        <pt x="306" y="0" on="1"/>
      </contour>
      <contour>
        <pt x="68" y="34" on="1"/>
        <pt x="272" y="34" on="1"/>
        <pt x="272" y="648" on="1"/>
        <pt x="68" y="648" on="1"/>
      </contour>
    </TTGlyph>
    <TTGlyph name="A" xMin="0" yMin="0" xMax="448" yMax="448">
      <contour>
        <pt x="384" y="0" on="1"/>
        <pt x="320" y="0" on="1"/>
        <pt x="320" y="64" on="1"/>
        <pt x="320" y="128" on="1"/>
        <pt x="256" y="128" on="1"/>
        <pt x="192" y="128" on="1"/>
        <pt x="128" y="128" on="1"/>
        <pt x="128" y="64" on="1"/>
        <pt x="128" y="0" on="1"/>
        <pt x="64" y="0" on="1"/>
        <pt x="0" y="0" on="1"/>
        <pt x="0" y="64" on="1"/>
        <pt x="0" y="128" on="1"/>
        <pt x="0" y="192" on="1"/>
        <pt x="0" y="256" on="1"/>
        <pt x="0" y="320" on="1"/>
        <pt x="64" y="320" on="1"/>
        <pt x="64" y="384" on="1"/>
        <pt x="128" y="384" on="1"/>
        <pt x="128" y="448" on="1"/>
        <pt x="192" y="448" on="1"/>
        <pt x="256" y="448" on="1"/>
        <pt x="320" y="448" on="1"/>
        <pt x="320" y="384" on="1"/>
        <pt x="384" y="384" on="1"/>
        <pt x="384" y="320" on="1"/>
        <pt x="448" y="320" on="1"/>
        <pt x="448" y="256" on="1"/>
        <pt x="448" y="192" on="1"/>
        <pt x="448" y="128" on="1"/>
        <pt x="448" y="64" on="1"/>
        <pt x="448" y="0" on="1"/>
      </contour>
      <contour>
        <pt x="256" y="192" on="1"/>
        <pt x="320" y="192" on="1"/>
        <pt x="320" y="256" on="1"/>
        <pt x="320" y="320" on="1"/>
        <pt x="256" y="320" on="1"/>
        <pt x="256" y="384" on="1"/>
        <pt x="192" y="384" on="1"/>
        <pt x="192" y="320" on="1"/>
        <pt x="128" y="320" on="1"/>
        <pt x="128" y="256" on="1"/>
        <pt x="128" y="192" on="1"/>
        <pt x="192" y="192" on="1"/>
      </contour>
    </TTGlyph>
    <TTGlyph name="AE" xMin="0" yMin="0" xMax="448" yMax="448">
      <contour>
        <pt x="384" y="64" on="1"/>
        <pt x="448" y="64" on="1"/>
        <pt x="448" y="0" on="1"/>
        <pt x="384" y="0" on="1"/>
        <pt x="320" y="0" on="1"/>
        <pt x="256" y="0" on="1"/>
        <pt x="192" y="0" on="1"/>
        <pt x="192" y="64" on="1"/>
        <pt x="192" y="128" on="1"/>
        <pt x="128" y="128" on="1"/>
        <pt x="128" y="64" on="1"/>
        <pt x="128" y="0" on="1"/>
        <pt x="64" y="0" on="1"/>
        <pt x="0" y="0" on="1"/>
        <pt x="0" y="64" on="1"/>
        <pt x="0" y="128" on="1"/>
        <pt x="0" y="192" on="1"/>
        <pt x="0" y="256" on="1"/>
        <pt x="0" y="320" on="1"/>
        <pt x="64" y="320" on="1"/>
        <pt x="64" y="384" on="1"/>
        <pt x="128" y="384" on="1"/>
        <pt x="128" y="448" on="1"/>
        <pt x="192" y="448" on="1"/>
        <pt x="256" y="448" on="1"/>
        <pt x="320" y="448" on="1"/>
        <pt x="384" y="448" on="1"/>
        <pt x="448" y="448" on="1"/>
        <pt x="448" y="384" on="1"/>
        <pt x="384" y="384" on="1"/>
        <pt x="320" y="384" on="1"/>
        <pt x="320" y="320" on="1"/>
        <pt x="320" y="256" on="1"/>
        <pt x="384" y="256" on="1"/>
        <pt x="384" y="192" on="1"/>
        <pt x="320" y="192" on="1"/>
        <pt x="320" y="128" on="1"/>
        <pt x="320" y="64" on="1"/>
      </contour>
      <contour>
        <pt x="192" y="192" on="1"/>
        <pt x="192" y="256" on="1"/>
        <pt x="192" y="320" on="1"/>
        <pt x="128" y="320" on="1"/>
        <pt x="128" y="256" on="1"/>
        <pt x="128" y="192" on="1"/>
      </contour>
    </TTGlyph>
    <TTGlyph name="Aacute" xMin="0" yMin="0" xMax="448" yMax="448">
      <contour>
        <pt x="384" y="0" on="1"/>
        <pt x="320" y="0" on="1"/>
        <pt x="320" y="64" on="1"/>
        <pt x="256" y="64" on="1"/>
        <pt x="192" y="64" on="1"/>
        <pt x="128" y="64" on="1"/>
        <pt x="128" y="0" on="1"/>
        <pt x="64" y="0" on="1"/>
        <pt x="0" y="0" on="1"/>
        <pt x="0" y="64" on="1"/>
        <pt x="0" y="128" on="1"/>
        <pt x="0" y="192" on="1"/>
        <pt x="64" y="192" on="1"/>
        <pt x="64" y="256" on="1"/>
        <pt x="128" y="256" on="1"/>
        <pt x="128" y="320" on="1"/>
        <pt x="192" y="320" on="1"/>
        <pt x="192" y="384" on="1"/>
        <pt x="256" y="384" on="1"/>
        <pt x="256" y="320" on="1"/>
        <pt x="320" y="320" on="1"/>
        <pt x="320" y="256" on="1"/>
        <pt x="384" y="256" on="1"/>
        <pt x="384" y="192" on="1"/>
        <pt x="448" y="192" on="1"/>
        <pt x="448" y="128" on="1"/>
        <pt x="448" y="64" on="1"/>
        <pt x="448" y="0" on="1"/>
      </contour>
      <contour>
        <pt x="256" y="128" on="1"/>
        <pt x="320" y="128" on="1"/>
        <pt x="320" y="192" on="1"/>
        <pt x="256" y="192" on="1"/>
        <pt x="256" y="256" on="1"/>
        <pt x="192" y="256" on="1"/>
        <pt x="192" y="192" on="1"/>
        <pt x="128" y="192" on="1"/>
        <pt x="128" y="128" on="1"/>
        <pt x="192" y="128" on="1"/>
      </contour>
      <contour>
        <pt x="256" y="384" on="1"/>
        <pt x="256" y="448" on="1"/>
        <pt x="320" y="448" on="1"/>
        <pt x="320" y="384" on="1"/>
      </contour>
    </TTGlyph>
    <TTGlyph name="Acircumflex" xMin="0" yMin="0" xMax="448" yMax="448">
      <contour>
        <pt x="384" y="0" on="1"/>
        <pt x="320" y="0" on="1"/>
        <pt x="320" y="64" on="1"/>
        <pt x="256" y="64" on="1"/>
        <pt x="192" y="64" on="1"/>
        <pt x="128" y="64" on="1"/>
        <pt x="128" y="0" on="1"/>
        <pt x="64" y="0" on="1"/>
        <pt x="0" y="0" on="1"/>
        <pt x="0" y="64" on="1"/>
        <pt x="0" y="128" on="1"/>
        <pt x="0" y="192" on="1"/>
        <pt x="64" y="192" on="1"/>
        <pt x="64" y="256" on="1"/>
        <pt x="128" y="256" on="1"/>
        <pt x="128" y="320" on="1"/>
        <pt x="192" y="320" on="1"/>
        <pt x="256" y="320" on="1"/>
        <pt x="320" y="320" on="1"/>
        <pt x="320" y="256" on="1"/>
        <pt x="384" y="256" on="1"/>
        <pt x="384" y="192" on="1"/>
        <pt x="448" y="192" on="1"/>
        <pt x="448" y="128" on="1"/>
        <pt x="448" y="64" on="1"/>
        <pt x="448" y="0" on="1"/>
      </contour>
      <contour>
        <pt x="256" y="128" on="1"/>
        <pt x="320" y="128" on="1"/>
        <pt x="320" y="192" on="1"/>
        <pt x="256" y="192" on="1"/>
        <pt x="256" y="256" on="1"/>
        <pt x="192" y="256" on="1"/>
        <pt x="192" y="192" on="1"/>
        <pt x="128" y="192" on="1"/>
        <pt x="128" y="128" on="1"/>
        <pt x="192" y="128" on="1"/>
      </contour>
      <contour>
        <pt x="320" y="320" on="1"/>
        <pt x="320" y="384" on="1"/>
        <pt x="384" y="384" on="1"/>
        <pt x="384" y="320" on="1"/>
      </contour>
      <contour>
        <pt x="128" y="320" on="1"/>
        <pt x="64" y="320" on="1"/>
        <pt x="64" y="384" on="1"/>
        <pt x="128" y="384" on="1"/>
      </contour>
      <contour>
        <pt x="320" y="384" on="1"/>
        <pt x="256" y="384" on="1"/>
        <pt x="192" y="384" on="1"/>
        <pt x="128" y="384" on="1"/>
        <pt x="128" y="448" on="1"/>
        <pt x="192" y="448" on="1"/>
        <pt x="256" y="448" on="1"/>
        <pt x="320" y="448" on="1"/>
      </contour>
    </TTGlyph>
    <TTGlyph name="Adieresis" xMin="0" yMin="0" xMax="448" yMax="448">
      <contour>
        <pt x="256" y="384" on="1"/>
        <pt x="256" y="448" on="1"/>
        <pt x="320" y="448" on="1"/>
        <pt x="320" y="384" on="1"/>
      </contour>
      <contour>
        <pt x="128" y="384" on="1"/>
        <pt x="128" y="448" on="1"/>
        <pt x="192" y="448" on="1"/>
        <pt x="192" y="384" on="1"/>
      </contour>
      <contour>
        <pt x="384" y="0" on="1"/>
        <pt x="320" y="0" on="1"/>
        <pt x="320" y="64" on="1"/>
        <pt x="256" y="64" on="1"/>
        <pt x="192" y="64" on="1"/>
        <pt x="128" y="64" on="1"/>
        <pt x="128" y="0" on="1"/>
        <pt x="64" y="0" on="1"/>
        <pt x="0" y="0" on="1"/>
        <pt x="0" y="64" on="1"/>
        <pt x="0" y="128" on="1"/>
        <pt x="0" y="192" on="1"/>
        <pt x="64" y="192" on="1"/>
        <pt x="64" y="256" on="1"/>
        <pt x="128" y="256" on="1"/>
        <pt x="128" y="320" on="1"/>
        <pt x="192" y="320" on="1"/>
        <pt x="256" y="320" on="1"/>
        <pt x="320" y="320" on="1"/>
        <pt x="320" y="256" on="1"/>
        <pt x="384" y="256" on="1"/>
        <pt x="384" y="192" on="1"/>
        <pt x="448" y="192" on="1"/>
        <pt x="448" y="128" on="1"/>
        <pt x="448" y="64" on="1"/>
        <pt x="448" y="0" on="1"/>
      </contour>
      <contour>
        <pt x="256" y="128" on="1"/>
        <pt x="320" y="128" on="1"/>
        <pt x="320" y="192" on="1"/>
        <pt x="256" y="192" on="1"/>
        <pt x="256" y="256" on="1"/>
        <pt x="192" y="256" on="1"/>
        <pt x="192" y="192" on="1"/>
        <pt x="128" y="192" on="1"/>
        <pt x="128" y="128" on="1"/>
        <pt x="192" y="128" on="1"/>
      </contour>
    </TTGlyph>
    <TTGlyph name="Agrave" xMin="0" yMin="0" xMax="448" yMax="448">
      <contour>
        <pt x="384" y="0" on="1"/>
        <pt x="320" y="0" on="1"/>
        <pt x="320" y="64" on="1"/>
        <pt x="256" y="64" on="1"/>
        <pt x="192" y="64" on="1"/>
        <pt x="128" y="64" on="1"/>
        <pt x="128" y="0" on="1"/>
        <pt x="64" y="0" on="1"/>
        <pt x="0" y="0" on="1"/>
        <pt x="0" y="64" on="1"/>
        <pt x="0" y="128" on="1"/>
        <pt x="0" y="192" on="1"/>
        <pt x="64" y="192" on="1"/>
        <pt x="64" y="256" on="1"/>
        <pt x="128" y="256" on="1"/>
        <pt x="128" y="320" on="1"/>
        <pt x="192" y="320" on="1"/>
        <pt x="192" y="384" on="1"/>
        <pt x="256" y="384" on="1"/>
        <pt x="256" y="320" on="1"/>
        <pt x="320" y="320" on="1"/>
        <pt x="320" y="256" on="1"/>
        <pt x="384" y="256" on="1"/>
        <pt x="384" y="192" on="1"/>
        <pt x="448" y="192" on="1"/>
        <pt x="448" y="128" on="1"/>
        <pt x="448" y="64" on="1"/>
        <pt x="448" y="0" on="1"/>
      </contour>
      <contour>
        <pt x="256" y="128" on="1"/>
        <pt x="320" y="128" on="1"/>
        <pt x="320" y="192" on="1"/>
        <pt x="256" y="192" on="1"/>
        <pt x="256" y="256" on="1"/>
        <pt x="192" y="256" on="1"/>
        <pt x="192" y="192" on="1"/>
        <pt x="128" y="192" on="1"/>
        <pt x="128" y="128" on="1"/>
        <pt x="192" y="128" on="1"/>
      </contour>
      <contour>
        <pt x="192" y="384" on="1"/>
        <pt x="128" y="384" on="1"/>
        <pt x="128" y="448" on="1"/>
        <pt x="192" y="448" on="1"/>
      </contour>
    </TTGlyph>
    <TTGlyph name="Aring" xMin="0" yMin="0" xMax="448" yMax="448">
      <contour>
        <pt x="384" y="0" on="1"/>
        <pt x="320" y="0" on="1"/>
        <pt x="320" y="64" on="1"/>
        <pt x="256" y="64" on="1"/>
        <pt x="192" y="64" on="1"/>
        <pt x="128" y="64" on="1"/>
        <pt x="128" y="0" on="1"/>
        <pt x="64" y="0" on="1"/>
        <pt x="0" y="0" on="1"/>
        <pt x="0" y="64" on="1"/>
        <pt x="0" y="128" on="1"/>
        <pt x="0" y="192" on="1"/>
        <pt x="64" y="192" on="1"/>
        <pt x="64" y="256" on="1"/>
        <pt x="128" y="256" on="1"/>
        <pt x="128" y="320" on="1"/>
        <pt x="128" y="384" on="1"/>
        <pt x="192" y="384" on="1"/>
        <pt x="192" y="320" on="1"/>
        <pt x="256" y="320" on="1"/>
        <pt x="256" y="384" on="1"/>
        <pt x="320" y="384" on="1"/>
        <pt x="320" y="320" on="1"/>
        <pt x="320" y="256" on="1"/>
        <pt x="384" y="256" on="1"/>
        <pt x="384" y="192" on="1"/>
        <pt x="448" y="192" on="1"/>
        <pt x="448" y="128" on="1"/>
        <pt x="448" y="64" on="1"/>
        <pt x="448" y="0" on="1"/>
      </contour>
      <contour>
        <pt x="256" y="128" on="1"/>
        <pt x="320" y="128" on="1"/>
        <pt x="320" y="192" on="1"/>
        <pt x="256" y="192" on="1"/>
        <pt x="256" y="256" on="1"/>
        <pt x="192" y="256" on="1"/>
        <pt x="192" y="192" on="1"/>
        <pt x="128" y="192" on="1"/>
        <pt x="128" y="128" on="1"/>
        <pt x="192" y="128" on="1"/>
      </contour>
      <contour>
        <pt x="256" y="384" on="1"/>
        <pt x="192" y="384" on="1"/>
        <pt x="192" y="448" on="1"/>
        <pt x="256" y="448" on="1"/>
      </contour>
    </TTGlyph>
    <TTGlyph name="Atilde" xMin="0" yMin="0" xMax="448" yMax="448">
      <contour>
        <pt x="384" y="0" on="1"/>
        <pt x="320" y="0" on="1"/>
        <pt x="320" y="64" on="1"/>
        <pt x="256" y="64" on="1"/>
        <pt x="192" y="64" on="1"/>
        <pt x="128" y="64" on="1"/>
        <pt x="128" y="0" on="1"/>
        <pt x="64" y="0" on="1"/>
        <pt x="0" y="0" on="1"/>
        <pt x="0" y="64" on="1"/>
        <pt x="0" y="128" on="1"/>
        <pt x="0" y="192" on="1"/>
        <pt x="64" y="192" on="1"/>
        <pt x="64" y="256" on="1"/>
        <pt x="128" y="256" on="1"/>
        <pt x="128" y="320" on="1"/>
        <pt x="64" y="320" on="1"/>
        <pt x="64" y="384" on="1"/>
        <pt x="128" y="384" on="1"/>
        <pt x="128" y="448" on="1"/>
        <pt x="192" y="448" on="1"/>
        <pt x="256" y="448" on="1"/>
        <pt x="256" y="384" on="1"/>
        <pt x="320" y="384" on="1"/>
        <pt x="320" y="320" on="1"/>
        <pt x="320" y="256" on="1"/>
        <pt x="384" y="256" on="1"/>
        <pt x="384" y="192" on="1"/>
        <pt x="448" y="192" on="1"/>
        <pt x="448" y="128" on="1"/>
        <pt x="448" y="64" on="1"/>
        <pt x="448" y="0" on="1"/>
      </contour>
      <contour>
        <pt x="256" y="128" on="1"/>
        <pt x="320" y="128" on="1"/>
        <pt x="320" y="192" on="1"/>
        <pt x="256" y="192" on="1"/>
        <pt x="256" y="256" on="1"/>
        <pt x="192" y="256" on="1"/>
        <pt x="192" y="192" on="1"/>
        <pt x="128" y="192" on="1"/>
        <pt x="128" y="128" on="1"/>
        <pt x="192" y="128" on="1"/>
      </contour>
      <contour>
        <pt x="192" y="320" on="1"/>
        <pt x="192" y="384" on="1"/>
        <pt x="128" y="384" on="1"/>
        <pt x="128" y="320" on="1"/>
      </contour>
      <contour>
        <pt x="320" y="384" on="1"/>
        <pt x="320" y="448" on="1"/>
        <pt x="384" y="448" on="1"/>
        <pt x="384" y="384" on="1"/>
      </contour>
    </TTGlyph>
    <TTGlyph name="B" xMin="0" yMin="0" xMax="448" yMax="448">
      <contour>
        <pt x="320" y="0" on="1"/>
        <pt x="256" y="0" on="1"/>
        <pt x="192" y="0" on="1"/>
        <pt x="128" y="0" on="1"/>
        <pt x="64" y="0" on="1"/>
        <pt x="0" y="0" on="1"/>
        <pt x="0" y="64" on="1"/>
        <pt x="0" y="128" on="1"/>
        <pt x="0" y="192" on="1"/>
        <pt x="0" y="256" on="1"/>
        <pt x="0" y="320" on="1"/>
        <pt x="0" y="384" on="1"/>
        <pt x="0" y="448" on="1"/>
        <pt x="64" y="448" on="1"/>
        <pt x="128" y="448" on="1"/>
        <pt x="192" y="448" on="1"/>
        <pt x="256" y="448" on="1"/>
        <pt x="320" y="448" on="1"/>
        <pt x="384" y="448" on="1"/>
        <pt x="384" y="384" on="1"/>
        <pt x="448" y="384" on="1"/>
        <pt x="448" y="320" on="1"/>
        <pt x="448" y="256" on="1"/>
        <pt x="384" y="256" on="1"/>
        <pt x="384" y="192" on="1"/>
        <pt x="448" y="192" on="1"/>
        <pt x="448" y="128" on="1"/>
        <pt x="448" y="64" on="1"/>
        <pt x="384" y="64" on="1"/>
        <pt x="384" y="0" on="1"/>
      </contour>
      <contour>
        <pt x="256" y="64" on="1"/>
        <pt x="320" y="64" on="1"/>
        <pt x="320" y="128" on="1"/>
        <pt x="320" y="192" on="1"/>
        <pt x="256" y="192" on="1"/>
        <pt x="192" y="192" on="1"/>
        <pt x="128" y="192" on="1"/>
        <pt x="128" y="128" on="1"/>
        <pt x="128" y="64" on="1"/>
        <pt x="192" y="64" on="1"/>
      </contour>
      <contour>
        <pt x="256" y="256" on="1"/>
        <pt x="320" y="256" on="1"/>
        <pt x="320" y="320" on="1"/>
        <pt x="320" y="384" on="1"/>
        <pt x="256" y="384" on="1"/>
        <pt x="192" y="384" on="1"/>
        <pt x="128" y="384" on="1"/>
        <pt x="128" y="320" on="1"/>
        <pt x="128" y="256" on="1"/>
        <pt x="192" y="256" on="1"/>
      </contour>
    </TTGlyph>
    <TTGlyph name="C" xMin="0" yMin="0" xMax="448" yMax="448">
      <contour>
        <pt x="320" y="0" on="1"/>
        <pt x="256" y="0" on="1"/>
        <pt x="192" y="0" on="1"/>
        <pt x="128" y="0" on="1"/>
        <pt x="128" y="64" on="1"/>
        <pt x="64" y="64" on="1"/>
        <pt x="64" y="128" on="1"/>
        <pt x="0" y="128" on="1"/>
        <pt x="0" y="192" on="1"/>
        <pt x="0" y="256" on="1"/>
        <pt x="0" y="320" on="1"/>
        <pt x="64" y="320" on="1"/>
        <pt x="64" y="384" on="1"/>
        <pt x="128" y="384" on="1"/>
        <pt x="128" y="448" on="1"/>
        <pt x="192" y="448" on="1"/>
        <pt x="256" y="448" on="1"/>
        <pt x="320" y="448" on="1"/>
        <pt x="384" y="448" on="1"/>
        <pt x="384" y="384" on="1"/>
        <pt x="448" y="384" on="1"/>
        <pt x="448" y="320" on="1"/>
        <pt x="384" y="320" on="1"/>
        <pt x="320" y="320" on="1"/>
        <pt x="320" y="384" on="1"/>
        <pt x="256" y="384" on="1"/>
        <pt x="192" y="384" on="1"/>
        <pt x="192" y="320" on="1"/>
        <pt x="128" y="320" on="1"/>
        <pt x="128" y="256" on="1"/>
        <pt x="128" y="192" on="1"/>
        <pt x="128" y="128" on="1"/>
        <pt x="192" y="128" on="1"/>
        <pt x="192" y="64" on="1"/>
        <pt x="256" y="64" on="1"/>
        <pt x="320" y="64" on="1"/>
        <pt x="320" y="128" on="1"/>
        <pt x="384" y="128" on="1"/>
        <pt x="448" y="128" on="1"/>
        <pt x="448" y="64" on="1"/>
        <pt x="384" y="64" on="1"/>
        <pt x="384" y="0" on="1"/>
      </contour>
    </TTGlyph>
    <TTGlyph name="Ccedilla" xMin="0" yMin="-64" xMax="448" yMax="448">
      <contour>
        <pt x="192" y="-64" on="1"/>
        <pt x="192" y="0" on="1"/>
        <pt x="256" y="0" on="1"/>
        <pt x="256" y="-64" on="1"/>
      </contour>
      <contour>
        <pt x="256" y="0" on="1"/>
        <pt x="256" y="64" on="1"/>
        <pt x="192" y="64" on="1"/>
        <pt x="128" y="64" on="1"/>
        <pt x="128" y="128" on="1"/>
        <pt x="64" y="128" on="1"/>
        <pt x="64" y="192" on="1"/>
        <pt x="0" y="192" on="1"/>
        <pt x="0" y="256" on="1"/>
        <pt x="0" y="320" on="1"/>
        <pt x="64" y="320" on="1"/>
        <pt x="64" y="384" on="1"/>
        <pt x="128" y="384" on="1"/>
        <pt x="128" y="448" on="1"/>
        <pt x="192" y="448" on="1"/>
        <pt x="256" y="448" on="1"/>
        <pt x="320" y="448" on="1"/>
        <pt x="384" y="448" on="1"/>
        <pt x="384" y="384" on="1"/>
        <pt x="448" y="384" on="1"/>
        <pt x="448" y="320" on="1"/>
        <pt x="384" y="320" on="1"/>
        <pt x="320" y="320" on="1"/>
        <pt x="320" y="384" on="1"/>
        <pt x="256" y="384" on="1"/>
        <pt x="192" y="384" on="1"/>
        <pt x="192" y="320" on="1"/>
        <pt x="128" y="320" on="1"/>
        <pt x="128" y="256" on="1"/>
        <pt x="128" y="192" on="1"/>
        <pt x="192" y="192" on="1"/>
        <pt x="192" y="128" on="1"/>
        <pt x="256" y="128" on="1"/>
        <pt x="320" y="128" on="1"/>
        <pt x="320" y="192" on="1"/>
        <pt x="384" y="192" on="1"/>
        <pt x="448" y="192" on="1"/>
        <pt x="448" y="128" on="1"/>
        <pt x="384" y="128" on="1"/>
        <pt x="384" y="64" on="1"/>
        <pt x="320" y="64" on="1"/>
        <pt x="320" y="0" on="1"/>
      </contour>
    </TTGlyph>
    <TTGlyph name="D" xMin="0" yMin="0" xMax="448" yMax="448">
      <contour>
        <pt x="256" y="0" on="1"/>
        <pt x="192" y="0" on="1"/>
        <pt x="128" y="0" on="1"/>
        <pt x="64" y="0" on="1"/>
        <pt x="0" y="0" on="1"/>
        <pt x="0" y="64" on="1"/>
        <pt x="0" y="128" on="1"/>
        <pt x="0" y="192" on="1"/>
        <pt x="0" y="256" on="1"/>
        <pt x="0" y="320" on="1"/>
        <pt x="0" y="384" on="1"/>
        <pt x="0" y="448" on="1"/>
        <pt x="64" y="448" on="1"/>
        <pt x="128" y="448" on="1"/>
        <pt x="192" y="448" on="1"/>
        <pt x="256" y="448" on="1"/>
        <pt x="320" y="448" on="1"/>
        <pt x="320" y="384" on="1"/>
        <pt x="384" y="384" on="1"/>
        <pt x="384" y="320" on="1"/>
        <pt x="448" y="320" on="1"/>
        <pt x="448" y="256" on="1"/>
        <pt x="448" y="192" on="1"/>
        <pt x="448" y="128" on="1"/>
        <pt x="384" y="128" on="1"/>
        <pt x="384" y="64" on="1"/>
        <pt x="320" y="64" on="1"/>
        <pt x="320" y="0" on="1"/>
      </contour>
      <contour>
        <pt x="192" y="64" on="1"/>
        <pt x="256" y="64" on="1"/>
        <pt x="256" y="128" on="1"/>
        <pt x="320" y="128" on="1"/>
        <pt x="320" y="192" on="1"/>
        <pt x="320" y="256" on="1"/>
        <pt x="320" y="320" on="1"/>
        <pt x="256" y="320" on="1"/>
        <pt x="256" y="384" on="1"/>
        <pt x="192" y="384" on="1"/>
        <pt x="128" y="384" on="1"/>
        <pt x="128" y="320" on="1"/>
        <pt x="128" y="256" on="1"/>
        <pt x="128" y="192" on="1"/>
        <pt x="128" y="128" on="1"/>
        <pt x="128" y="64" on="1"/>
      </contour>
    </TTGlyph>
    <TTGlyph name="E" xMin="0" yMin="0" xMax="448" yMax="448">
      <contour>
        <pt x="384" y="64" on="1"/>
        <pt x="448" y="64" on="1"/>
        <pt x="448" y="0" on="1"/>
        <pt x="384" y="0" on="1"/>
        <pt x="320" y="0" on="1"/>
        <pt x="256" y="0" on="1"/>
        <pt x="192" y="0" on="1"/>
        <pt x="128" y="0" on="1"/>
        <pt x="64" y="0" on="1"/>
        <pt x="0" y="0" on="1"/>
        <pt x="0" y="64" on="1"/>
        <pt x="0" y="128" on="1"/>
        <pt x="0" y="192" on="1"/>
        <pt x="0" y="256" on="1"/>
        <pt x="0" y="320" on="1"/>
        <pt x="0" y="384" on="1"/>
        <pt x="0" y="448" on="1"/>
        <pt x="64" y="448" on="1"/>
        <pt x="128" y="448" on="1"/>
        <pt x="192" y="448" on="1"/>
        <pt x="256" y="448" on="1"/>
        <pt x="320" y="448" on="1"/>
        <pt x="384" y="448" on="1"/>
        <pt x="448" y="448" on="1"/>
        <pt x="448" y="384" on="1"/>
        <pt x="384" y="384" on="1"/>
        <pt x="320" y="384" on="1"/>
        <pt x="256" y="384" on="1"/>
        <pt x="192" y="384" on="1"/>
        <pt x="128" y="384" on="1"/>
        <pt x="128" y="320" on="1"/>
        <pt x="128" y="256" on="1"/>
        <pt x="192" y="256" on="1"/>
        <pt x="256" y="256" on="1"/>
        <pt x="320" y="256" on="1"/>
        <pt x="384" y="256" on="1"/>
        <pt x="384" y="192" on="1"/>
        <pt x="320" y="192" on="1"/>
        <pt x="256" y="192" on="1"/>
        <pt x="192" y="192" on="1"/>
        <pt x="128" y="192" on="1"/>
        <pt x="128" y="128" on="1"/>
        <pt x="128" y="64" on="1"/>
        <pt x="192" y="64" on="1"/>
        <pt x="256" y="64" on="1"/>
        <pt x="320" y="64" on="1"/>
      </contour>
    </TTGlyph>
    <TTGlyph name="Eacute" xMin="64" yMin="0" xMax="448" yMax="448">
      <contour>
        <pt x="384" y="64" on="1"/>
        <pt x="448" y="64" on="1"/>
        <pt x="448" y="0" on="1"/>
        <pt x="384" y="0" on="1"/>
        <pt x="320" y="0" on="1"/>
        <pt x="256" y="0" on="1"/>
        <pt x="192" y="0" on="1"/>
        <pt x="128" y="0" on="1"/>
        <pt x="64" y="0" on="1"/>
        <pt x="64" y="64" on="1"/>
        <pt x="64" y="128" on="1"/>
        <pt x="64" y="192" on="1"/>
        <pt x="64" y="256" on="1"/>
        <pt x="64" y="320" on="1"/>
        <pt x="128" y="320" on="1"/>
        <pt x="192" y="320" on="1"/>
        <pt x="192" y="384" on="1"/>
        <pt x="256" y="384" on="1"/>
        <pt x="256" y="320" on="1"/>
        <pt x="320" y="320" on="1"/>
        <pt x="384" y="320" on="1"/>
        <pt x="448" y="320" on="1"/>
        <pt x="448" y="256" on="1"/>
        <pt x="384" y="256" on="1"/>
        <pt x="320" y="256" on="1"/>
        <pt x="256" y="256" on="1"/>
        <pt x="192" y="256" on="1"/>
        <pt x="192" y="192" on="1"/>
        <pt x="256" y="192" on="1"/>
        <pt x="320" y="192" on="1"/>
        <pt x="384" y="192" on="1"/>
        <pt x="384" y="128" on="1"/>
        <pt x="320" y="128" on="1"/>
        <pt x="256" y="128" on="1"/>
        <pt x="192" y="128" on="1"/>
        <pt x="192" y="64" on="1"/>
        <pt x="256" y="64" on="1"/>
        <pt x="320" y="64" on="1"/>
      </contour>
      <contour>
        <pt x="256" y="384" on="1"/>
        <pt x="256" y="448" on="1"/>
        <pt x="320" y="448" on="1"/>
        <pt x="320" y="384" on="1"/>
      </contour>
    </TTGlyph>
    <TTGlyph name="Ecircumflex" xMin="64" yMin="0" xMax="448" yMax="448">
      <contour>
        <pt x="384" y="64" on="1"/>
        <pt x="448" y="64" on="1"/>
        <pt x="448" y="0" on="1"/>
        <pt x="384" y="0" on="1"/>
        <pt x="320" y="0" on="1"/>
        <pt x="256" y="0" on="1"/>
        <pt x="192" y="0" on="1"/>
        <pt x="128" y="0" on="1"/>
        <pt x="64" y="0" on="1"/>
        <pt x="64" y="64" on="1"/>
        <pt x="64" y="128" on="1"/>
        <pt x="64" y="192" on="1"/>
        <pt x="64" y="256" on="1"/>
        <pt x="64" y="320" on="1"/>
        <pt x="128" y="320" on="1"/>
        <pt x="128" y="384" on="1"/>
        <pt x="192" y="384" on="1"/>
        <pt x="192" y="320" on="1"/>
        <pt x="256" y="320" on="1"/>
        <pt x="320" y="320" on="1"/>
        <pt x="320" y="384" on="1"/>
        <pt x="384" y="384" on="1"/>
        <pt x="384" y="320" on="1"/>
        <pt x="448" y="320" on="1"/>
        <pt x="448" y="256" on="1"/>
        <pt x="384" y="256" on="1"/>
        <pt x="320" y="256" on="1"/>
        <pt x="256" y="256" on="1"/>
        <pt x="192" y="256" on="1"/>
        <pt x="192" y="192" on="1"/>
        <pt x="256" y="192" on="1"/>
        <pt x="320" y="192" on="1"/>
        <pt x="384" y="192" on="1"/>
        <pt x="384" y="128" on="1"/>
        <pt x="320" y="128" on="1"/>
        <pt x="256" y="128" on="1"/>
        <pt x="192" y="128" on="1"/>
        <pt x="192" y="64" on="1"/>
        <pt x="256" y="64" on="1"/>
        <pt x="320" y="64" on="1"/>
      </contour>
      <contour>
        <pt x="320" y="384" on="1"/>
        <pt x="256" y="384" on="1"/>
        <pt x="192" y="384" on="1"/>
        <pt x="192" y="448" on="1"/>
        <pt x="256" y="448" on="1"/>
        <pt x="320" y="448" on="1"/>
      </contour>
    </TTGlyph>
    <TTGlyph name="Edieresis" xMin="64" yMin="0" xMax="448" yMax="448">
      <contour>
        <pt x="320" y="384" on="1"/>
        <pt x="320" y="448" on="1"/>
        <pt x="384" y="448" on="1"/>
        <pt x="384" y="384" on="1"/>
      </contour>
      <contour>
        <pt x="192" y="384" on="1"/>
        <pt x="192" y="448" on="1"/>
        <pt x="256" y="448" on="1"/>
        <pt x="256" y="384" on="1"/>
      </contour>
      <contour>
        <pt x="384" y="64" on="1"/>
        <pt x="448" y="64" on="1"/>
        <pt x="448" y="0" on="1"/>
        <pt x="384" y="0" on="1"/>
        <pt x="320" y="0" on="1"/>
        <pt x="256" y="0" on="1"/>
        <pt x="192" y="0" on="1"/>
        <pt x="128" y="0" on="1"/>
        <pt x="64" y="0" on="1"/>
        <pt x="64" y="64" on="1"/>
        <pt x="64" y="128" on="1"/>
        <pt x="64" y="192" on="1"/>
        <pt x="64" y="256" on="1"/>
        <pt x="64" y="320" on="1"/>
        <pt x="128" y="320" on="1"/>
        <pt x="192" y="320" on="1"/>
        <pt x="256" y="320" on="1"/>
        <pt x="320" y="320" on="1"/>
        <pt x="384" y="320" on="1"/>
        <pt x="448" y="320" on="1"/>
        <pt x="448" y="256" on="1"/>
        <pt x="384" y="256" on="1"/>
        <pt x="320" y="256" on="1"/>
        <pt x="256" y="256" on="1"/>
        <pt x="192" y="256" on="1"/>
        <pt x="192" y="192" on="1"/>
        <pt x="256" y="192" on="1"/>
        <pt x="320" y="192" on="1"/>
        <pt x="384" y="192" on="1"/>
        <pt x="384" y="128" on="1"/>
        <pt x="320" y="128" on="1"/>
        <pt x="256" y="128" on="1"/>
        <pt x="192" y="128" on="1"/>
        <pt x="192" y="64" on="1"/>
        <pt x="256" y="64" on="1"/>
        <pt x="320" y="64" on="1"/>
      </contour>
    </TTGlyph>
    <TTGlyph name="Egrave" xMin="64" yMin="0" xMax="448" yMax="448">
      <contour>
        <pt x="384" y="64" on="1"/>
        <pt x="448" y="64" on="1"/>
        <pt x="448" y="0" on="1"/>
        <pt x="384" y="0" on="1"/>
        <pt x="320" y="0" on="1"/>
        <pt x="256" y="0" on="1"/>
        <pt x="192" y="0" on="1"/>
        <pt x="128" y="0" on="1"/>
        <pt x="64" y="0" on="1"/>
        <pt x="64" y="64" on="1"/>
        <pt x="64" y="128" on="1"/>
        <pt x="64" y="192" on="1"/>
        <pt x="64" y="256" on="1"/>
        <pt x="64" y="320" on="1"/>
        <pt x="128" y="320" on="1"/>
        <pt x="192" y="320" on="1"/>
        <pt x="256" y="320" on="1"/>
        <pt x="256" y="384" on="1"/>
        <pt x="320" y="384" on="1"/>
        <pt x="320" y="320" on="1"/>
        <pt x="384" y="320" on="1"/>
        <pt x="448" y="320" on="1"/>
        <pt x="448" y="256" on="1"/>
        <pt x="384" y="256" on="1"/>
        <pt x="320" y="256" on="1"/>
        <pt x="256" y="256" on="1"/>
        <pt x="192" y="256" on="1"/>
        <pt x="192" y="192" on="1"/>
        <pt x="256" y="192" on="1"/>
        <pt x="320" y="192" on="1"/>
        <pt x="384" y="192" on="1"/>
        <pt x="384" y="128" on="1"/>
        <pt x="320" y="128" on="1"/>
        <pt x="256" y="128" on="1"/>
        <pt x="192" y="128" on="1"/>
        <pt x="192" y="64" on="1"/>
        <pt x="256" y="64" on="1"/>
        <pt x="320" y="64" on="1"/>
      </contour>
      <contour>
        <pt x="256" y="384" on="1"/>
        <pt x="192" y="384" on="1"/>
        <pt x="192" y="448" on="1"/>
        <pt x="256" y="448" on="1"/>
      </contour>
    </TTGlyph>
    <TTGlyph name="Eth" xMin="0" yMin="0" xMax="448" yMax="448">
      <contour>
        <pt x="256" y="0" on="1"/>
        <pt x="192" y="0" on="1"/>
        <pt x="128" y="0" on="1"/>
        <pt x="64" y="0" on="1"/>
        <pt x="64" y="64" on="1"/>
        <pt x="64" y="128" on="1"/>
        <pt x="64" y="192" on="1"/>
        <pt x="0" y="192" on="1"/>
        <pt x="0" y="256" on="1"/>
        <pt x="64" y="256" on="1"/>
        <pt x="64" y="320" on="1"/>
        <pt x="64" y="384" on="1"/>
        <pt x="64" y="448" on="1"/>
        <pt x="128" y="448" on="1"/>
        <pt x="192" y="448" on="1"/>
        <pt x="256" y="448" on="1"/>
        <pt x="320" y="448" on="1"/>
        <pt x="320" y="384" on="1"/>
        <pt x="384" y="384" on="1"/>
        <pt x="384" y="320" on="1"/>
        <pt x="448" y="320" on="1"/>
        <pt x="448" y="256" on="1"/>
        <pt x="448" y="192" on="1"/>
        <pt x="448" y="128" on="1"/>
        <pt x="384" y="128" on="1"/>
        <pt x="384" y="64" on="1"/>
        <pt x="320" y="64" on="1"/>
        <pt x="320" y="0" on="1"/>
      </contour>
      <contour>
        <pt x="256" y="64" on="1"/>
        <pt x="256" y="128" on="1"/>
        <pt x="320" y="128" on="1"/>
        <pt x="320" y="192" on="1"/>
        <pt x="320" y="256" on="1"/>
        <pt x="320" y="320" on="1"/>
        <pt x="256" y="320" on="1"/>
        <pt x="256" y="384" on="1"/>
        <pt x="192" y="384" on="1"/>
        <pt x="192" y="320" on="1"/>
        <pt x="192" y="256" on="1"/>
        <pt x="256" y="256" on="1"/>
        <pt x="256" y="192" on="1"/>
        <pt x="192" y="192" on="1"/>
        <pt x="192" y="128" on="1"/>
        <pt x="192" y="64" on="1"/>
      </contour>
    </TTGlyph>
    <TTGlyph name="Euro" xMin="0" yMin="0" xMax="448" yMax="448">
      <contour>
        <pt x="384" y="320" on="1"/>
        <pt x="384" y="384" on="1"/>
        <pt x="448" y="384" on="1"/>
        <pt x="448" y="320" on="1"/>
      </contour>
      <contour>
        <pt x="320" y="64" on="1"/>
        <pt x="384" y="64" on="1"/>
        <pt x="384" y="0" on="1"/>
        <pt x="320" y="0" on="1"/>
        <pt x="256" y="0" on="1"/>
        <pt x="192" y="0" on="1"/>
        <pt x="192" y="64" on="1"/>
        <pt x="128" y="64" on="1"/>
        <pt x="128" y="128" on="1"/>
        <pt x="64" y="128" on="1"/>
        <pt x="0" y="128" on="1"/>
        <pt x="0" y="192" on="1"/>
        <pt x="64" y="192" on="1"/>
        <pt x="64" y="256" on="1"/>
        <pt x="0" y="256" on="1"/>
        <pt x="0" y="320" on="1"/>
        <pt x="64" y="320" on="1"/>
        <pt x="128" y="320" on="1"/>
        <pt x="128" y="384" on="1"/>
        <pt x="192" y="384" on="1"/>
        <pt x="192" y="448" on="1"/>
        <pt x="256" y="448" on="1"/>
        <pt x="320" y="448" on="1"/>
        <pt x="384" y="448" on="1"/>
        <pt x="384" y="384" on="1"/>
        <pt x="320" y="384" on="1"/>
        <pt x="256" y="384" on="1"/>
        <pt x="256" y="320" on="1"/>
        <pt x="320" y="320" on="1"/>
        <pt x="320" y="256" on="1"/>
        <pt x="256" y="256" on="1"/>
        <pt x="192" y="256" on="1"/>
        <pt x="192" y="192" on="1"/>
        <pt x="256" y="192" on="1"/>
        <pt x="320" y="192" on="1"/>
        <pt x="320" y="128" on="1"/>
        <pt x="256" y="128" on="1"/>
        <pt x="256" y="64" on="1"/>
      </contour>
      <contour>
        <pt x="384" y="64" on="1"/>
        <pt x="384" y="128" on="1"/>
        <pt x="448" y="128" on="1"/>
        <pt x="448" y="64" on="1"/>
      </contour>
    </TTGlyph>
    <TTGlyph name="F" xMin="0" yMin="0" xMax="448" yMax="448">
      <contour>
        <pt x="64" y="0" on="1"/>
        <pt x="0" y="0" on="1"/>
        <pt x="0" y="64" on="1"/>
        <pt x="0" y="128" on="1"/>
        <pt x="0" y="192" on="1"/>
        <pt x="0" y="256" on="1"/>
        <pt x="0" y="320" on="1"/>
        <pt x="0" y="384" on="1"/>
        <pt x="0" y="448" on="1"/>
        <pt x="64" y="448" on="1"/>
        <pt x="128" y="448" on="1"/>
        <pt x="192" y="448" on="1"/>
        <pt x="256" y="448" on="1"/>
        <pt x="320" y="448" on="1"/>
        <pt x="384" y="448" on="1"/>
        <pt x="448" y="448" on="1"/>
        <pt x="448" y="384" on="1"/>
        <pt x="384" y="384" on="1"/>
        <pt x="320" y="384" on="1"/>
        <pt x="256" y="384" on="1"/>
        <pt x="192" y="384" on="1"/>
        <pt x="128" y="384" on="1"/>
        <pt x="128" y="320" on="1"/>
        <pt x="128" y="256" on="1"/>
        <pt x="192" y="256" on="1"/>
        <pt x="256" y="256" on="1"/>
        <pt x="320" y="256" on="1"/>
        <pt x="384" y="256" on="1"/>
        <pt x="384" y="192" on="1"/>
        <pt x="320" y="192" on="1"/>
        <pt x="256" y="192" on="1"/>
        <pt x="192" y="192" on="1"/>
        <pt x="128" y="192" on="1"/>
        <pt x="128" y="128" on="1"/>
        <pt x="128" y="64" on="1"/>
        <pt x="128" y="0" on="1"/>
      </contour>
    </TTGlyph>
    <TTGlyph name="G" xMin="0" yMin="0" xMax="448" yMax="448">
      <contour>
        <pt x="384" y="0" on="1"/>
        <pt x="320" y="0" on="1"/>
        <pt x="256" y="0" on="1"/>
        <pt x="192" y="0" on="1"/>
        <pt x="128" y="0" on="1"/>
        <pt x="128" y="64" on="1"/>
        <pt x="64" y="64" on="1"/>
        <pt x="64" y="128" on="1"/>
        <pt x="0" y="128" on="1"/>
        <pt x="0" y="192" on="1"/>
        <pt x="0" y="256" on="1"/>
        <pt x="0" y="320" on="1"/>
        <pt x="64" y="320" on="1"/>
        <pt x="64" y="384" on="1"/>
        <pt x="128" y="384" on="1"/>
        <pt x="128" y="448" on="1"/>
        <pt x="192" y="448" on="1"/>
        <pt x="256" y="448" on="1"/>
        <pt x="320" y="448" on="1"/>
        <pt x="384" y="448" on="1"/>
        <pt x="448" y="448" on="1"/>
        <pt x="448" y="384" on="1"/>
        <pt x="384" y="384" on="1"/>
        <pt x="320" y="384" on="1"/>
        <pt x="256" y="384" on="1"/>
        <pt x="192" y="384" on="1"/>
        <pt x="192" y="320" on="1"/>
        <pt x="128" y="320" on="1"/>
        <pt x="128" y="256" on="1"/>
        <pt x="128" y="192" on="1"/>
        <pt x="128" y="128" on="1"/>
        <pt x="192" y="128" on="1"/>
        <pt x="192" y="64" on="1"/>
        <pt x="256" y="64" on="1"/>
        <pt x="320" y="64" on="1"/>
        <pt x="320" y="128" on="1"/>
        <pt x="320" y="192" on="1"/>
        <pt x="256" y="192" on="1"/>
        <pt x="256" y="256" on="1"/>
        <pt x="320" y="256" on="1"/>
        <pt x="384" y="256" on="1"/>
        <pt x="448" y="256" on="1"/>
        <pt x="448" y="192" on="1"/>
        <pt x="448" y="128" on="1"/>
        <pt x="448" y="64" on="1"/>
        <pt x="448" y="0" on="1"/>
      </contour>
    </TTGlyph>
    <TTGlyph name="H" xMin="0" yMin="0" xMax="448" yMax="448">
      <contour>
        <pt x="384" y="0" on="1"/>
        <pt x="320" y="0" on="1"/>
        <pt x="320" y="64" on="1"/>
        <pt x="320" y="128" on="1"/>
        <pt x="320" y="192" on="1"/>
        <pt x="256" y="192" on="1"/>
        <pt x="192" y="192" on="1"/>
        <pt x="128" y="192" on="1"/>
        <pt x="128" y="128" on="1"/>
        <pt x="128" y="64" on="1"/>
        <pt x="128" y="0" on="1"/>
        <pt x="64" y="0" on="1"/>
        <pt x="0" y="0" on="1"/>
        <pt x="0" y="64" on="1"/>
        <pt x="0" y="128" on="1"/>
        <pt x="0" y="192" on="1"/>
        <pt x="0" y="256" on="1"/>
        <pt x="0" y="320" on="1"/>
        <pt x="0" y="384" on="1"/>
        <pt x="0" y="448" on="1"/>
        <pt x="64" y="448" on="1"/>
        <pt x="128" y="448" on="1"/>
        <pt x="128" y="384" on="1"/>
        <pt x="128" y="320" on="1"/>
        <pt x="128" y="256" on="1"/>
        <pt x="192" y="256" on="1"/>
        <pt x="256" y="256" on="1"/>
        <pt x="320" y="256" on="1"/>
        <pt x="320" y="320" on="1"/>
        <pt x="320" y="384" on="1"/>
        <pt x="320" y="448" on="1"/>
        <pt x="384" y="448" on="1"/>
        <pt x="448" y="448" on="1"/>
        <pt x="448" y="384" on="1"/>
        <pt x="448" y="320" on="1"/>
        <pt x="448" y="256" on="1"/>
        <pt x="448" y="192" on="1"/>
        <pt x="448" y="128" on="1"/>
        <pt x="448" y="64" on="1"/>
        <pt x="448" y="0" on="1"/>
      </contour>
    </TTGlyph>
    <TTGlyph name="I" xMin="64" yMin="0" xMax="448" yMax="448">
      <contour>
        <pt x="384" y="64" on="1"/>
        <pt x="448" y="64" on="1"/>
        <pt x="448" y="0" on="1"/>
        <pt x="384" y="0" on="1"/>
        <pt x="320" y="0" on="1"/>
        <pt x="256" y="0" on="1"/>
        <pt x="192" y="0" on="1"/>
        <pt x="128" y="0" on="1"/>
        <pt x="64" y="0" on="1"/>
        <pt x="64" y="64" on="1"/>
        <pt x="128" y="64" on="1"/>
        <pt x="192" y="64" on="1"/>
        <pt x="192" y="128" on="1"/>
        <pt x="192" y="192" on="1"/>
        <pt x="192" y="256" on="1"/>
        <pt x="192" y="320" on="1"/>
        <pt x="192" y="384" on="1"/>
        <pt x="128" y="384" on="1"/>
        <pt x="64" y="384" on="1"/>
        <pt x="64" y="448" on="1"/>
        <pt x="128" y="448" on="1"/>
        <pt x="192" y="448" on="1"/>
        <pt x="256" y="448" on="1"/>
        <pt x="320" y="448" on="1"/>
        <pt x="384" y="448" on="1"/>
        <pt x="448" y="448" on="1"/>
        <pt x="448" y="384" on="1"/>
        <pt x="384" y="384" on="1"/>
        <pt x="320" y="384" on="1"/>
        <pt x="320" y="320" on="1"/>
        <pt x="320" y="256" on="1"/>
        <pt x="320" y="192" on="1"/>
        <pt x="320" y="128" on="1"/>
        <pt x="320" y="64" on="1"/>
      </contour>
    </TTGlyph>
    <TTGlyph name="Iacute" xMin="64" yMin="0" xMax="448" yMax="448">
      <contour>
        <pt x="384" y="64" on="1"/>
        <pt x="448" y="64" on="1"/>
        <pt x="448" y="0" on="1"/>
        <pt x="384" y="0" on="1"/>
        <pt x="320" y="0" on="1"/>
        <pt x="256" y="0" on="1"/>
        <pt x="192" y="0" on="1"/>
        <pt x="128" y="0" on="1"/>
        <pt x="64" y="0" on="1"/>
        <pt x="64" y="64" on="1"/>
        <pt x="128" y="64" on="1"/>
        <pt x="192" y="64" on="1"/>
        <pt x="192" y="128" on="1"/>
        <pt x="192" y="192" on="1"/>
        <pt x="192" y="256" on="1"/>
        <pt x="128" y="256" on="1"/>
        <pt x="64" y="256" on="1"/>
        <pt x="64" y="320" on="1"/>
        <pt x="128" y="320" on="1"/>
        <pt x="192" y="320" on="1"/>
        <pt x="192" y="384" on="1"/>
        <pt x="256" y="384" on="1"/>
        <pt x="256" y="320" on="1"/>
        <pt x="320" y="320" on="1"/>
        <pt x="384" y="320" on="1"/>
        <pt x="448" y="320" on="1"/>
        <pt x="448" y="256" on="1"/>
        <pt x="384" y="256" on="1"/>
        <pt x="320" y="256" on="1"/>
        <pt x="320" y="192" on="1"/>
        <pt x="320" y="128" on="1"/>
        <pt x="320" y="64" on="1"/>
      </contour>
      <contour>
        <pt x="256" y="384" on="1"/>
        <pt x="256" y="448" on="1"/>
        <pt x="320" y="448" on="1"/>
        <pt x="320" y="384" on="1"/>
      </contour>
    </TTGlyph>
    <TTGlyph name="Icircumflex" xMin="64" yMin="0" xMax="448" yMax="448">
      <contour>
        <pt x="384" y="64" on="1"/>
        <pt x="448" y="64" on="1"/>
        <pt x="448" y="0" on="1"/>
        <pt x="384" y="0" on="1"/>
        <pt x="320" y="0" on="1"/>
        <pt x="256" y="0" on="1"/>
        <pt x="192" y="0" on="1"/>
        <pt x="128" y="0" on="1"/>
        <pt x="64" y="0" on="1"/>
        <pt x="64" y="64" on="1"/>
        <pt x="128" y="64" on="1"/>
        <pt x="192" y="64" on="1"/>
        <pt x="192" y="128" on="1"/>
        <pt x="192" y="192" on="1"/>
        <pt x="192" y="256" on="1"/>
        <pt x="128" y="256" on="1"/>
        <pt x="64" y="256" on="1"/>
        <pt x="64" y="320" on="1"/>
        <pt x="128" y="320" on="1"/>
        <pt x="128" y="384" on="1"/>
        <pt x="192" y="384" on="1"/>
        <pt x="192" y="320" on="1"/>
        <pt x="256" y="320" on="1"/>
        <pt x="320" y="320" on="1"/>
        <pt x="320" y="384" on="1"/>
        <pt x="384" y="384" on="1"/>
        <pt x="384" y="320" on="1"/>
        <pt x="448" y="320" on="1"/>
        <pt x="448" y="256" on="1"/>
        <pt x="384" y="256" on="1"/>
        <pt x="320" y="256" on="1"/>
        <pt x="320" y="192" on="1"/>
        <pt x="320" y="128" on="1"/>
        <pt x="320" y="64" on="1"/>
      </contour>
      <contour>
        <pt x="320" y="384" on="1"/>
        <pt x="256" y="384" on="1"/>
        <pt x="192" y="384" on="1"/>
        <pt x="192" y="448" on="1"/>
        <pt x="256" y="448" on="1"/>
        <pt x="320" y="448" on="1"/>
      </contour>
    </TTGlyph>
    <TTGlyph name="Idieresis" xMin="64" yMin="0" xMax="448" yMax="448">
      <contour>
        <pt x="320" y="384" on="1"/>
        <pt x="320" y="448" on="1"/>
        <pt x="384" y="448" on="1"/>
        <pt x="384" y="384" on="1"/>
      </contour>
      <contour>
        <pt x="128" y="384" on="1"/>
        <pt x="128" y="448" on="1"/>
        <pt x="192" y="448" on="1"/>
        <pt x="192" y="384" on="1"/>
      </contour>
      <contour>
        <pt x="384" y="64" on="1"/>
        <pt x="448" y="64" on="1"/>
        <pt x="448" y="0" on="1"/>
        <pt x="384" y="0" on="1"/>
        <pt x="320" y="0" on="1"/>
        <pt x="256" y="0" on="1"/>
        <pt x="192" y="0" on="1"/>
        <pt x="128" y="0" on="1"/>
        <pt x="64" y="0" on="1"/>
        <pt x="64" y="64" on="1"/>
        <pt x="128" y="64" on="1"/>
        <pt x="192" y="64" on="1"/>
        <pt x="192" y="128" on="1"/>
        <pt x="192" y="192" on="1"/>
        <pt x="192" y="256" on="1"/>
        <pt x="128" y="256" on="1"/>
        <pt x="64" y="256" on="1"/>
        <pt x="64" y="320" on="1"/>
        <pt x="128" y="320" on="1"/>
        <pt x="192" y="320" on="1"/>
        <pt x="256" y="320" on="1"/>
        <pt x="320" y="320" on="1"/>
        <pt x="384" y="320" on="1"/>
        <pt x="448" y="320" on="1"/>
        <pt x="448" y="256" on="1"/>
        <pt x="384" y="256" on="1"/>
        <pt x="320" y="256" on="1"/>
        <pt x="320" y="192" on="1"/>
        <pt x="320" y="128" on="1"/>
        <pt x="320" y="64" on="1"/>
      </contour>
    </TTGlyph>
    <TTGlyph name="Igrave" xMin="64" yMin="0" xMax="448" yMax="448">
      <contour>
        <pt x="384" y="64" on="1"/>
        <pt x="448" y="64" on="1"/>
        <pt x="448" y="0" on="1"/>
        <pt x="384" y="0" on="1"/>
        <pt x="320" y="0" on="1"/>
        <pt x="256" y="0" on="1"/>
        <pt x="192" y="0" on="1"/>
        <pt x="128" y="0" on="1"/>
        <pt x="64" y="0" on="1"/>
        <pt x="64" y="64" on="1"/>
        <pt x="128" y="64" on="1"/>
        <pt x="192" y="64" on="1"/>
        <pt x="192" y="128" on="1"/>
        <pt x="192" y="192" on="1"/>
        <pt x="192" y="256" on="1"/>
        <pt x="128" y="256" on="1"/>
        <pt x="64" y="256" on="1"/>
        <pt x="64" y="320" on="1"/>
        <pt x="128" y="320" on="1"/>
        <pt x="192" y="320" on="1"/>
        <pt x="256" y="320" on="1"/>
        <pt x="256" y="384" on="1"/>
        <pt x="320" y="384" on="1"/>
        <pt x="320" y="320" on="1"/>
        <pt x="384" y="320" on="1"/>
        <pt x="448" y="320" on="1"/>
        <pt x="448" y="256" on="1"/>
        <pt x="384" y="256" on="1"/>
        <pt x="320" y="256" on="1"/>
        <pt x="320" y="192" on="1"/>
        <pt x="320" y="128" on="1"/>
        <pt x="320" y="64" on="1"/>
      </contour>
      <contour>
        <pt x="256" y="384" on="1"/>
        <pt x="192" y="384" on="1"/>
        <pt x="192" y="448" on="1"/>
        <pt x="256" y="448" on="1"/>
      </contour>
    </TTGlyph>
    <TTGlyph name="J" xMin="0" yMin="0" xMax="448" yMax="448">
      <contour>
        <pt x="320" y="0" on="1"/>
        <pt x="256" y="0" on="1"/>
        <pt x="192" y="0" on="1"/>
        <pt x="128" y="0" on="1"/>
        <pt x="64" y="0" on="1"/>
        <pt x="64" y="64" on="1"/>
        <pt x="0" y="64" on="1"/>
        <pt x="0" y="128" on="1"/>
        <pt x="64" y="128" on="1"/>
        <pt x="128" y="128" on="1"/>
        <pt x="128" y="64" on="1"/>
        <pt x="192" y="64" on="1"/>
        <pt x="256" y="64" on="1"/>
        <pt x="320" y="64" on="1"/>
        <pt x="320" y="128" on="1"/>
        <pt x="320" y="192" on="1"/>
        <pt x="320" y="256" on="1"/>
        <pt x="320" y="320" on="1"/>
        <pt x="320" y="384" on="1"/>
        <pt x="320" y="448" on="1"/>
        <pt x="384" y="448" on="1"/>
        <pt x="448" y="448" on="1"/>
        <pt x="448" y="384" on="1"/>
        <pt x="448" y="320" on="1"/>
        <pt x="448" y="256" on="1"/>
        <pt x="448" y="192" on="1"/>
        <pt x="448" y="128" on="1"/>
        <pt x="448" y="64" on="1"/>
        <pt x="384" y="64" on="1"/>
        <pt x="384" y="0" on="1"/>
      </contour>
    </TTGlyph>
    <TTGlyph name="K" xMin="0" yMin="0" xMax="448" yMax="448">
      <contour>
        <pt x="384" y="0" on="1"/>
        <pt x="320" y="0" on="1"/>
        <pt x="256" y="0" on="1"/>
        <pt x="256" y="64" on="1"/>
        <pt x="192" y="64" on="1"/>
        <pt x="192" y="128" on="1"/>
        <pt x="128" y="128" on="1"/>
        <pt x="128" y="64" on="1"/>
        <pt x="128" y="0" on="1"/>
        <pt x="64" y="0" on="1"/>
        <pt x="0" y="0" on="1"/>
        <pt x="0" y="64" on="1"/>
        <pt x="0" y="128" on="1"/>
        <pt x="0" y="192" on="1"/>
        <pt x="0" y="256" on="1"/>
        <pt x="0" y="320" on="1"/>
        <pt x="0" y="384" on="1"/>
        <pt x="0" y="448" on="1"/>
        <pt x="64" y="448" on="1"/>
        <pt x="128" y="448" on="1"/>
        <pt x="128" y="384" on="1"/>
        <pt x="128" y="320" on="1"/>
        <pt x="128" y="256" on="1"/>
        <pt x="192" y="256" on="1"/>
        <pt x="192" y="320" on="1"/>
        <pt x="256" y="320" on="1"/>
        <pt x="256" y="384" on="1"/>
        <pt x="320" y="384" on="1"/>
        <pt x="320" y="448" on="1"/>
        <pt x="384" y="448" on="1"/>
        <pt x="448" y="448" on="1"/>
        <pt x="448" y="384" on="1"/>
        <pt x="384" y="384" on="1"/>
        <pt x="384" y="320" on="1"/>
        <pt x="320" y="320" on="1"/>
        <pt x="320" y="256" on="1"/>
        <pt x="256" y="256" on="1"/>
        <pt x="256" y="192" on="1"/>
        <pt x="320" y="192" on="1"/>
        <pt x="320" y="128" on="1"/>
        <pt x="384" y="128" on="1"/>
        <pt x="384" y="64" on="1"/>
        <pt x="448" y="64" on="1"/>
        <pt x="448" y="0" on="1"/>
      </contour>
    </TTGlyph>
    <TTGlyph name="L" xMin="0" yMin="0" xMax="448" yMax="448">
      <contour>
        <pt x="384" y="64" on="1"/>
        <pt x="448" y="64" on="1"/>
        <pt x="448" y="0" on="1"/>
        <pt x="384" y="0" on="1"/>
        <pt x="320" y="0" on="1"/>
        <pt x="256" y="0" on="1"/>
        <pt x="192" y="0" on="1"/>
        <pt x="128" y="0" on="1"/>
        <pt x="64" y="0" on="1"/>
        <pt x="0" y="0" on="1"/>
        <pt x="0" y="64" on="1"/>
        <pt x="0" y="128" on="1"/>
        <pt x="0" y="192" on="1"/>
        <pt x="0" y="256" on="1"/>
        <pt x="0" y="320" on="1"/>
        <pt x="0" y="384" on="1"/>
        <pt x="0" y="448" on="1"/>
        <pt x="64" y="448" on="1"/>
        <pt x="128" y="448" on="1"/>
        <pt x="128" y="384" on="1"/>
        <pt x="128" y="320" on="1"/>
        <pt x="128" y="256" on="1"/>
        <pt x="128" y="192" on="1"/>
        <pt x="128" y="128" on="1"/>
        <pt x="128" y="64" on="1"/>
        <pt x="192" y="64" on="1"/>
        <pt x="256" y="64" on="1"/>
        <pt x="320" y="64" on="1"/>
      </contour>
    </TTGlyph>
    <TTGlyph name="M" xMin="0" yMin="0" xMax="448" yMax="448">
      <contour>
        <pt x="192" y="128" on="1"/>
        <pt x="192" y="192" on="1"/>
        <pt x="128" y="192" on="1"/>
        <pt x="128" y="128" on="1"/>
        <pt x="128" y="64" on="1"/>
        <pt x="128" y="0" on="1"/>
        <pt x="64" y="0" on="1"/>
        <pt x="0" y="0" on="1"/>
        <pt x="0" y="64" on="1"/>
        <pt x="0" y="128" on="1"/>
        <pt x="0" y="192" on="1"/>
        <pt x="0" y="256" on="1"/>
        <pt x="0" y="320" on="1"/>
        <pt x="0" y="384" on="1"/>
        <pt x="0" y="448" on="1"/>
        <pt x="64" y="448" on="1"/>
        <pt x="128" y="448" on="1"/>
        <pt x="128" y="384" on="1"/>
        <pt x="192" y="384" on="1"/>
        <pt x="192" y="320" on="1"/>
        <pt x="256" y="320" on="1"/>
        <pt x="256" y="384" on="1"/>
        <pt x="320" y="384" on="1"/>
        <pt x="320" y="448" on="1"/>
        <pt x="384" y="448" on="1"/>
        <pt x="448" y="448" on="1"/>
        <pt x="448" y="384" on="1"/>
        <pt x="448" y="320" on="1"/>
        <pt x="448" y="256" on="1"/>
        <pt x="448" y="192" on="1"/>
        <pt x="448" y="128" on="1"/>
        <pt x="448" y="64" on="1"/>
        <pt x="448" y="0" on="1"/>
        <pt x="384" y="0" on="1"/>
        <pt x="320" y="0" on="1"/>
        <pt x="320" y="64" on="1"/>
        <pt x="320" y="128" on="1"/>
        <pt x="320" y="192" on="1"/>
        <pt x="256" y="192" on="1"/>
        <pt x="256" y="128" on="1"/>
      </contour>
    </TTGlyph>
    <TTGlyph name="N" xMin="0" yMin="0" xMax="448" yMax="448">
      <contour>
        <pt x="384" y="0" on="1"/>
        <pt x="320" y="0" on="1"/>
        <pt x="320" y="64" on="1"/>
        <pt x="256" y="64" on="1"/>
        <pt x="256" y="128" on="1"/>
        <pt x="192" y="128" on="1"/>
        <pt x="192" y="192" on="1"/>
        <pt x="128" y="192" on="1"/>
        <pt x="128" y="128" on="1"/>
        <pt x="128" y="64" on="1"/>
        <pt x="128" y="0" on="1"/>
        <pt x="64" y="0" on="1"/>
        <pt x="0" y="0" on="1"/>
        <pt x="0" y="64" on="1"/>
        <pt x="0" y="128" on="1"/>
        <pt x="0" y="192" on="1"/>
        <pt x="0" y="256" on="1"/>
        <pt x="0" y="320" on="1"/>
        <pt x="0" y="384" on="1"/>
        <pt x="0" y="448" on="1"/>
        <pt x="64" y="448" on="1"/>
        <pt x="128" y="448" on="1"/>
        <pt x="128" y="384" on="1"/>
        <pt x="192" y="384" on="1"/>
        <pt x="192" y="320" on="1"/>
        <pt x="256" y="320" on="1"/>
        <pt x="256" y="256" on="1"/>
        <pt x="320" y="256" on="1"/>
        <pt x="320" y="320" on="1"/>
        <pt x="320" y="384" on="1"/>
        <pt x="320" y="448" on="1"/>
        <pt x="384" y="448" on="1"/>
        <pt x="448" y="448" on="1"/>
        <pt x="448" y="384" on="1"/>
        <pt x="448" y="320" on="1"/>
        <pt x="448" y="256" on="1"/>
        <pt x="448" y="192" on="1"/>
        <pt x="448" y="128" on="1"/>
        <pt x="448" y="64" on="1"/>
        <pt x="448" y="0" on="1"/>
      </contour>
    </TTGlyph>
    <TTGlyph name="Ntilde" xMin="0" yMin="0" xMax="448" yMax="448">
      <contour>
        <pt x="384" y="0" on="1"/>
        <pt x="320" y="0" on="1"/>
        <pt x="320" y="64" on="1"/>
        <pt x="256" y="64" on="1"/>
        <pt x="256" y="128" on="1"/>
        <pt x="320" y="128" on="1"/>
        <pt x="320" y="192" on="1"/>
        <pt x="320" y="256" on="1"/>
        <pt x="320" y="320" on="1"/>
        <pt x="384" y="320" on="1"/>
        <pt x="448" y="320" on="1"/>
        <pt x="448" y="256" on="1"/>
        <pt x="448" y="192" on="1"/>
        <pt x="448" y="128" on="1"/>
        <pt x="448" y="64" on="1"/>
        <pt x="448" y="0" on="1"/>
      </contour>
      <contour>
        <pt x="64" y="0" on="1"/>
        <pt x="0" y="0" on="1"/>
        <pt x="0" y="64" on="1"/>
        <pt x="0" y="128" on="1"/>
        <pt x="0" y="192" on="1"/>
        <pt x="0" y="256" on="1"/>
        <pt x="0" y="320" on="1"/>
        <pt x="64" y="320" on="1"/>
        <pt x="64" y="384" on="1"/>
        <pt x="128" y="384" on="1"/>
        <pt x="128" y="320" on="1"/>
        <pt x="128" y="256" on="1"/>
        <pt x="192" y="256" on="1"/>
        <pt x="192" y="192" on="1"/>
        <pt x="256" y="192" on="1"/>
        <pt x="256" y="128" on="1"/>
        <pt x="192" y="128" on="1"/>
        <pt x="192" y="192" on="1"/>
        <pt x="128" y="192" on="1"/>
        <pt x="128" y="128" on="1"/>
        <pt x="128" y="64" on="1"/>
        <pt x="128" y="0" on="1"/>
      </contour>
      <contour>
        <pt x="320" y="320" on="1"/>
        <pt x="256" y="320" on="1"/>
        <pt x="192" y="320" on="1"/>
        <pt x="192" y="384" on="1"/>
        <pt x="128" y="384" on="1"/>
        <pt x="128" y="448" on="1"/>
        <pt x="192" y="448" on="1"/>
        <pt x="256" y="448" on="1"/>
        <pt x="256" y="384" on="1"/>
        <pt x="320" y="384" on="1"/>
      </contour>
      <contour>
        <pt x="320" y="384" on="1"/>
        <pt x="320" y="448" on="1"/>
        <pt x="384" y="448" on="1"/>
        <pt x="384" y="384" on="1"/>
      </contour>
    </TTGlyph>
    <TTGlyph name="O" xMin="0" yMin="0" xMax="448" yMax="448">
      <contour>
        <pt x="320" y="0" on="1"/>
        <pt x="256" y="0" on="1"/>
        <pt x="192" y="0" on="1"/>
        <pt x="128" y="0" on="1"/>
        <pt x="64" y="0" on="1"/>
        <pt x="64" y="64" on="1"/>
        <pt x="0" y="64" on="1"/>
        <pt x="0" y="128" on="1"/>
        <pt x="0" y="192" on="1"/>
        <pt x="0" y="256" on="1"/>
        <pt x="0" y="320" on="1"/>
        <pt x="0" y="384" on="1"/>
        <pt x="64" y="384" on="1"/>
        <pt x="64" y="448" on="1"/>
        <pt x="128" y="448" on="1"/>
        <pt x="192" y="448" on="1"/>
        <pt x="256" y="448" on="1"/>
        <pt x="320" y="448" on="1"/>
        <pt x="384" y="448" on="1"/>
        <pt x="384" y="384" on="1"/>
        <pt x="448" y="384" on="1"/>
        <pt x="448" y="320" on="1"/>
        <pt x="448" y="256" on="1"/>
        <pt x="448" y="192" on="1"/>
        <pt x="448" y="128" on="1"/>
        <pt x="448" y="64" on="1"/>
        <pt x="384" y="64" on="1"/>
        <pt x="384" y="0" on="1"/>
      </contour>
      <contour>
        <pt x="256" y="64" on="1"/>
        <pt x="320" y="64" on="1"/>
        <pt x="320" y="128" on="1"/>
        <pt x="320" y="192" on="1"/>
        <pt x="320" y="256" on="1"/>
        <pt x="320" y="320" on="1"/>
        <pt x="320" y="384" on="1"/>
        <pt x="256" y="384" on="1"/>
        <pt x="192" y="384" on="1"/>
        <pt x="128" y="384" on="1"/>
        <pt x="128" y="320" on="1"/>
        <pt x="128" y="256" on="1"/>
        <pt x="128" y="192" on="1"/>
        <pt x="128" y="128" on="1"/>
        <pt x="128" y="64" on="1"/>
        <pt x="192" y="64" on="1"/>
      </contour>
    </TTGlyph>
    <TTGlyph name="OE" xMin="0" yMin="0" xMax="448" yMax="448">
      <contour>
        <pt x="192" y="0" on="1"/>
        <pt x="192" y="64" on="1"/>
        <pt x="128" y="64" on="1"/>
        <pt x="128" y="128" on="1"/>
        <pt x="64" y="128" on="1"/>
        <pt x="64" y="192" on="1"/>
        <pt x="0" y="192" on="1"/>
        <pt x="0" y="256" on="1"/>
        <pt x="0" y="320" on="1"/>
        <pt x="0" y="384" on="1"/>
        <pt x="64" y="384" on="1"/>
        <pt x="64" y="448" on="1"/>
        <pt x="128" y="448" on="1"/>
        <pt x="192" y="448" on="1"/>
        <pt x="192" y="384" on="1"/>
        <pt x="256" y="384" on="1"/>
        <pt x="256" y="448" on="1"/>
        <pt x="320" y="448" on="1"/>
        <pt x="384" y="448" on="1"/>
        <pt x="384" y="384" on="1"/>
        <pt x="448" y="384" on="1"/>
        <pt x="448" y="320" on="1"/>
        <pt x="448" y="256" on="1"/>
        <pt x="448" y="192" on="1"/>
        <pt x="384" y="192" on="1"/>
        <pt x="384" y="128" on="1"/>
        <pt x="320" y="128" on="1"/>
        <pt x="320" y="64" on="1"/>
        <pt x="256" y="64" on="1"/>
        <pt x="256" y="0" on="1"/>
      </contour>
    </TTGlyph>
    <TTGlyph name="Oacute" xMin="0" yMin="0" xMax="448" yMax="448">
      <contour>
        <pt x="320" y="0" on="1"/>
        <pt x="256" y="0" on="1"/>
        <pt x="192" y="0" on="1"/>
        <pt x="128" y="0" on="1"/>
        <pt x="64" y="0" on="1"/>
        <pt x="64" y="64" on="1"/>
        <pt x="0" y="64" on="1"/>
        <pt x="0" y="128" on="1"/>
        <pt x="0" y="192" on="1"/>
        <pt x="0" y="256" on="1"/>
        <pt x="64" y="256" on="1"/>
        <pt x="64" y="320" on="1"/>
        <pt x="128" y="320" on="1"/>
        <pt x="192" y="320" on="1"/>
        <pt x="192" y="384" on="1"/>
        <pt x="256" y="384" on="1"/>
        <pt x="256" y="320" on="1"/>
        <pt x="320" y="320" on="1"/>
        <pt x="384" y="320" on="1"/>
        <pt x="384" y="256" on="1"/>
        <pt x="448" y="256" on="1"/>
        <pt x="448" y="192" on="1"/>
        <pt x="448" y="128" on="1"/>
        <pt x="448" y="64" on="1"/>
        <pt x="384" y="64" on="1"/>
        <pt x="384" y="0" on="1"/>
      </contour>
      <contour>
        <pt x="256" y="64" on="1"/>
        <pt x="320" y="64" on="1"/>
        <pt x="320" y="128" on="1"/>
        <pt x="320" y="192" on="1"/>
        <pt x="320" y="256" on="1"/>
        <pt x="256" y="256" on="1"/>
        <pt x="192" y="256" on="1"/>
        <pt x="128" y="256" on="1"/>
        <pt x="128" y="192" on="1"/>
        <pt x="128" y="128" on="1"/>
        <pt x="128" y="64" on="1"/>
        <pt x="192" y="64" on="1"/>
      </contour>
      <contour>
        <pt x="256" y="384" on="1"/>
        <pt x="256" y="448" on="1"/>
        <pt x="320" y="448" on="1"/>
        <pt x="320" y="384" on="1"/>
      </contour>
    </TTGlyph>
    <TTGlyph name="Ocircumflex" xMin="0" yMin="0" xMax="448" yMax="448">
      <contour>
        <pt x="320" y="0" on="1"/>
        <pt x="256" y="0" on="1"/>
        <pt x="192" y="0" on="1"/>
        <pt x="128" y="0" on="1"/>
        <pt x="64" y="0" on="1"/>
        <pt x="64" y="64" on="1"/>
        <pt x="0" y="64" on="1"/>
        <pt x="0" y="128" on="1"/>
        <pt x="0" y="192" on="1"/>
        <pt x="0" y="256" on="1"/>
        <pt x="64" y="256" on="1"/>
        <pt x="64" y="320" on="1"/>
        <pt x="64" y="384" on="1"/>
        <pt x="128" y="384" on="1"/>
        <pt x="128" y="320" on="1"/>
        <pt x="192" y="320" on="1"/>
        <pt x="256" y="320" on="1"/>
        <pt x="320" y="320" on="1"/>
        <pt x="320" y="384" on="1"/>
        <pt x="384" y="384" on="1"/>
        <pt x="384" y="320" on="1"/>
        <pt x="384" y="256" on="1"/>
        <pt x="448" y="256" on="1"/>
        <pt x="448" y="192" on="1"/>
        <pt x="448" y="128" on="1"/>
        <pt x="448" y="64" on="1"/>
        <pt x="384" y="64" on="1"/>
        <pt x="384" y="0" on="1"/>
      </contour>
      <contour>
        <pt x="256" y="64" on="1"/>
        <pt x="320" y="64" on="1"/>
        <pt x="320" y="128" on="1"/>
        <pt x="320" y="192" on="1"/>
        <pt x="320" y="256" on="1"/>
        <pt x="256" y="256" on="1"/>
        <pt x="192" y="256" on="1"/>
        <pt x="128" y="256" on="1"/>
        <pt x="128" y="192" on="1"/>
        <pt x="128" y="128" on="1"/>
        <pt x="128" y="64" on="1"/>
        <pt x="192" y="64" on="1"/>
      </contour>
      <contour>
        <pt x="320" y="384" on="1"/>
        <pt x="256" y="384" on="1"/>
        <pt x="192" y="384" on="1"/>
        <pt x="128" y="384" on="1"/>
        <pt x="128" y="448" on="1"/>
        <pt x="192" y="448" on="1"/>
        <pt x="256" y="448" on="1"/>
        <pt x="320" y="448" on="1"/>
      </contour>
    </TTGlyph>
    <TTGlyph name="Odieresis" xMin="0" yMin="0" xMax="448" yMax="448">
      <contour>
        <pt x="256" y="384" on="1"/>
        <pt x="256" y="448" on="1"/>
        <pt x="320" y="448" on="1"/>
        <pt x="320" y="384" on="1"/>
      </contour>
      <contour>
        <pt x="128" y="384" on="1"/>
        <pt x="128" y="448" on="1"/>
        <pt x="192" y="448" on="1"/>
        <pt x="192" y="384" on="1"/>
      </contour>
      <contour>
        <pt x="320" y="0" on="1"/>
        <pt x="256" y="0" on="1"/>
        <pt x="192" y="0" on="1"/>
        <pt x="128" y="0" on="1"/>
        <pt x="64" y="0" on="1"/>
        <pt x="64" y="64" on="1"/>
        <pt x="0" y="64" on="1"/>
        <pt x="0" y="128" on="1"/>
        <pt x="0" y="192" on="1"/>
        <pt x="0" y="256" on="1"/>
        <pt x="64" y="256" on="1"/>
        <pt x="64" y="320" on="1"/>
        <pt x="128" y="320" on="1"/>
        <pt x="192" y="320" on="1"/>
        <pt x="256" y="320" on="1"/>
        <pt x="320" y="320" on="1"/>
        <pt x="384" y="320" on="1"/>
        <pt x="384" y="256" on="1"/>
        <pt x="448" y="256" on="1"/>
        <pt x="448" y="192" on="1"/>
        <pt x="448" y="128" on="1"/>
        <pt x="448" y="64" on="1"/>
        <pt x="384" y="64" on="1"/>
        <pt x="384" y="0" on="1"/>
      </contour>
      <contour>
        <pt x="256" y="64" on="1"/>
        <pt x="320" y="64" on="1"/>
        <pt x="320" y="128" on="1"/>
        <pt x="320" y="192" on="1"/>
        <pt x="320" y="256" on="1"/>
        <pt x="256" y="256" on="1"/>
        <pt x="192" y="256" on="1"/>
        <pt x="128" y="256" on="1"/>
        <pt x="128" y="192" on="1"/>
        <pt x="128" y="128" on="1"/>
        <pt x="128" y="64" on="1"/>
        <pt x="192" y="64" on="1"/>
      </contour>
    </TTGlyph>
    <TTGlyph name="Ograve" xMin="0" yMin="0" xMax="448" yMax="448">
      <contour>
        <pt x="320" y="0" on="1"/>
        <pt x="256" y="0" on="1"/>
        <pt x="192" y="0" on="1"/>
        <pt x="128" y="0" on="1"/>
        <pt x="64" y="0" on="1"/>
        <pt x="64" y="64" on="1"/>
        <pt x="0" y="64" on="1"/>
        <pt x="0" y="128" on="1"/>
        <pt x="0" y="192" on="1"/>
        <pt x="0" y="256" on="1"/>
        <pt x="64" y="256" on="1"/>
        <pt x="64" y="320" on="1"/>
        <pt x="128" y="320" on="1"/>
        <pt x="192" y="320" on="1"/>
        <pt x="192" y="384" on="1"/>
        <pt x="256" y="384" on="1"/>
        <pt x="256" y="320" on="1"/>
        <pt x="320" y="320" on="1"/>
        <pt x="384" y="320" on="1"/>
        <pt x="384" y="256" on="1"/>
        <pt x="448" y="256" on="1"/>
        <pt x="448" y="192" on="1"/>
        <pt x="448" y="128" on="1"/>
        <pt x="448" y="64" on="1"/>
        <pt x="384" y="64" on="1"/>
        <pt x="384" y="0" on="1"/>
      </contour>
      <contour>
        <pt x="256" y="64" on="1"/>
        <pt x="320" y="64" on="1"/>
        <pt x="320" y="128" on="1"/>
        <pt x="320" y="192" on="1"/>
        <pt x="320" y="256" on="1"/>
        <pt x="256" y="256" on="1"/>
        <pt x="192" y="256" on="1"/>
        <pt x="128" y="256" on="1"/>
        <pt x="128" y="192" on="1"/>
        <pt x="128" y="128" on="1"/>
        <pt x="128" y="64" on="1"/>
        <pt x="192" y="64" on="1"/>
      </contour>
      <contour>
        <pt x="192" y="384" on="1"/>
        <pt x="128" y="384" on="1"/>
        <pt x="128" y="448" on="1"/>
        <pt x="192" y="448" on="1"/>
      </contour>
    </TTGlyph>
    <TTGlyph name="Oslash" xMin="0" yMin="0" xMax="448" yMax="448">
      <contour>
        <pt x="320" y="0" on="1"/>
        <pt x="256" y="0" on="1"/>
        <pt x="192" y="0" on="1"/>
        <pt x="128" y="0" on="1"/>
        <pt x="64" y="0" on="1"/>
        <pt x="64" y="64" on="1"/>
        <pt x="0" y="64" on="1"/>
        <pt x="0" y="128" on="1"/>
        <pt x="0" y="192" on="1"/>
        <pt x="0" y="256" on="1"/>
        <pt x="0" y="320" on="1"/>
        <pt x="0" y="384" on="1"/>
        <pt x="64" y="384" on="1"/>
        <pt x="64" y="448" on="1"/>
        <pt x="128" y="448" on="1"/>
        <pt x="192" y="448" on="1"/>
        <pt x="256" y="448" on="1"/>
        <pt x="320" y="448" on="1"/>
        <pt x="384" y="448" on="1"/>
        <pt x="384" y="384" on="1"/>
        <pt x="448" y="384" on="1"/>
        <pt x="448" y="320" on="1"/>
        <pt x="448" y="256" on="1"/>
        <pt x="448" y="192" on="1"/>
        <pt x="448" y="128" on="1"/>
        <pt x="448" y="64" on="1"/>
        <pt x="384" y="64" on="1"/>
        <pt x="384" y="0" on="1"/>
      </contour>
      <contour>
        <pt x="256" y="64" on="1"/>
        <pt x="320" y="64" on="1"/>
        <pt x="320" y="128" on="1"/>
        <pt x="320" y="192" on="1"/>
        <pt x="320" y="256" on="1"/>
        <pt x="256" y="256" on="1"/>
        <pt x="256" y="192" on="1"/>
        <pt x="192" y="192" on="1"/>
        <pt x="192" y="256" on="1"/>
        <pt x="256" y="256" on="1"/>
        <pt x="256" y="320" on="1"/>
        <pt x="320" y="320" on="1"/>
        <pt x="320" y="384" on="1"/>
        <pt x="256" y="384" on="1"/>
        <pt x="192" y="384" on="1"/>
        <pt x="128" y="384" on="1"/>
        <pt x="128" y="320" on="1"/>
        <pt x="128" y="256" on="1"/>
        <pt x="128" y="192" on="1"/>
        <pt x="192" y="192" on="1"/>
        <pt x="192" y="128" on="1"/>
        <pt x="128" y="128" on="1"/>
        <pt x="128" y="64" on="1"/>
        <pt x="192" y="64" on="1"/>
      </contour>
    </TTGlyph>
    <TTGlyph name="Otilde" xMin="0" yMin="0" xMax="448" yMax="448">
      <contour>
        <pt x="320" y="0" on="1"/>
        <pt x="256" y="0" on="1"/>
        <pt x="192" y="0" on="1"/>
        <pt x="128" y="0" on="1"/>
        <pt x="64" y="0" on="1"/>
        <pt x="64" y="64" on="1"/>
        <pt x="0" y="64" on="1"/>
        <pt x="0" y="128" on="1"/>
        <pt x="0" y="192" on="1"/>
        <pt x="0" y="256" on="1"/>
        <pt x="64" y="256" on="1"/>
        <pt x="64" y="320" on="1"/>
        <pt x="64" y="384" on="1"/>
        <pt x="128" y="384" on="1"/>
        <pt x="128" y="448" on="1"/>
        <pt x="192" y="448" on="1"/>
        <pt x="256" y="448" on="1"/>
        <pt x="256" y="384" on="1"/>
        <pt x="320" y="384" on="1"/>
        <pt x="320" y="320" on="1"/>
        <pt x="384" y="320" on="1"/>
        <pt x="384" y="256" on="1"/>
        <pt x="448" y="256" on="1"/>
        <pt x="448" y="192" on="1"/>
        <pt x="448" y="128" on="1"/>
        <pt x="448" y="64" on="1"/>
        <pt x="384" y="64" on="1"/>
        <pt x="384" y="0" on="1"/>
      </contour>
      <contour>
        <pt x="256" y="64" on="1"/>
        <pt x="320" y="64" on="1"/>
        <pt x="320" y="128" on="1"/>
        <pt x="320" y="192" on="1"/>
        <pt x="320" y="256" on="1"/>
        <pt x="256" y="256" on="1"/>
        <pt x="192" y="256" on="1"/>
        <pt x="128" y="256" on="1"/>
        <pt x="128" y="192" on="1"/>
        <pt x="128" y="128" on="1"/>
        <pt x="128" y="64" on="1"/>
        <pt x="192" y="64" on="1"/>
      </contour>
      <contour>
        <pt x="192" y="320" on="1"/>
        <pt x="192" y="384" on="1"/>
        <pt x="128" y="384" on="1"/>
        <pt x="128" y="320" on="1"/>
      </contour>
      <contour>
        <pt x="320" y="384" on="1"/>
        <pt x="320" y="448" on="1"/>
        <pt x="384" y="448" on="1"/>
        <pt x="384" y="384" on="1"/>
      </contour>
    </TTGlyph>
    <TTGlyph name="P" xMin="0" yMin="0" xMax="448" yMax="448">
      <contour>
        <pt x="64" y="0" on="1"/>
        <pt x="0" y="0" on="1"/>
        <pt x="0" y="64" on="1"/>
        <pt x="0" y="128" on="1"/>
        <pt x="0" y="192" on="1"/>
        <pt x="0" y="256" on="1"/>
        <pt x="0" y="320" on="1"/>
        <pt x="0" y="384" on="1"/>
        <pt x="0" y="448" on="1"/>
        <pt x="64" y="448" on="1"/>
        <pt x="128" y="448" on="1"/>
        <pt x="192" y="448" on="1"/>
        <pt x="256" y="448" on="1"/>
        <pt x="320" y="448" on="1"/>
        <pt x="384" y="448" on="1"/>
        <pt x="384" y="384" on="1"/>
        <pt x="448" y="384" on="1"/>
        <pt x="448" y="320" on="1"/>
        <pt x="448" y="256" on="1"/>
        <pt x="448" y="192" on="1"/>
        <pt x="384" y="192" on="1"/>
        <pt x="384" y="128" on="1"/>
        <pt x="320" y="128" on="1"/>
        <pt x="256" y="128" on="1"/>
        <pt x="192" y="128" on="1"/>
        <pt x="128" y="128" on="1"/>
        <pt x="128" y="64" on="1"/>
        <pt x="128" y="0" on="1"/>
      </contour>
      <contour>
        <pt x="256" y="192" on="1"/>
        <pt x="320" y="192" on="1"/>
        <pt x="320" y="256" on="1"/>
        <pt x="320" y="320" on="1"/>
        <pt x="320" y="384" on="1"/>
        <pt x="256" y="384" on="1"/>
        <pt x="192" y="384" on="1"/>
        <pt x="128" y="384" on="1"/>
        <pt x="128" y="320" on="1"/>
        <pt x="128" y="256" on="1"/>
        <pt x="128" y="192" on="1"/>
        <pt x="192" y="192" on="1"/>
      </contour>
    </TTGlyph>
    <TTGlyph name="Q" xMin="0" yMin="0" xMax="448" yMax="448">
      <contour>
        <pt x="384" y="0" on="1"/>
        <pt x="384" y="64" on="1"/>
        <pt x="448" y="64" on="1"/>
        <pt x="448" y="0" on="1"/>
      </contour>
      <contour>
        <pt x="256" y="0" on="1"/>
        <pt x="192" y="0" on="1"/>
        <pt x="128" y="0" on="1"/>
        <pt x="64" y="0" on="1"/>
        <pt x="64" y="64" on="1"/>
        <pt x="0" y="64" on="1"/>
        <pt x="0" y="128" on="1"/>
        <pt x="0" y="192" on="1"/>
        <pt x="0" y="256" on="1"/>
        <pt x="0" y="320" on="1"/>
        <pt x="0" y="384" on="1"/>
        <pt x="64" y="384" on="1"/>
        <pt x="64" y="448" on="1"/>
        <pt x="128" y="448" on="1"/>
        <pt x="192" y="448" on="1"/>
        <pt x="256" y="448" on="1"/>
        <pt x="320" y="448" on="1"/>
        <pt x="384" y="448" on="1"/>
        <pt x="384" y="384" on="1"/>
        <pt x="448" y="384" on="1"/>
        <pt x="448" y="320" on="1"/>
        <pt x="448" y="256" on="1"/>
        <pt x="448" y="192" on="1"/>
        <pt x="448" y="128" on="1"/>
        <pt x="384" y="128" on="1"/>
        <pt x="384" y="64" on="1"/>
        <pt x="320" y="64" on="1"/>
        <pt x="320" y="0" on="1"/>
      </contour>
      <contour>
        <pt x="192" y="64" on="1"/>
        <pt x="256" y="64" on="1"/>
        <pt x="256" y="128" on="1"/>
        <pt x="192" y="128" on="1"/>
        <pt x="192" y="192" on="1"/>
        <pt x="256" y="192" on="1"/>
        <pt x="320" y="192" on="1"/>
        <pt x="320" y="256" on="1"/>
        <pt x="320" y="320" on="1"/>
        <pt x="320" y="384" on="1"/>
        <pt x="256" y="384" on="1"/>
        <pt x="192" y="384" on="1"/>
        <pt x="128" y="384" on="1"/>
        <pt x="128" y="320" on="1"/>
        <pt x="128" y="256" on="1"/>
        <pt x="128" y="192" on="1"/>
        <pt x="128" y="128" on="1"/>
        <pt x="128" y="64" on="1"/>
      </contour>
    </TTGlyph>
    <TTGlyph name="R" xMin="0" yMin="0" xMax="448" yMax="448">
      <contour>
        <pt x="384" y="0" on="1"/>
        <pt x="320" y="0" on="1"/>
        <pt x="256" y="0" on="1"/>
        <pt x="256" y="64" on="1"/>
        <pt x="192" y="64" on="1"/>
        <pt x="192" y="128" on="1"/>
        <pt x="128" y="128" on="1"/>
        <pt x="128" y="64" on="1"/>
        <pt x="128" y="0" on="1"/>
        <pt x="64" y="0" on="1"/>
        <pt x="0" y="0" on="1"/>
        <pt x="0" y="64" on="1"/>
        <pt x="0" y="128" on="1"/>
        <pt x="0" y="192" on="1"/>
        <pt x="0" y="256" on="1"/>
        <pt x="0" y="320" on="1"/>
        <pt x="0" y="384" on="1"/>
        <pt x="0" y="448" on="1"/>
        <pt x="64" y="448" on="1"/>
        <pt x="128" y="448" on="1"/>
        <pt x="192" y="448" on="1"/>
        <pt x="256" y="448" on="1"/>
        <pt x="320" y="448" on="1"/>
        <pt x="384" y="448" on="1"/>
        <pt x="384" y="384" on="1"/>
        <pt x="448" y="384" on="1"/>
        <pt x="448" y="320" on="1"/>
        <pt x="448" y="256" on="1"/>
        <pt x="448" y="192" on="1"/>
        <pt x="384" y="192" on="1"/>
        <pt x="320" y="192" on="1"/>
        <pt x="320" y="128" on="1"/>
        <pt x="384" y="128" on="1"/>
        <pt x="384" y="64" on="1"/>
        <pt x="448" y="64" on="1"/>
        <pt x="448" y="0" on="1"/>
      </contour>
      <contour>
        <pt x="192" y="192" on="1"/>
        <pt x="256" y="192" on="1"/>
        <pt x="256" y="256" on="1"/>
        <pt x="320" y="256" on="1"/>
        <pt x="320" y="320" on="1"/>
        <pt x="320" y="384" on="1"/>
        <pt x="256" y="384" on="1"/>
        <pt x="192" y="384" on="1"/>
        <pt x="128" y="384" on="1"/>
        <pt x="128" y="320" on="1"/>
        <pt x="128" y="256" on="1"/>
        <pt x="128" y="192" on="1"/>
      </contour>
    </TTGlyph>
    <TTGlyph name="S" xMin="0" yMin="0" xMax="448" yMax="448">
      <contour>
        <pt x="320" y="0" on="1"/>
        <pt x="256" y="0" on="1"/>
        <pt x="192" y="0" on="1"/>
        <pt x="128" y="0" on="1"/>
        <pt x="64" y="0" on="1"/>
        <pt x="64" y="64" on="1"/>
        <pt x="0" y="64" on="1"/>
        <pt x="0" y="128" on="1"/>
        <pt x="64" y="128" on="1"/>
        <pt x="128" y="128" on="1"/>
        <pt x="128" y="64" on="1"/>
        <pt x="192" y="64" on="1"/>
        <pt x="256" y="64" on="1"/>
        <pt x="320" y="64" on="1"/>
        <pt x="320" y="128" on="1"/>
        <pt x="320" y="192" on="1"/>
        <pt x="256" y="192" on="1"/>
        <pt x="192" y="192" on="1"/>
        <pt x="128" y="192" on="1"/>
        <pt x="64" y="192" on="1"/>
        <pt x="64" y="256" on="1"/>
        <pt x="0" y="256" on="1"/>
        <pt x="0" y="320" on="1"/>
        <pt x="0" y="384" on="1"/>
        <pt x="64" y="384" on="1"/>
        <pt x="64" y="448" on="1"/>
        <pt x="128" y="448" on="1"/>
        <pt x="192" y="448" on="1"/>
        <pt x="256" y="448" on="1"/>
        <pt x="320" y="448" on="1"/>
        <pt x="320" y="384" on="1"/>
        <pt x="384" y="384" on="1"/>
        <pt x="384" y="320" on="1"/>
        <pt x="320" y="320" on="1"/>
        <pt x="256" y="320" on="1"/>
        <pt x="256" y="384" on="1"/>
        <pt x="192" y="384" on="1"/>
        <pt x="128" y="384" on="1"/>
        <pt x="128" y="320" on="1"/>
        <pt x="128" y="256" on="1"/>
        <pt x="192" y="256" on="1"/>
        <pt x="256" y="256" on="1"/>
        <pt x="320" y="256" on="1"/>
        <pt x="384" y="256" on="1"/>
        <pt x="384" y="192" on="1"/>
        <pt x="448" y="192" on="1"/>
        <pt x="448" y="128" on="1"/>
        <pt x="448" y="64" on="1"/>
        <pt x="384" y="64" on="1"/>
        <pt x="384" y="0" on="1"/>
      </contour>
    </TTGlyph>
    <TTGlyph name="Scaron" xMin="0" yMin="0" xMax="448" yMax="448">
      <contour>
        <pt x="320" y="0" on="1"/>
        <pt x="256" y="0" on="1"/>
        <pt x="192" y="0" on="1"/>
        <pt x="128" y="0" on="1"/>
        <pt x="128" y="64" on="1"/>
        <pt x="64" y="64" on="1"/>
        <pt x="64" y="128" on="1"/>
        <pt x="0" y="128" on="1"/>
        <pt x="0" y="192" on="1"/>
        <pt x="0" y="256" on="1"/>
        <pt x="0" y="320" on="1"/>
        <pt x="64" y="320" on="1"/>
        <pt x="64" y="384" on="1"/>
        <pt x="128" y="384" on="1"/>
        <pt x="128" y="448" on="1"/>
        <pt x="192" y="448" on="1"/>
        <pt x="256" y="448" on="1"/>
        <pt x="320" y="448" on="1"/>
        <pt x="384" y="448" on="1"/>
        <pt x="384" y="384" on="1"/>
        <pt x="448" y="384" on="1"/>
        <pt x="448" y="320" on="1"/>
        <pt x="384" y="320" on="1"/>
        <pt x="320" y="320" on="1"/>
        <pt x="320" y="256" on="1"/>
        <pt x="256" y="256" on="1"/>
        <pt x="192" y="256" on="1"/>
        <pt x="192" y="192" on="1"/>
        <pt x="256" y="192" on="1"/>
        <pt x="320" y="192" on="1"/>
        <pt x="320" y="128" on="1"/>
        <pt x="384" y="128" on="1"/>
        <pt x="448" y="128" on="1"/>
        <pt x="448" y="64" on="1"/>
        <pt x="384" y="64" on="1"/>
        <pt x="384" y="0" on="1"/>
      </contour>
    </TTGlyph>
    <TTGlyph name="T" xMin="64" yMin="0" xMax="448" yMax="448">
      <contour>
        <pt x="256" y="0" on="1"/>
        <pt x="192" y="0" on="1"/>
        <pt x="192" y="64" on="1"/>
        <pt x="192" y="128" on="1"/>
        <pt x="192" y="192" on="1"/>
        <pt x="192" y="256" on="1"/>
        <pt x="192" y="320" on="1"/>
        <pt x="192" y="384" on="1"/>
        <pt x="128" y="384" on="1"/>
        <pt x="64" y="384" on="1"/>
        <pt x="64" y="448" on="1"/>
        <pt x="128" y="448" on="1"/>
        <pt x="192" y="448" on="1"/>
        <pt x="256" y="448" on="1"/>
        <pt x="320" y="448" on="1"/>
        <pt x="384" y="448" on="1"/>
        <pt x="448" y="448" on="1"/>
        <pt x="448" y="384" on="1"/>
        <pt x="384" y="384" on="1"/>
        <pt x="320" y="384" on="1"/>
        <pt x="320" y="320" on="1"/>
        <pt x="320" y="256" on="1"/>
        <pt x="320" y="192" on="1"/>
        <pt x="320" y="128" on="1"/>
        <pt x="320" y="64" on="1"/>
        <pt x="320" y="0" on="1"/>
      </contour>
    </TTGlyph>
    <TTGlyph name="Thorn" xMin="0" yMin="0" xMax="448" yMax="448">
      <contour>
        <pt x="64" y="0" on="1"/>
        <pt x="0" y="0" on="1"/>
        <pt x="0" y="64" on="1"/>
        <pt x="0" y="128" on="1"/>
        <pt x="0" y="192" on="1"/>
        <pt x="0" y="256" on="1"/>
        <pt x="0" y="320" on="1"/>
        <pt x="0" y="384" on="1"/>
        <pt x="0" y="448" on="1"/>
        <pt x="64" y="448" on="1"/>
        <pt x="128" y="448" on="1"/>
        <pt x="128" y="384" on="1"/>
        <pt x="192" y="384" on="1"/>
        <pt x="256" y="384" on="1"/>
        <pt x="320" y="384" on="1"/>
        <pt x="384" y="384" on="1"/>
        <pt x="384" y="320" on="1"/>
        <pt x="448" y="320" on="1"/>
        <pt x="448" y="256" on="1"/>
        <pt x="448" y="192" on="1"/>
        <pt x="448" y="128" on="1"/>
        <pt x="384" y="128" on="1"/>
        <pt x="384" y="64" on="1"/>
        <pt x="320" y="64" on="1"/>
        <pt x="256" y="64" on="1"/>
        <pt x="192" y="64" on="1"/>
        <pt x="128" y="64" on="1"/>
        <pt x="128" y="0" on="1"/>
      </contour>
      <contour>
        <pt x="256" y="128" on="1"/>
        <pt x="320" y="128" on="1"/>
        <pt x="320" y="192" on="1"/>
        <pt x="320" y="256" on="1"/>
        <pt x="320" y="320" on="1"/>
        <pt x="256" y="320" on="1"/>
        <pt x="192" y="320" on="1"/>
        <pt x="128" y="320" on="1"/>
        <pt x="128" y="256" on="1"/>
        <pt x="128" y="192" on="1"/>
        <pt x="128" y="128" on="1"/>
        <pt x="192" y="128" on="1"/>
      </contour>
    </TTGlyph>
    <TTGlyph name="U" xMin="0" yMin="0" xMax="448" yMax="448">
      <contour>
        <pt x="320" y="0" on="1"/>
        <pt x="256" y="0" on="1"/>
        <pt x="192" y="0" on="1"/>
        <pt x="128" y="0" on="1"/>
        <pt x="64" y="0" on="1"/>
        <pt x="64" y="64" on="1"/>
        <pt x="0" y="64" on="1"/>
        <pt x="0" y="128" on="1"/>
        <pt x="0" y="192" on="1"/>
        <pt x="0" y="256" on="1"/>
        <pt x="0" y="320" on="1"/>
        <pt x="0" y="384" on="1"/>
        <pt x="0" y="448" on="1"/>
        <pt x="64" y="448" on="1"/>
        <pt x="128" y="448" on="1"/>
        <pt x="128" y="384" on="1"/>
        <pt x="128" y="320" on="1"/>
        <pt x="128" y="256" on="1"/>
        <pt x="128" y="192" on="1"/>
        <pt x="128" y="128" on="1"/>
        <pt x="128" y="64" on="1"/>
        <pt x="192" y="64" on="1"/>
        <pt x="256" y="64" on="1"/>
        <pt x="320" y="64" on="1"/>
        <pt x="320" y="128" on="1"/>
        <pt x="320" y="192" on="1"/>
        <pt x="320" y="256" on="1"/>
        <pt x="320" y="320" on="1"/>
        <pt x="320" y="384" on="1"/>
        <pt x="320" y="448" on="1"/>
        <pt x="384" y="448" on="1"/>
        <pt x="448" y="448" on="1"/>
        <pt x="448" y="384" on="1"/>
        <pt x="448" y="320" on="1"/>
        <pt x="448" y="256" on="1"/>
        <pt x="448" y="192" on="1"/>
        <pt x="448" y="128" on="1"/>
        <pt x="448" y="64" on="1"/>
        <pt x="384" y="64" on="1"/>
        <pt x="384" y="0" on="1"/>
      </contour>
    </TTGlyph>
    <TTGlyph name="Uacute" xMin="0" yMin="0" xMax="448" yMax="448">
      <contour>
        <pt x="192" y="320" on="1"/>
        <pt x="192" y="384" on="1"/>
        <pt x="256" y="384" on="1"/>
        <pt x="256" y="320" on="1"/>
      </contour>
      <contour>
        <pt x="320" y="0" on="1"/>
        <pt x="256" y="0" on="1"/>
        <pt x="192" y="0" on="1"/>
        <pt x="128" y="0" on="1"/>
        <pt x="64" y="0" on="1"/>
        <pt x="64" y="64" on="1"/>
        <pt x="0" y="64" on="1"/>
        <pt x="0" y="128" on="1"/>
        <pt x="0" y="192" on="1"/>
        <pt x="0" y="256" on="1"/>
        <pt x="0" y="320" on="1"/>
        <pt x="64" y="320" on="1"/>
        <pt x="128" y="320" on="1"/>
        <pt x="128" y="256" on="1"/>
        <pt x="128" y="192" on="1"/>
        <pt x="128" y="128" on="1"/>
        <pt x="128" y="64" on="1"/>
        <pt x="192" y="64" on="1"/>
        <pt x="256" y="64" on="1"/>
        <pt x="320" y="64" on="1"/>
        <pt x="320" y="128" on="1"/>
        <pt x="320" y="192" on="1"/>
        <pt x="320" y="256" on="1"/>
        <pt x="320" y="320" on="1"/>
        <pt x="384" y="320" on="1"/>
        <pt x="448" y="320" on="1"/>
        <pt x="448" y="256" on="1"/>
        <pt x="448" y="192" on="1"/>
        <pt x="448" y="128" on="1"/>
        <pt x="448" y="64" on="1"/>
        <pt x="384" y="64" on="1"/>
        <pt x="384" y="0" on="1"/>
      </contour>
      <contour>
        <pt x="256" y="384" on="1"/>
        <pt x="256" y="448" on="1"/>
        <pt x="320" y="448" on="1"/>
        <pt x="320" y="384" on="1"/>
      </contour>
    </TTGlyph>
    <TTGlyph name="Ucircumflex" xMin="0" yMin="0" xMax="448" yMax="448">
      <contour>
        <pt x="320" y="320" on="1"/>
        <pt x="320" y="384" on="1"/>
        <pt x="384" y="384" on="1"/>
        <pt x="384" y="320" on="1"/>
      </contour>
      <contour>
        <pt x="64" y="320" on="1"/>
        <pt x="64" y="384" on="1"/>
        <pt x="128" y="384" on="1"/>
        <pt x="128" y="320" on="1"/>
      </contour>
      <contour>
        <pt x="320" y="0" on="1"/>
        <pt x="256" y="0" on="1"/>
        <pt x="192" y="0" on="1"/>
        <pt x="128" y="0" on="1"/>
        <pt x="64" y="0" on="1"/>
        <pt x="64" y="64" on="1"/>
        <pt x="0" y="64" on="1"/>
        <pt x="0" y="128" on="1"/>
        <pt x="0" y="192" on="1"/>
        <pt x="0" y="256" on="1"/>
        <pt x="64" y="256" on="1"/>
        <pt x="128" y="256" on="1"/>
        <pt x="128" y="192" on="1"/>
        <pt x="128" y="128" on="1"/>
        <pt x="128" y="64" on="1"/>
        <pt x="192" y="64" on="1"/>
        <pt x="256" y="64" on="1"/>
        <pt x="320" y="64" on="1"/>
        <pt x="320" y="128" on="1"/>
        <pt x="320" y="192" on="1"/>
        <pt x="320" y="256" on="1"/>
        <pt x="384" y="256" on="1"/>
        <pt x="448" y="256" on="1"/>
        <pt x="448" y="192" on="1"/>
        <pt x="448" y="128" on="1"/>
        <pt x="448" y="64" on="1"/>
        <pt x="384" y="64" on="1"/>
        <pt x="384" y="0" on="1"/>
      </contour>
      <contour>
        <pt x="320" y="384" on="1"/>
        <pt x="256" y="384" on="1"/>
        <pt x="192" y="384" on="1"/>
        <pt x="128" y="384" on="1"/>
        <pt x="128" y="448" on="1"/>
        <pt x="192" y="448" on="1"/>
        <pt x="256" y="448" on="1"/>
        <pt x="320" y="448" on="1"/>
      </contour>
    </TTGlyph>
    <TTGlyph name="Udieresis" xMin="0" yMin="0" xMax="448" yMax="448">
      <contour>
        <pt x="256" y="384" on="1"/>
        <pt x="256" y="448" on="1"/>
        <pt x="320" y="448" on="1"/>
        <pt x="320" y="384" on="1"/>
      </contour>
      <contour>
        <pt x="128" y="384" on="1"/>
        <pt x="128" y="448" on="1"/>
        <pt x="192" y="448" on="1"/>
        <pt x="192" y="384" on="1"/>
      </contour>
      <contour>
        <pt x="320" y="0" on="1"/>
        <pt x="256" y="0" on="1"/>
        <pt x="192" y="0" on="1"/>
        <pt x="128" y="0" on="1"/>
        <pt x="64" y="0" on="1"/>
        <pt x="64" y="64" on="1"/>
        <pt x="0" y="64" on="1"/>
        <pt x="0" y="128" on="1"/>
        <pt x="0" y="192" on="1"/>
        <pt x="0" y="256" on="1"/>
        <pt x="0" y="320" on="1"/>
        <pt x="64" y="320" on="1"/>
        <pt x="128" y="320" on="1"/>
        <pt x="128" y="256" on="1"/>
        <pt x="128" y="192" on="1"/>
        <pt x="128" y="128" on="1"/>
        <pt x="128" y="64" on="1"/>
        <pt x="192" y="64" on="1"/>
        <pt x="256" y="64" on="1"/>
        <pt x="320" y="64" on="1"/>
        <pt x="320" y="128" on="1"/>
        <pt x="320" y="192" on="1"/>
        <pt x="320" y="256" on="1"/>
        <pt x="320" y="320" on="1"/>
        <pt x="384" y="320" on="1"/>
        <pt x="448" y="320" on="1"/>
        <pt x="448" y="256" on="1"/>
        <pt x="448" y="192" on="1"/>
        <pt x="448" y="128" on="1"/>
        <pt x="448" y="64" on="1"/>
        <pt x="384" y="64" on="1"/>
        <pt x="384" y="0" on="1"/>
      </contour>
    </TTGlyph>
    <TTGlyph name="Ugrave" xMin="0" yMin="0" xMax="448" yMax="448">
      <contour>
        <pt x="192" y="320" on="1"/>
        <pt x="192" y="384" on="1"/>
        <pt x="256" y="384" on="1"/>
        <pt x="256" y="320" on="1"/>
      </contour>
      <contour>
        <pt x="320" y="0" on="1"/>
        <pt x="256" y="0" on="1"/>
        <pt x="192" y="0" on="1"/>
        <pt x="128" y="0" on="1"/>
        <pt x="64" y="0" on="1"/>
        <pt x="64" y="64" on="1"/>
        <pt x="0" y="64" on="1"/>
        <pt x="0" y="128" on="1"/>
        <pt x="0" y="192" on="1"/>
        <pt x="0" y="256" on="1"/>
        <pt x="0" y="320" on="1"/>
        <pt x="64" y="320" on="1"/>
        <pt x="128" y="320" on="1"/>
        <pt x="128" y="256" on="1"/>
        <pt x="128" y="192" on="1"/>
        <pt x="128" y="128" on="1"/>
        <pt x="128" y="64" on="1"/>
        <pt x="192" y="64" on="1"/>
        <pt x="256" y="64" on="1"/>
        <pt x="320" y="64" on="1"/>
        <pt x="320" y="128" on="1"/>
        <pt x="320" y="192" on="1"/>
        <pt x="320" y="256" on="1"/>
        <pt x="320" y="320" on="1"/>
        <pt x="384" y="320" on="1"/>
        <pt x="448" y="320" on="1"/>
        <pt x="448" y="256" on="1"/>
        <pt x="448" y="192" on="1"/>
        <pt x="448" y="128" on="1"/>
        <pt x="448" y="64" on="1"/>
        <pt x="384" y="64" on="1"/>
        <pt x="384" y="0" on="1"/>
      </contour>
      <contour>
        <pt x="192" y="384" on="1"/>
        <pt x="128" y="384" on="1"/>
        <pt x="128" y="448" on="1"/>
        <pt x="192" y="448" on="1"/>
      </contour>
    </TTGlyph>
    <TTGlyph name="V" xMin="0" yMin="0" xMax="448" yMax="448">
      <contour>
        <pt x="192" y="0" on="1"/>
        <pt x="192" y="64" on="1"/>
        <pt x="128" y="64" on="1"/>
        <pt x="128" y="128" on="1"/>
        <pt x="64" y="128" on="1"/>
        <pt x="64" y="192" on="1"/>
        <pt x="0" y="192" on="1"/>
        <pt x="0" y="256" on="1"/>
        <pt x="0" y="320" on="1"/>
        <pt x="0" y="384" on="1"/>
        <pt x="0" y="448" on="1"/>
        <pt x="64" y="448" on="1"/>
        <pt x="128" y="448" on="1"/>
        <pt x="128" y="384" on="1"/>
        <pt x="128" y="320" on="1"/>
        <pt x="128" y="256" on="1"/>
        <pt x="128" y="192" on="1"/>
        <pt x="192" y="192" on="1"/>
        <pt x="192" y="128" on="1"/>
        <pt x="256" y="128" on="1"/>
        <pt x="256" y="192" on="1"/>
        <pt x="320" y="192" on="1"/>
        <pt x="320" y="256" on="1"/>
        <pt x="320" y="320" on="1"/>
        <pt x="320" y="384" on="1"/>
        <pt x="320" y="448" on="1"/>
        <pt x="384" y="448" on="1"/>
        <pt x="448" y="448" on="1"/>
        <pt x="448" y="384" on="1"/>
        <pt x="448" y="320" on="1"/>
        <pt x="448" y="256" on="1"/>
        <pt x="448" y="192" on="1"/>
        <pt x="384" y="192" on="1"/>
        <pt x="384" y="128" on="1"/>
        <pt x="320" y="128" on="1"/>
        <pt x="320" y="64" on="1"/>
        <pt x="256" y="64" on="1"/>
        <pt x="256" y="0" on="1"/>
      </contour>
    </TTGlyph>
    <TTGlyph name="W" xMin="0" yMin="0" xMax="448" yMax="448">
      <contour>
        <pt x="320" y="0" on="1"/>
        <pt x="320" y="64" on="1"/>
        <pt x="256" y="64" on="1"/>
        <pt x="256" y="128" on="1"/>
        <pt x="192" y="128" on="1"/>
        <pt x="192" y="64" on="1"/>
        <pt x="128" y="64" on="1"/>
        <pt x="128" y="0" on="1"/>
        <pt x="64" y="0" on="1"/>
        <pt x="64" y="64" on="1"/>
        <pt x="64" y="128" on="1"/>
        <pt x="0" y="128" on="1"/>
        <pt x="0" y="192" on="1"/>
        <pt x="0" y="256" on="1"/>
        <pt x="0" y="320" on="1"/>
        <pt x="0" y="384" on="1"/>
        <pt x="0" y="448" on="1"/>
        <pt x="64" y="448" on="1"/>
        <pt x="128" y="448" on="1"/>
        <pt x="128" y="384" on="1"/>
        <pt x="128" y="320" on="1"/>
        <pt x="128" y="256" on="1"/>
        <pt x="192" y="256" on="1"/>
        <pt x="192" y="320" on="1"/>
        <pt x="256" y="320" on="1"/>
        <pt x="256" y="256" on="1"/>
        <pt x="320" y="256" on="1"/>
        <pt x="320" y="320" on="1"/>
        <pt x="320" y="384" on="1"/>
        <pt x="320" y="448" on="1"/>
        <pt x="384" y="448" on="1"/>
        <pt x="448" y="448" on="1"/>
        <pt x="448" y="384" on="1"/>
        <pt x="448" y="320" on="1"/>
        <pt x="448" y="256" on="1"/>
        <pt x="448" y="192" on="1"/>
        <pt x="448" y="128" on="1"/>
        <pt x="384" y="128" on="1"/>
        <pt x="384" y="64" on="1"/>
        <pt x="384" y="0" on="1"/>
      </contour>
    </TTGlyph>
    <TTGlyph name="X" xMin="0" yMin="0" xMax="448" yMax="448">
      <contour>
        <pt x="384" y="0" on="1"/>
        <pt x="320" y="0" on="1"/>
        <pt x="320" y="64" on="1"/>
        <pt x="256" y="64" on="1"/>
        <pt x="256" y="128" on="1"/>
        <pt x="192" y="128" on="1"/>
        <pt x="192" y="64" on="1"/>
        <pt x="128" y="64" on="1"/>
        <pt x="128" y="0" on="1"/>
        <pt x="64" y="0" on="1"/>
        <pt x="0" y="0" on="1"/>
        <pt x="0" y="64" on="1"/>
        <pt x="0" y="128" on="1"/>
        <pt x="64" y="128" on="1"/>
        <pt x="64" y="192" on="1"/>
        <pt x="128" y="192" on="1"/>
        <pt x="128" y="256" on="1"/>
        <pt x="64" y="256" on="1"/>
        <pt x="64" y="320" on="1"/>
        <pt x="0" y="320" on="1"/>
        <pt x="0" y="384" on="1"/>
        <pt x="0" y="448" on="1"/>
        <pt x="64" y="448" on="1"/>
        <pt x="128" y="448" on="1"/>
        <pt x="128" y="384" on="1"/>
        <pt x="192" y="384" on="1"/>
        <pt x="192" y="320" on="1"/>
        <pt x="256" y="320" on="1"/>
        <pt x="256" y="384" on="1"/>
        <pt x="320" y="384" on="1"/>
        <pt x="320" y="448" on="1"/>
        <pt x="384" y="448" on="1"/>
        <pt x="448" y="448" on="1"/>
        <pt x="448" y="384" on="1"/>
        <pt x="448" y="320" on="1"/>
        <pt x="384" y="320" on="1"/>
        <pt x="384" y="256" on="1"/>
        <pt x="320" y="256" on="1"/>
        <pt x="320" y="192" on="1"/>
        <pt x="384" y="192" on="1"/>
        <pt x="384" y="128" on="1"/>
        <pt x="448" y="128" on="1"/>
        <pt x="448" y="64" on="1"/>
        <pt x="448" y="0" on="1"/>
      </contour>
    </TTGlyph>
    <TTGlyph name="Y" xMin="64" yMin="0" xMax="448" yMax="448">
      <contour>
        <pt x="256" y="0" on="1"/>
        <pt x="192" y="0" on="1"/>
        <pt x="192" y="64" on="1"/>
        <pt x="192" y="128" on="1"/>
        <pt x="192" y="192" on="1"/>
        <pt x="128" y="192" on="1"/>
        <pt x="128" y="256" on="1"/>
        <pt x="64" y="256" on="1"/>
        <pt x="64" y="320" on="1"/>
        <pt x="64" y="384" on="1"/>
        <pt x="64" y="448" on="1"/>
        <pt x="128" y="448" on="1"/>
        <pt x="192" y="448" on="1"/>
        <pt x="192" y="384" on="1"/>
        <pt x="192" y="320" on="1"/>
        <pt x="192" y="256" on="1"/>
        <pt x="256" y="256" on="1"/>
        <pt x="320" y="256" on="1"/>
        <pt x="320" y="320" on="1"/>
        <pt x="320" y="384" on="1"/>
        <pt x="320" y="448" on="1"/>
        <pt x="384" y="448" on="1"/>
        <pt x="448" y="448" on="1"/>
        <pt x="448" y="384" on="1"/>
        <pt x="448" y="320" on="1"/>
        <pt x="448" y="256" on="1"/>
        <pt x="384" y="256" on="1"/>
        <pt x="384" y="192" on="1"/>
        <pt x="320" y="192" on="1"/>
        <pt x="320" y="128" on="1"/>
        <pt x="320" y="64" on="1"/>
        <pt x="320" y="0" on="1"/>
      </contour>
    </TTGlyph>
    <TTGlyph name="Yacute" xMin="64" yMin="0" xMax="448" yMax="448">
      <contour>
        <pt x="256" y="0" on="1"/>
        <pt x="192" y="0" on="1"/>
        <pt x="192" y="64" on="1"/>
        <pt x="192" y="128" on="1"/>
        <pt x="128" y="128" on="1"/>
        <pt x="128" y="192" on="1"/>
        <pt x="64" y="192" on="1"/>
        <pt x="64" y="256" on="1"/>
        <pt x="64" y="320" on="1"/>
        <pt x="128" y="320" on="1"/>
        <pt x="192" y="320" on="1"/>
        <pt x="192" y="256" on="1"/>
        <pt x="192" y="192" on="1"/>
        <pt x="256" y="192" on="1"/>
        <pt x="320" y="192" on="1"/>
        <pt x="320" y="256" on="1"/>
        <pt x="320" y="320" on="1"/>
        <pt x="384" y="320" on="1"/>
        <pt x="448" y="320" on="1"/>
        <pt x="448" y="256" on="1"/>
        <pt x="448" y="192" on="1"/>
        <pt x="384" y="192" on="1"/>
        <pt x="384" y="128" on="1"/>
        <pt x="320" y="128" on="1"/>
        <pt x="320" y="64" on="1"/>
        <pt x="320" y="0" on="1"/>
      </contour>
      <contour>
        <pt x="192" y="320" on="1"/>
        <pt x="192" y="384" on="1"/>
        <pt x="256" y="384" on="1"/>
        <pt x="256" y="320" on="1"/>
      </contour>
      <contour>
        <pt x="256" y="384" on="1"/>
        <pt x="256" y="448" on="1"/>
        <pt x="320" y="448" on="1"/>
        <pt x="320" y="384" on="1"/>
      </contour>
    </TTGlyph>
    <TTGlyph name="Ydieresis" xMin="64" yMin="0" xMax="448" yMax="448">
      <contour>
        <pt x="320" y="384" on="1"/>
        <pt x="320" y="448" on="1"/>
        <pt x="384" y="448" on="1"/>
        <pt x="384" y="384" on="1"/>
      </contour>
      <contour>
        <pt x="128" y="384" on="1"/>
        <pt x="128" y="448" on="1"/>
        <pt x="192" y="448" on="1"/>
        <pt x="192" y="384" on="1"/>
      </contour>
      <contour>
        <pt x="256" y="0" on="1"/>
        <pt x="192" y="0" on="1"/>
        <pt x="192" y="64" on="1"/>
        <pt x="192" y="128" on="1"/>
        <pt x="128" y="128" on="1"/>
        <pt x="128" y="192" on="1"/>
        <pt x="64" y="192" on="1"/>
        <pt x="64" y="256" on="1"/>
        <pt x="64" y="320" on="1"/>
        <pt x="128" y="320" on="1"/>
        <pt x="192" y="320" on="1"/>
        <pt x="192" y="256" on="1"/>
        <pt x="192" y="192" on="1"/>
        <pt x="256" y="192" on="1"/>
        <pt x="320" y="192" on="1"/>
        <pt x="320" y="256" on="1"/>
        <pt x="320" y="320" on="1"/>
        <pt x="384" y="320" on="1"/>
        <pt x="448" y="320" on="1"/>
        <pt x="448" y="256" on="1"/>
        <pt x="448" y="192" on="1"/>
        <pt x="384" y="192" on="1"/>
        <pt x="384" y="128" on="1"/>
        <pt x="320" y="128" on="1"/>
        <pt x="320" y="64" on="1"/>
        <pt x="320" y="0" on="1"/>
      </contour>
    </TTGlyph>
    <TTGlyph name="Z" xMin="0" yMin="0" xMax="448" yMax="448">
      <contour>
        <pt x="384" y="64" on="1"/>
        <pt x="448" y="64" on="1"/>
        <pt x="448" y="0" on="1"/>
        <pt x="384" y="0" on="1"/>
        <pt x="320" y="0" on="1"/>
        <pt x="256" y="0" on="1"/>
        <pt x="192" y="0" on="1"/>
        <pt x="128" y="0" on="1"/>
        <pt x="64" y="0" on="1"/>
        <pt x="0" y="0" on="1"/>
        <pt x="0" y="64" on="1"/>
        <pt x="0" y="128" on="1"/>
        <pt x="64" y="128" on="1"/>
        <pt x="64" y="192" on="1"/>
        <pt x="128" y="192" on="1"/>
        <pt x="128" y="256" on="1"/>
        <pt x="192" y="256" on="1"/>
        <pt x="192" y="320" on="1"/>
        <pt x="256" y="320" on="1"/>
        <pt x="256" y="384" on="1"/>
        <pt x="192" y="384" on="1"/>
        <pt x="128" y="384" on="1"/>
        <pt x="64" y="384" on="1"/>
        <pt x="0" y="384" on="1"/>
        <pt x="0" y="448" on="1"/>
        <pt x="64" y="448" on="1"/>
        <pt x="128" y="448" on="1"/>
        <pt x="192" y="448" on="1"/>
        <pt x="256" y="448" on="1"/>
        <pt x="320" y="448" on="1"/>
        <pt x="384" y="448" on="1"/>
        <pt x="448" y="448" on="1"/>
        <pt x="448" y="384" on="1"/>
        <pt x="448" y="320" on="1"/>
        <pt x="384" y="320" on="1"/>
        <pt x="384" y="256" on="1"/>
        <pt x="320" y="256" on="1"/>
        <pt x="320" y="192" on="1"/>
        <pt x="256" y="192" on="1"/>
        <pt x="256" y="128" on="1"/>
        <pt x="192" y="128" on="1"/>
        <pt x="192" y="64" on="1"/>
        <pt x="256" y="64" on="1"/>
        <pt x="320" y="64" on="1"/>
      </contour>
    </TTGlyph>
    <TTGlyph name="a" xMin="0" yMin="0" xMax="448" yMax="320">
      <contour>
        <pt x="384" y="0" on="1"/>
        <pt x="320" y="0" on="1"/>
        <pt x="256" y="0" on="1"/>
        <pt x="192" y="0" on="1"/>
        <pt x="128" y="0" on="1"/>
        <pt x="64" y="0" on="1"/>
        <pt x="64" y="64" on="1"/>
        <pt x="0" y="64" on="1"/>
        <pt x="0" y="128" on="1"/>
        <pt x="0" y="192" on="1"/>
        <pt x="0" y="256" on="1"/>
        <pt x="64" y="256" on="1"/>
        <pt x="64" y="320" on="1"/>
        <pt x="128" y="320" on="1"/>
        <pt x="192" y="320" on="1"/>
        <pt x="256" y="320" on="1"/>
        <pt x="320" y="320" on="1"/>
        <pt x="384" y="320" on="1"/>
        <pt x="448" y="320" on="1"/>
        <pt x="448" y="256" on="1"/>
        <pt x="448" y="192" on="1"/>
        <pt x="448" y="128" on="1"/>
        <pt x="448" y="64" on="1"/>
        <pt x="448" y="0" on="1"/>
      </contour>
      <contour>
        <pt x="256" y="64" on="1"/>
        <pt x="320" y="64" on="1"/>
        <pt x="320" y="128" on="1"/>
        <pt x="320" y="192" on="1"/>
        <pt x="320" y="256" on="1"/>
        <pt x="256" y="256" on="1"/>
        <pt x="192" y="256" on="1"/>
        <pt x="128" y="256" on="1"/>
        <pt x="128" y="192" on="1"/>
        <pt x="128" y="128" on="1"/>
        <pt x="128" y="64" on="1"/>
        <pt x="192" y="64" on="1"/>
      </contour>
    </TTGlyph>
    <TTGlyph name="aacute" xMin="64" yMin="0" xMax="448" yMax="448">
      <contour>
        <pt x="384" y="0" on="1"/>
        <pt x="320" y="0" on="1"/>
        <pt x="320" y="64" on="1"/>
        <pt x="256" y="64" on="1"/>
        <pt x="256" y="128" on="1"/>
        <pt x="256" y="192" on="1"/>
        <pt x="256" y="256" on="1"/>
        <pt x="192" y="256" on="1"/>
        <pt x="192" y="192" on="1"/>
        <pt x="192" y="128" on="1"/>
        <pt x="192" y="64" on="1"/>
        <pt x="256" y="64" on="1"/>
        <pt x="256" y="0" on="1"/>
        <pt x="192" y="0" on="1"/>
        <pt x="128" y="0" on="1"/>
        <pt x="128" y="64" on="1"/>
        <pt x="64" y="64" on="1"/>
        <pt x="64" y="128" on="1"/>
        <pt x="64" y="192" on="1"/>
        <pt x="64" y="256" on="1"/>
        <pt x="128" y="256" on="1"/>
        <pt x="128" y="320" on="1"/>
        <pt x="192" y="320" on="1"/>
        <pt x="192" y="384" on="1"/>
        <pt x="256" y="384" on="1"/>
        <pt x="256" y="320" on="1"/>
        <pt x="320" y="320" on="1"/>
        <pt x="384" y="320" on="1"/>
        <pt x="384" y="256" on="1"/>
        <pt x="384" y="192" on="1"/>
        <pt x="384" y="128" on="1"/>
        <pt x="384" y="64" on="1"/>
        <pt x="448" y="64" on="1"/>
        <pt x="448" y="0" on="1"/>
      </contour>
      <contour>
        <pt x="256" y="384" on="1"/>
        <pt x="256" y="448" on="1"/>
        <pt x="320" y="448" on="1"/>
        <pt x="320" y="384" on="1"/>
      </contour>
    </TTGlyph>
    <TTGlyph name="acircumflex" xMin="64" yMin="0" xMax="448" yMax="448">
      <contour>
        <pt x="384" y="0" on="1"/>
        <pt x="320" y="0" on="1"/>
        <pt x="320" y="64" on="1"/>
        <pt x="256" y="64" on="1"/>
        <pt x="256" y="128" on="1"/>
        <pt x="256" y="192" on="1"/>
        <pt x="256" y="256" on="1"/>
        <pt x="192" y="256" on="1"/>
        <pt x="192" y="192" on="1"/>
        <pt x="192" y="128" on="1"/>
        <pt x="192" y="64" on="1"/>
        <pt x="256" y="64" on="1"/>
        <pt x="256" y="0" on="1"/>
        <pt x="192" y="0" on="1"/>
        <pt x="128" y="0" on="1"/>
        <pt x="128" y="64" on="1"/>
        <pt x="64" y="64" on="1"/>
        <pt x="64" y="128" on="1"/>
        <pt x="64" y="192" on="1"/>
        <pt x="64" y="256" on="1"/>
        <pt x="128" y="256" on="1"/>
        <pt x="128" y="320" on="1"/>
        <pt x="192" y="320" on="1"/>
        <pt x="256" y="320" on="1"/>
        <pt x="320" y="320" on="1"/>
        <pt x="320" y="384" on="1"/>
        <pt x="384" y="384" on="1"/>
        <pt x="384" y="320" on="1"/>
        <pt x="384" y="256" on="1"/>
        <pt x="384" y="192" on="1"/>
        <pt x="384" y="128" on="1"/>
        <pt x="384" y="64" on="1"/>
        <pt x="448" y="64" on="1"/>
        <pt x="448" y="0" on="1"/>
      </contour>
      <contour>
        <pt x="128" y="320" on="1"/>
        <pt x="64" y="320" on="1"/>
        <pt x="64" y="384" on="1"/>
        <pt x="128" y="384" on="1"/>
      </contour>
      <contour>
        <pt x="320" y="384" on="1"/>
        <pt x="256" y="384" on="1"/>
        <pt x="192" y="384" on="1"/>
        <pt x="128" y="384" on="1"/>
        <pt x="128" y="448" on="1"/>
        <pt x="192" y="448" on="1"/>
        <pt x="256" y="448" on="1"/>
        <pt x="320" y="448" on="1"/>
      </contour>
    </TTGlyph>
    <TTGlyph name="adieresis" xMin="64" yMin="0" xMax="448" yMax="448">
      <contour>
        <pt x="256" y="384" on="1"/>
        <pt x="256" y="448" on="1"/>
        <pt x="320" y="448" on="1"/>
        <pt x="320" y="384" on="1"/>
      </contour>
      <contour>
        <pt x="128" y="384" on="1"/>
        <pt x="128" y="448" on="1"/>
        <pt x="192" y="448" on="1"/>
        <pt x="192" y="384" on="1"/>
      </contour>
      <contour>
        <pt x="384" y="0" on="1"/>
        <pt x="320" y="0" on="1"/>
        <pt x="320" y="64" on="1"/>
        <pt x="256" y="64" on="1"/>
        <pt x="256" y="128" on="1"/>
        <pt x="256" y="192" on="1"/>
        <pt x="256" y="256" on="1"/>
        <pt x="192" y="256" on="1"/>
        <pt x="192" y="192" on="1"/>
        <pt x="192" y="128" on="1"/>
        <pt x="192" y="64" on="1"/>
        <pt x="256" y="64" on="1"/>
        <pt x="256" y="0" on="1"/>
        <pt x="192" y="0" on="1"/>
        <pt x="128" y="0" on="1"/>
        <pt x="128" y="64" on="1"/>
        <pt x="64" y="64" on="1"/>
        <pt x="64" y="128" on="1"/>
        <pt x="64" y="192" on="1"/>
        <pt x="64" y="256" on="1"/>
        <pt x="128" y="256" on="1"/>
        <pt x="128" y="320" on="1"/>
        <pt x="192" y="320" on="1"/>
        <pt x="256" y="320" on="1"/>
        <pt x="320" y="320" on="1"/>
        <pt x="384" y="320" on="1"/>
        <pt x="384" y="256" on="1"/>
        <pt x="384" y="192" on="1"/>
        <pt x="384" y="128" on="1"/>
        <pt x="384" y="64" on="1"/>
        <pt x="448" y="64" on="1"/>
        <pt x="448" y="0" on="1"/>
      </contour>
    </TTGlyph>
    <TTGlyph name="ae" xMin="0" yMin="0" xMax="448" yMax="320">
      <contour>
        <pt x="384" y="64" on="1"/>
        <pt x="448" y="64" on="1"/>
        <pt x="448" y="0" on="1"/>
        <pt x="384" y="0" on="1"/>
        <pt x="320" y="0" on="1"/>
        <pt x="256" y="0" on="1"/>
        <pt x="192" y="0" on="1"/>
        <pt x="128" y="0" on="1"/>
        <pt x="64" y="0" on="1"/>
        <pt x="64" y="64" on="1"/>
        <pt x="0" y="64" on="1"/>
        <pt x="0" y="128" on="1"/>
        <pt x="64" y="128" on="1"/>
        <pt x="64" y="192" on="1"/>
        <pt x="128" y="192" on="1"/>
        <pt x="192" y="192" on="1"/>
        <pt x="192" y="256" on="1"/>
        <pt x="128" y="256" on="1"/>
        <pt x="64" y="256" on="1"/>
        <pt x="64" y="320" on="1"/>
        <pt x="128" y="320" on="1"/>
        <pt x="192" y="320" on="1"/>
        <pt x="256" y="320" on="1"/>
        <pt x="320" y="320" on="1"/>
        <pt x="384" y="320" on="1"/>
        <pt x="384" y="256" on="1"/>
        <pt x="320" y="256" on="1"/>
        <pt x="320" y="192" on="1"/>
        <pt x="384" y="192" on="1"/>
        <pt x="384" y="256" on="1"/>
        <pt x="448" y="256" on="1"/>
        <pt x="448" y="192" on="1"/>
        <pt x="448" y="128" on="1"/>
        <pt x="384" y="128" on="1"/>
        <pt x="320" y="128" on="1"/>
        <pt x="320" y="64" on="1"/>
      </contour>
      <contour>
        <pt x="192" y="64" on="1"/>
        <pt x="192" y="128" on="1"/>
        <pt x="128" y="128" on="1"/>
        <pt x="128" y="64" on="1"/>
      </contour>
    </TTGlyph>
    <TTGlyph name="agrave" xMin="64" yMin="0" xMax="448" yMax="448">
      <contour>
        <pt x="384" y="0" on="1"/>
        <pt x="320" y="0" on="1"/>
        <pt x="320" y="64" on="1"/>
        <pt x="256" y="64" on="1"/>
        <pt x="256" y="128" on="1"/>
        <pt x="256" y="192" on="1"/>
        <pt x="256" y="256" on="1"/>
        <pt x="192" y="256" on="1"/>
        <pt x="192" y="192" on="1"/>
        <pt x="192" y="128" on="1"/>
        <pt x="192" y="64" on="1"/>
        <pt x="256" y="64" on="1"/>
        <pt x="256" y="0" on="1"/>
        <pt x="192" y="0" on="1"/>
        <pt x="128" y="0" on="1"/>
        <pt x="128" y="64" on="1"/>
        <pt x="64" y="64" on="1"/>
        <pt x="64" y="128" on="1"/>
        <pt x="64" y="192" on="1"/>
        <pt x="64" y="256" on="1"/>
        <pt x="128" y="256" on="1"/>
        <pt x="128" y="320" on="1"/>
        <pt x="192" y="320" on="1"/>
        <pt x="192" y="384" on="1"/>
        <pt x="256" y="384" on="1"/>
        <pt x="256" y="320" on="1"/>
        <pt x="320" y="320" on="1"/>
        <pt x="384" y="320" on="1"/>
        <pt x="384" y="256" on="1"/>
        <pt x="384" y="192" on="1"/>
        <pt x="384" y="128" on="1"/>
        <pt x="384" y="64" on="1"/>
        <pt x="448" y="64" on="1"/>
        <pt x="448" y="0" on="1"/>
      </contour>
      <contour>
        <pt x="192" y="384" on="1"/>
        <pt x="128" y="384" on="1"/>
        <pt x="128" y="448" on="1"/>
        <pt x="192" y="448" on="1"/>
      </contour>
    </TTGlyph>
    <TTGlyph name="ampersand" xMin="0" yMin="0" xMax="448" yMax="448">
      <contour>
        <pt x="384" y="0" on="1"/>
        <pt x="320" y="0" on="1"/>
        <pt x="320" y="64" on="1"/>
        <pt x="256" y="64" on="1"/>
        <pt x="256" y="128" on="1"/>
        <pt x="192" y="128" on="1"/>
        <pt x="192" y="192" on="1"/>
        <pt x="128" y="192" on="1"/>
        <pt x="128" y="128" on="1"/>
        <pt x="128" y="64" on="1"/>
        <pt x="192" y="64" on="1"/>
        <pt x="256" y="64" on="1"/>
        <pt x="256" y="0" on="1"/>
        <pt x="192" y="0" on="1"/>
        <pt x="128" y="0" on="1"/>
        <pt x="64" y="0" on="1"/>
        <pt x="64" y="64" on="1"/>
        <pt x="0" y="64" on="1"/>
        <pt x="0" y="128" on="1"/>
        <pt x="0" y="192" on="1"/>
        <pt x="64" y="192" on="1"/>
        <pt x="64" y="256" on="1"/>
        <pt x="128" y="256" on="1"/>
        <pt x="128" y="320" on="1"/>
        <pt x="64" y="320" on="1"/>
        <pt x="64" y="384" on="1"/>
        <pt x="128" y="384" on="1"/>
        <pt x="128" y="448" on="1"/>
        <pt x="192" y="448" on="1"/>
        <pt x="256" y="448" on="1"/>
        <pt x="320" y="448" on="1"/>
        <pt x="320" y="384" on="1"/>
        <pt x="384" y="384" on="1"/>
        <pt x="384" y="320" on="1"/>
        <pt x="320" y="320" on="1"/>
        <pt x="320" y="256" on="1"/>
        <pt x="256" y="256" on="1"/>
        <pt x="256" y="192" on="1"/>
        <pt x="320" y="192" on="1"/>
        <pt x="320" y="256" on="1"/>
        <pt x="384" y="256" on="1"/>
        <pt x="448" y="256" on="1"/>
        <pt x="448" y="192" on="1"/>
        <pt x="384" y="192" on="1"/>
        <pt x="384" y="128" on="1"/>
        <pt x="384" y="64" on="1"/>
        <pt x="448" y="64" on="1"/>
        <pt x="448" y="0" on="1"/>
      </contour>
      <contour>
        <pt x="256" y="320" on="1"/>
        <pt x="256" y="384" on="1"/>
        <pt x="192" y="384" on="1"/>
        <pt x="192" y="320" on="1"/>
      </contour>
    </TTGlyph>
    <TTGlyph name="aring" xMin="64" yMin="0" xMax="448" yMax="448">
      <contour>
        <pt x="384" y="0" on="1"/>
        <pt x="320" y="0" on="1"/>
        <pt x="320" y="64" on="1"/>
        <pt x="256" y="64" on="1"/>
        <pt x="256" y="128" on="1"/>
        <pt x="256" y="192" on="1"/>
        <pt x="192" y="192" on="1"/>
        <pt x="192" y="128" on="1"/>
        <pt x="192" y="64" on="1"/>
        <pt x="256" y="64" on="1"/>
        <pt x="256" y="0" on="1"/>
        <pt x="192" y="0" on="1"/>
        <pt x="128" y="0" on="1"/>
        <pt x="128" y="64" on="1"/>
        <pt x="64" y="64" on="1"/>
        <pt x="64" y="128" on="1"/>
        <pt x="64" y="192" on="1"/>
        <pt x="128" y="192" on="1"/>
        <pt x="128" y="256" on="1"/>
        <pt x="192" y="256" on="1"/>
        <pt x="192" y="320" on="1"/>
        <pt x="256" y="320" on="1"/>
        <pt x="256" y="256" on="1"/>
        <pt x="320" y="256" on="1"/>
        <pt x="384" y="256" on="1"/>
        <pt x="384" y="192" on="1"/>
        <pt x="384" y="128" on="1"/>
        <pt x="384" y="64" on="1"/>
        <pt x="448" y="64" on="1"/>
        <pt x="448" y="0" on="1"/>
      </contour>
      <contour>
        <pt x="256" y="320" on="1"/>
        <pt x="256" y="384" on="1"/>
        <pt x="320" y="384" on="1"/>
        <pt x="320" y="320" on="1"/>
      </contour>
      <contour>
        <pt x="192" y="320" on="1"/>
        <pt x="128" y="320" on="1"/>
        <pt x="128" y="384" on="1"/>
        <pt x="192" y="384" on="1"/>
      </contour>
      <contour>
        <pt x="256" y="384" on="1"/>
        <pt x="192" y="384" on="1"/>
        <pt x="192" y="448" on="1"/>
        <pt x="256" y="448" on="1"/>
      </contour>
    </TTGlyph>
    <TTGlyph name="asciicircum" xMin="0" yMin="192" xMax="448" yMax="448">
      <contour>
        <pt x="384" y="192" on="1"/>
        <pt x="384" y="256" on="1"/>
        <pt x="448" y="256" on="1"/>
        <pt x="448" y="192" on="1"/>
      </contour>
      <contour>
        <pt x="0" y="192" on="1"/>
        <pt x="0" y="256" on="1"/>
        <pt x="64" y="256" on="1"/>
        <pt x="64" y="192" on="1"/>
      </contour>
      <contour>
        <pt x="384" y="256" on="1"/>
        <pt x="320" y="256" on="1"/>
        <pt x="320" y="320" on="1"/>
        <pt x="384" y="320" on="1"/>
      </contour>
      <contour>
        <pt x="64" y="256" on="1"/>
        <pt x="64" y="320" on="1"/>
        <pt x="128" y="320" on="1"/>
        <pt x="128" y="256" on="1"/>
      </contour>
      <contour>
        <pt x="320" y="320" on="1"/>
        <pt x="256" y="320" on="1"/>
        <pt x="256" y="384" on="1"/>
        <pt x="320" y="384" on="1"/>
      </contour>
      <contour>
        <pt x="128" y="320" on="1"/>
        <pt x="128" y="384" on="1"/>
        <pt x="192" y="384" on="1"/>
        <pt x="192" y="320" on="1"/>
      </contour>
      <contour>
        <pt x="256" y="384" on="1"/>
        <pt x="192" y="384" on="1"/>
        <pt x="192" y="448" on="1"/>
        <pt x="256" y="448" on="1"/>
      </contour>
    </TTGlyph>
    <TTGlyph name="asciitilde" xMin="0" yMin="64" xMax="448" yMax="320">
      <contour>
        <pt x="0" y="128" on="1"/>
        <pt x="0" y="192" on="1"/>
        <pt x="0" y="256" on="1"/>
        <pt x="64" y="256" on="1"/>
        <pt x="64" y="320" on="1"/>
        <pt x="128" y="320" on="1"/>
        <pt x="192" y="320" on="1"/>
        <pt x="192" y="256" on="1"/>
        <pt x="256" y="256" on="1"/>
        <pt x="256" y="192" on="1"/>
        <pt x="320" y="192" on="1"/>
        <pt x="384" y="192" on="1"/>
        <pt x="384" y="256" on="1"/>
        <pt x="448" y="256" on="1"/>
        <pt x="448" y="192" on="1"/>
        <pt x="448" y="128" on="1"/>
        <pt x="384" y="128" on="1"/>
        <pt x="384" y="64" on="1"/>
        <pt x="320" y="64" on="1"/>
        <pt x="256" y="64" on="1"/>
        <pt x="256" y="128" on="1"/>
        <pt x="192" y="128" on="1"/>
        <pt x="192" y="192" on="1"/>
        <pt x="128" y="192" on="1"/>
        <pt x="64" y="192" on="1"/>
        <pt x="64" y="128" on="1"/>
      </contour>
    </TTGlyph>
    <TTGlyph name="asterisk" xMin="0" yMin="64" xMax="448" yMax="384">
      <contour>
        <pt x="320" y="64" on="1"/>
        <pt x="256" y="64" on="1"/>
        <pt x="256" y="128" on="1"/>
        <pt x="192" y="128" on="1"/>
        <pt x="192" y="64" on="1"/>
        <pt x="128" y="64" on="1"/>
        <pt x="64" y="64" on="1"/>
        <pt x="64" y="128" on="1"/>
        <pt x="128" y="128" on="1"/>
        <pt x="128" y="192" on="1"/>
        <pt x="64" y="192" on="1"/>
        <pt x="0" y="192" on="1"/>
        <pt x="0" y="256" on="1"/>
        <pt x="64" y="256" on="1"/>
        <pt x="128" y="256" on="1"/>
        <pt x="128" y="320" on="1"/>
        <pt x="64" y="320" on="1"/>
        <pt x="64" y="384" on="1"/>
        <pt x="128" y="384" on="1"/>
        <pt x="192" y="384" on="1"/>
        <pt x="192" y="320" on="1"/>
        <pt x="256" y="320" on="1"/>
        <pt x="256" y="384" on="1"/>
        <pt x="320" y="384" on="1"/>
        <pt x="384" y="384" on="1"/>
        <pt x="384" y="320" on="1"/>
        <pt x="320" y="320" on="1"/>
        <pt x="320" y="256" on="1"/>
        <pt x="384" y="256" on="1"/>
        <pt x="448" y="256" on="1"/>
        <pt x="448" y="192" on="1"/>
        <pt x="384" y="192" on="1"/>
        <pt x="320" y="192" on="1"/>
        <pt x="320" y="128" on="1"/>
        <pt x="384" y="128" on="1"/>
        <pt x="384" y="64" on="1"/>
      </contour>
    </TTGlyph>
    <TTGlyph name="at" xMin="0" yMin="0" xMax="448" yMax="448">
      <contour>
        <pt x="384" y="64" on="1"/>
        <pt x="448" y="64" on="1"/>
        <pt x="448" y="0" on="1"/>
        <pt x="384" y="0" on="1"/>
        <pt x="320" y="0" on="1"/>
        <pt x="256" y="0" on="1"/>
        <pt x="192" y="0" on="1"/>
        <pt x="128" y="0" on="1"/>
        <pt x="64" y="0" on="1"/>
        <pt x="64" y="64" on="1"/>
        <pt x="0" y="64" on="1"/>
        <pt x="0" y="128" on="1"/>
        <pt x="0" y="192" on="1"/>
        <pt x="0" y="256" on="1"/>
        <pt x="0" y="320" on="1"/>
        <pt x="0" y="384" on="1"/>
        <pt x="64" y="384" on="1"/>
        <pt x="64" y="448" on="1"/>
        <pt x="128" y="448" on="1"/>
        <pt x="192" y="448" on="1"/>
        <pt x="256" y="448" on="1"/>
        <pt x="320" y="448" on="1"/>
        <pt x="384" y="448" on="1"/>
        <pt x="384" y="384" on="1"/>
        <pt x="448" y="384" on="1"/>
        <pt x="448" y="320" on="1"/>
        <pt x="448" y="256" on="1"/>
        <pt x="448" y="192" on="1"/>
        <pt x="448" y="128" on="1"/>
        <pt x="384" y="128" on="1"/>
        <pt x="320" y="128" on="1"/>
        <pt x="256" y="128" on="1"/>
        <pt x="256" y="192" on="1"/>
        <pt x="192" y="192" on="1"/>
        <pt x="192" y="256" on="1"/>
        <pt x="192" y="320" on="1"/>
        <pt x="256" y="320" on="1"/>
        <pt x="256" y="384" on="1"/>
        <pt x="192" y="384" on="1"/>
        <pt x="128" y="384" on="1"/>
        <pt x="128" y="320" on="1"/>
        <pt x="128" y="256" on="1"/>
        <pt x="128" y="192" on="1"/>
        <pt x="128" y="128" on="1"/>
        <pt x="128" y="64" on="1"/>
        <pt x="192" y="64" on="1"/>
        <pt x="256" y="64" on="1"/>
        <pt x="320" y="64" on="1"/>
      </contour>
      <contour>
        <pt x="320" y="192" on="1"/>
        <pt x="384" y="192" on="1"/>
        <pt x="384" y="256" on="1"/>
        <pt x="384" y="320" on="1"/>
        <pt x="320" y="320" on="1"/>
        <pt x="256" y="320" on="1"/>
        <pt x="256" y="256" on="1"/>
        <pt x="256" y="192" on="1"/>
      </contour>
    </TTGlyph>
    <TTGlyph name="atilde" xMin="64" yMin="0" xMax="448" yMax="448">
      <contour>
        <pt x="384" y="0" on="1"/>
        <pt x="320" y="0" on="1"/>
        <pt x="320" y="64" on="1"/>
        <pt x="256" y="64" on="1"/>
        <pt x="256" y="128" on="1"/>
        <pt x="256" y="192" on="1"/>
        <pt x="256" y="256" on="1"/>
        <pt x="192" y="256" on="1"/>
        <pt x="192" y="192" on="1"/>
        <pt x="192" y="128" on="1"/>
        <pt x="192" y="64" on="1"/>
        <pt x="256" y="64" on="1"/>
        <pt x="256" y="0" on="1"/>
        <pt x="192" y="0" on="1"/>
        <pt x="128" y="0" on="1"/>
        <pt x="128" y="64" on="1"/>
        <pt x="64" y="64" on="1"/>
        <pt x="64" y="128" on="1"/>
        <pt x="64" y="192" on="1"/>
        <pt x="64" y="256" on="1"/>
        <pt x="128" y="256" on="1"/>
        <pt x="128" y="320" on="1"/>
        <pt x="64" y="320" on="1"/>
        <pt x="64" y="384" on="1"/>
        <pt x="128" y="384" on="1"/>
        <pt x="128" y="448" on="1"/>
        <pt x="192" y="448" on="1"/>
        <pt x="256" y="448" on="1"/>
        <pt x="256" y="384" on="1"/>
        <pt x="320" y="384" on="1"/>
        <pt x="320" y="320" on="1"/>
        <pt x="384" y="320" on="1"/>
        <pt x="384" y="256" on="1"/>
        <pt x="384" y="192" on="1"/>
        <pt x="384" y="128" on="1"/>
        <pt x="384" y="64" on="1"/>
        <pt x="448" y="64" on="1"/>
        <pt x="448" y="0" on="1"/>
      </contour>
      <contour>
        <pt x="192" y="320" on="1"/>
        <pt x="192" y="384" on="1"/>
        <pt x="128" y="384" on="1"/>
        <pt x="128" y="320" on="1"/>
      </contour>
      <contour>
        <pt x="320" y="384" on="1"/>
        <pt x="320" y="448" on="1"/>
        <pt x="384" y="448" on="1"/>
        <pt x="384" y="384" on="1"/>
      </contour>
    </TTGlyph>
    <TTGlyph name="b" xMin="0" yMin="0" xMax="448" yMax="448">
      <contour>
        <pt x="320" y="0" on="1"/>
        <pt x="256" y="0" on="1"/>
        <pt x="192" y="0" on="1"/>
        <pt x="128" y="0" on="1"/>
        <pt x="64" y="0" on="1"/>
        <pt x="0" y="0" on="1"/>
        <pt x="0" y="64" on="1"/>
        <pt x="0" y="128" on="1"/>
        <pt x="0" y="192" on="1"/>
        <pt x="0" y="256" on="1"/>
        <pt x="0" y="320" on="1"/>
        <pt x="0" y="384" on="1"/>
        <pt x="0" y="448" on="1"/>
        <pt x="64" y="448" on="1"/>
        <pt x="128" y="448" on="1"/>
        <pt x="128" y="384" on="1"/>
        <pt x="128" y="320" on="1"/>
        <pt x="192" y="320" on="1"/>
        <pt x="256" y="320" on="1"/>
        <pt x="320" y="320" on="1"/>
        <pt x="384" y="320" on="1"/>
        <pt x="384" y="256" on="1"/>
        <pt x="448" y="256" on="1"/>
        <pt x="448" y="192" on="1"/>
        <pt x="448" y="128" on="1"/>
        <pt x="448" y="64" on="1"/>
        <pt x="384" y="64" on="1"/>
        <pt x="384" y="0" on="1"/>
      </contour>
      <contour>
        <pt x="256" y="64" on="1"/>
        <pt x="320" y="64" on="1"/>
        <pt x="320" y="128" on="1"/>
        <pt x="320" y="192" on="1"/>
        <pt x="320" y="256" on="1"/>
        <pt x="256" y="256" on="1"/>
        <pt x="192" y="256" on="1"/>
        <pt x="128" y="256" on="1"/>
        <pt x="128" y="192" on="1"/>
        <pt x="128" y="128" on="1"/>
        <pt x="128" y="64" on="1"/>
        <pt x="192" y="64" on="1"/>
      </contour>
    </TTGlyph>
    <TTGlyph name="backslash" xMin="64" yMin="0" xMax="448" yMax="448">
      <contour>
        <pt x="384" y="0" on="1"/>
        <pt x="384" y="64" on="1"/>
        <pt x="320" y="64" on="1"/>
        <pt x="320" y="128" on="1"/>
        <pt x="256" y="128" on="1"/>
        <pt x="256" y="192" on="1"/>
        <pt x="192" y="192" on="1"/>
        <pt x="192" y="256" on="1"/>
        <pt x="128" y="256" on="1"/>
        <pt x="128" y="320" on="1"/>
        <pt x="64" y="320" on="1"/>
        <pt x="64" y="384" on="1"/>
        <pt x="64" y="448" on="1"/>
        <pt x="128" y="448" on="1"/>
        <pt x="128" y="384" on="1"/>
        <pt x="192" y="384" on="1"/>
        <pt x="192" y="320" on="1"/>
        <pt x="256" y="320" on="1"/>
        <pt x="256" y="256" on="1"/>
        <pt x="320" y="256" on="1"/>
        <pt x="320" y="192" on="1"/>
        <pt x="384" y="192" on="1"/>
        <pt x="384" y="128" on="1"/>
        <pt x="448" y="128" on="1"/>
        <pt x="448" y="64" on="1"/>
        <pt x="448" y="0" on="1"/>
      </contour>
    </TTGlyph>
    <TTGlyph name="bar" xMin="192" yMin="-64" xMax="320" yMax="448">
      <contour>
        <pt x="256" y="-64" on="1"/>
        <pt x="192" y="-64" on="1"/>
        <pt x="192" y="0" on="1"/>
        <pt x="192" y="64" on="1"/>
        <pt x="192" y="128" on="1"/>
        <pt x="192" y="192" on="1"/>
        <pt x="192" y="256" on="1"/>
        <pt x="192" y="320" on="1"/>
        <pt x="192" y="384" on="1"/>
        <pt x="192" y="448" on="1"/>
        <pt x="256" y="448" on="1"/>
        <pt x="320" y="448" on="1"/>
        <pt x="320" y="384" on="1"/>
        <pt x="320" y="320" on="1"/>
        <pt x="320" y="256" on="1"/>
        <pt x="320" y="192" on="1"/>
        <pt x="320" y="128" on="1"/>
        <pt x="320" y="64" on="1"/>
        <pt x="320" y="0" on="1"/>
        <pt x="320" y="-64" on="1"/>
      </contour>
    </TTGlyph>
    <TTGlyph name="braceleft" xMin="64" yMin="0" xMax="384" yMax="448">
      <contour>
        <pt x="320" y="64" on="1"/>
        <pt x="384" y="64" on="1"/>
        <pt x="384" y="0" on="1"/>
        <pt x="320" y="0" on="1"/>
        <pt x="256" y="0" on="1"/>
        <pt x="192" y="0" on="1"/>
        <pt x="192" y="64" on="1"/>
        <pt x="128" y="64" on="1"/>
        <pt x="128" y="128" on="1"/>
        <pt x="128" y="192" on="1"/>
        <pt x="64" y="192" on="1"/>
        <pt x="64" y="256" on="1"/>
        <pt x="128" y="256" on="1"/>
        <pt x="128" y="320" on="1"/>
        <pt x="128" y="384" on="1"/>
        <pt x="192" y="384" on="1"/>
        <pt x="192" y="448" on="1"/>
        <pt x="256" y="448" on="1"/>
        <pt x="320" y="448" on="1"/>
        <pt x="384" y="448" on="1"/>
        <pt x="384" y="384" on="1"/>
        <pt x="320" y="384" on="1"/>
        <pt x="256" y="384" on="1"/>
        <pt x="256" y="320" on="1"/>
        <pt x="256" y="256" on="1"/>
        <pt x="192" y="256" on="1"/>
        <pt x="192" y="192" on="1"/>
        <pt x="256" y="192" on="1"/>
        <pt x="256" y="128" on="1"/>
        <pt x="256" y="64" on="1"/>
      </contour>
    </TTGlyph>
    <TTGlyph name="braceright" xMin="128" yMin="0" xMax="448" yMax="448">
      <contour>
        <pt x="256" y="0" on="1"/>
        <pt x="192" y="0" on="1"/>
        <pt x="128" y="0" on="1"/>
        <pt x="128" y="64" on="1"/>
        <pt x="192" y="64" on="1"/>
        <pt x="256" y="64" on="1"/>
        <pt x="256" y="128" on="1"/>
        <pt x="256" y="192" on="1"/>
        <pt x="320" y="192" on="1"/>
        <pt x="320" y="256" on="1"/>
        <pt x="256" y="256" on="1"/>
        <pt x="256" y="320" on="1"/>
        <pt x="256" y="384" on="1"/>
        <pt x="192" y="384" on="1"/>
        <pt x="128" y="384" on="1"/>
        <pt x="128" y="448" on="1"/>
        <pt x="192" y="448" on="1"/>
        <pt x="256" y="448" on="1"/>
        <pt x="320" y="448" on="1"/>
        <pt x="320" y="384" on="1"/>
        <pt x="384" y="384" on="1"/>
        <pt x="384" y="320" on="1"/>
        <pt x="384" y="256" on="1"/>
        <pt x="448" y="256" on="1"/>
        <pt x="448" y="192" on="1"/>
        <pt x="384" y="192" on="1"/>
        <pt x="384" y="128" on="1"/>
        <pt x="384" y="64" on="1"/>
        <pt x="320" y="64" on="1"/>
        <pt x="320" y="0" on="1"/>
      </contour>
    </TTGlyph>
    <TTGlyph name="bracketleft" xMin="128" yMin="0" xMax="384" yMax="448">
      <contour>
        <pt x="320" y="64" on="1"/>
        <pt x="384" y="64" on="1"/>
        <pt x="384" y="0" on="1"/>
        <pt x="320" y="0" on="1"/>
        <pt x="256" y="0" on="1"/>
        <pt x="192" y="0" on="1"/>
        <pt x="128" y="0" on="1"/>
        <pt x="128" y="64" on="1"/>
        <pt x="128" y="128" on="1"/>
        <pt x="128" y="192" on="1"/>
        <pt x="128" y="256" on="1"/>
        <pt x="128" y="320" on="1"/>
        <pt x="128" y="384" on="1"/>
        <pt x="128" y="448" on="1"/>
        <pt x="192" y="448" on="1"/>
        <pt x="256" y="448" on="1"/>
        <pt x="320" y="448" on="1"/>
        <pt x="384" y="448" on="1"/>
        <pt x="384" y="384" on="1"/>
        <pt x="320" y="384" on="1"/>
        <pt x="256" y="384" on="1"/>
        <pt x="256" y="320" on="1"/>
        <pt x="256" y="256" on="1"/>
        <pt x="256" y="192" on="1"/>
        <pt x="256" y="128" on="1"/>
        <pt x="256" y="64" on="1"/>
      </contour>
    </TTGlyph>
    <TTGlyph name="bracketright" xMin="128" yMin="0" xMax="384" yMax="448">
      <contour>
        <pt x="320" y="0" on="1"/>
        <pt x="256" y="0" on="1"/>
        <pt x="192" y="0" on="1"/>
        <pt x="128" y="0" on="1"/>
        <pt x="128" y="64" on="1"/>
        <pt x="192" y="64" on="1"/>
        <pt x="256" y="64" on="1"/>
        <pt x="256" y="128" on="1"/>
        <pt x="256" y="192" on="1"/>
        <pt x="256" y="256" on="1"/>
        <pt x="256" y="320" on="1"/>
        <pt x="256" y="384" on="1"/>
        <pt x="192" y="384" on="1"/>
        <pt x="128" y="384" on="1"/>
        <pt x="128" y="448" on="1"/>
        <pt x="192" y="448" on="1"/>
        <pt x="256" y="448" on="1"/>
        <pt x="320" y="448" on="1"/>
        <pt x="384" y="448" on="1"/>
        <pt x="384" y="384" on="1"/>
        <pt x="384" y="320" on="1"/>
        <pt x="384" y="256" on="1"/>
        <pt x="384" y="192" on="1"/>
        <pt x="384" y="128" on="1"/>
        <pt x="384" y="64" on="1"/>
        <pt x="384" y="0" on="1"/>
      </contour>
    </TTGlyph>
    <TTGlyph name="brokenbar" xMin="192" yMin="0" xMax="256" yMax="448">
      <contour>
        <pt x="192" y="0" on="1"/>
        <pt x="192" y="64" on="1"/>
        <pt x="192" y="128" on="1"/>
        <pt x="192" y="192" on="1"/>
        <pt x="256" y="192" on="1"/>
        <pt x="256" y="128" on="1"/>
        <pt x="256" y="64" on="1"/>
        <pt x="256" y="0" on="1"/>
      </contour>
      <contour>
        <pt x="192" y="256" on="1"/>
        <pt x="192" y="320" on="1"/>
        <pt x="192" y="384" on="1"/>
        <pt x="192" y="448" on="1"/>
        <pt x="256" y="448" on="1"/>
        <pt x="256" y="384" on="1"/>
        <pt x="256" y="320" on="1"/>
        <pt x="256" y="256" on="1"/>
      </contour>
    </TTGlyph>
    <TTGlyph name="c" xMin="0" yMin="0" xMax="448" yMax="320">
      <contour>
        <pt x="384" y="64" on="1"/>
        <pt x="448" y="64" on="1"/>
        <pt x="448" y="0" on="1"/>
        <pt x="384" y="0" on="1"/>
        <pt x="320" y="0" on="1"/>
        <pt x="256" y="0" on="1"/>
        <pt x="192" y="0" on="1"/>
        <pt x="128" y="0" on="1"/>
        <pt x="64" y="0" on="1"/>
        <pt x="64" y="64" on="1"/>
        <pt x="0" y="64" on="1"/>
        <pt x="0" y="128" on="1"/>
        <pt x="0" y="192" on="1"/>
        <pt x="0" y="256" on="1"/>
        <pt x="64" y="256" on="1"/>
        <pt x="64" y="320" on="1"/>
        <pt x="128" y="320" on="1"/>
        <pt x="192" y="320" on="1"/>
        <pt x="256" y="320" on="1"/>
        <pt x="320" y="320" on="1"/>
        <pt x="384" y="320" on="1"/>
        <pt x="384" y="256" on="1"/>
        <pt x="448" y="256" on="1"/>
        <pt x="448" y="192" on="1"/>
        <pt x="384" y="192" on="1"/>
        <pt x="320" y="192" on="1"/>
        <pt x="320" y="256" on="1"/>
        <pt x="256" y="256" on="1"/>
        <pt x="192" y="256" on="1"/>
        <pt x="128" y="256" on="1"/>
        <pt x="128" y="192" on="1"/>
        <pt x="128" y="128" on="1"/>
        <pt x="128" y="64" on="1"/>
        <pt x="192" y="64" on="1"/>
        <pt x="256" y="64" on="1"/>
        <pt x="320" y="64" on="1"/>
      </contour>
    </TTGlyph>
    <TTGlyph name="ccedilla" xMin="64" yMin="-64" xMax="384" yMax="384">
      <contour>
        <pt x="128" y="-64" on="1"/>
        <pt x="128" y="0" on="1"/>
        <pt x="192" y="0" on="1"/>
        <pt x="192" y="-64" on="1"/>
      </contour>
      <contour>
        <pt x="192" y="0" on="1"/>
        <pt x="192" y="64" on="1"/>
        <pt x="128" y="64" on="1"/>
        <pt x="128" y="128" on="1"/>
        <pt x="64" y="128" on="1"/>
        <pt x="64" y="192" on="1"/>
        <pt x="64" y="256" on="1"/>
        <pt x="64" y="320" on="1"/>
        <pt x="128" y="320" on="1"/>
        <pt x="128" y="384" on="1"/>
        <pt x="192" y="384" on="1"/>
        <pt x="256" y="384" on="1"/>
        <pt x="320" y="384" on="1"/>
        <pt x="320" y="320" on="1"/>
        <pt x="384" y="320" on="1"/>
        <pt x="384" y="256" on="1"/>
        <pt x="320" y="256" on="1"/>
        <pt x="256" y="256" on="1"/>
        <pt x="256" y="320" on="1"/>
        <pt x="192" y="320" on="1"/>
        <pt x="192" y="256" on="1"/>
        <pt x="128" y="256" on="1"/>
        <pt x="128" y="192" on="1"/>
        <pt x="192" y="192" on="1"/>
        <pt x="192" y="128" on="1"/>
        <pt x="256" y="128" on="1"/>
        <pt x="320" y="128" on="1"/>
        <pt x="320" y="64" on="1"/>
        <pt x="256" y="64" on="1"/>
        <pt x="256" y="0" on="1"/>
      </contour>
      <contour>
        <pt x="320" y="128" on="1"/>
        <pt x="320" y="192" on="1"/>
        <pt x="384" y="192" on="1"/>
        <pt x="384" y="128" on="1"/>
      </contour>
    </TTGlyph>
    <TTGlyph name="cent" xMin="64" yMin="0" xMax="384" yMax="448">
      <contour>
        <pt x="192" y="0" on="1"/>
        <pt x="192" y="64" on="1"/>
        <pt x="128" y="64" on="1"/>
        <pt x="128" y="128" on="1"/>
        <pt x="64" y="128" on="1"/>
        <pt x="64" y="192" on="1"/>
        <pt x="64" y="256" on="1"/>
        <pt x="64" y="320" on="1"/>
        <pt x="128" y="320" on="1"/>
        <pt x="128" y="384" on="1"/>
        <pt x="192" y="384" on="1"/>
        <pt x="192" y="448" on="1"/>
        <pt x="256" y="448" on="1"/>
        <pt x="256" y="384" on="1"/>
        <pt x="320" y="384" on="1"/>
        <pt x="320" y="320" on="1"/>
        <pt x="384" y="320" on="1"/>
        <pt x="384" y="256" on="1"/>
        <pt x="320" y="256" on="1"/>
        <pt x="320" y="320" on="1"/>
        <pt x="256" y="320" on="1"/>
        <pt x="256" y="256" on="1"/>
        <pt x="256" y="192" on="1"/>
        <pt x="256" y="128" on="1"/>
        <pt x="320" y="128" on="1"/>
        <pt x="320" y="64" on="1"/>
        <pt x="256" y="64" on="1"/>
        <pt x="256" y="0" on="1"/>
      </contour>
      <contour>
        <pt x="320" y="128" on="1"/>
        <pt x="320" y="192" on="1"/>
        <pt x="384" y="192" on="1"/>
        <pt x="384" y="128" on="1"/>
      </contour>
      <contour>
        <pt x="192" y="128" on="1"/>
        <pt x="192" y="192" on="1"/>
        <pt x="192" y="256" on="1"/>
        <pt x="192" y="320" on="1"/>
        <pt x="128" y="320" on="1"/>
        <pt x="128" y="256" on="1"/>
        <pt x="128" y="192" on="1"/>
        <pt x="128" y="128" on="1"/>
      </contour>
    </TTGlyph>
    <TTGlyph name="colon" xMin="192" yMin="0" xMax="320" yMax="320">
      <contour>
        <pt x="256" y="0" on="1"/>
        <pt x="192" y="0" on="1"/>
        <pt x="192" y="64" on="1"/>
        <pt x="192" y="128" on="1"/>
        <pt x="256" y="128" on="1"/>
        <pt x="320" y="128" on="1"/>
        <pt x="320" y="64" on="1"/>
        <pt x="320" y="0" on="1"/>
      </contour>
      <contour>
        <pt x="256" y="192" on="1"/>
        <pt x="192" y="192" on="1"/>
        <pt x="192" y="256" on="1"/>
        <pt x="192" y="320" on="1"/>
        <pt x="256" y="320" on="1"/>
        <pt x="320" y="320" on="1"/>
        <pt x="320" y="256" on="1"/>
        <pt x="320" y="192" on="1"/>
      </contour>
    </TTGlyph>
    <TTGlyph name="comma" xMin="128" yMin="-64" xMax="320" yMax="128">
      <contour>
        <pt x="192" y="-64" on="1"/>
        <pt x="128" y="-64" on="1"/>
        <pt x="128" y="0" on="1"/>
        <pt x="192" y="0" on="1"/>
        <pt x="192" y="64" on="1"/>
        <pt x="192" y="128" on="1"/>
        <pt x="256" y="128" on="1"/>
        <pt x="320" y="128" on="1"/>
        <pt x="320" y="64" on="1"/>
        <pt x="320" y="0" on="1"/>
        <pt x="256" y="0" on="1"/>
        <pt x="256" y="-64" on="1"/>
      </contour>
    </TTGlyph>
    <TTGlyph name="copyright" xMin="0" yMin="0" xMax="512" yMax="448">
      <contour>
        <pt x="320" y="64" on="1"/>
        <pt x="384" y="64" on="1"/>
        <pt x="384" y="0" on="1"/>
        <pt x="320" y="0" on="1"/>
        <pt x="256" y="0" on="1"/>
        <pt x="192" y="0" on="1"/>
        <pt x="128" y="0" on="1"/>
        <pt x="128" y="64" on="1"/>
        <pt x="192" y="64" on="1"/>
        <pt x="256" y="64" on="1"/>
      </contour>
      <contour>
        <pt x="384" y="64" on="1"/>
        <pt x="384" y="128" on="1"/>
        <pt x="448" y="128" on="1"/>
        <pt x="448" y="64" on="1"/>
      </contour>
      <contour>
        <pt x="128" y="64" on="1"/>
        <pt x="64" y="64" on="1"/>
        <pt x="64" y="128" on="1"/>
        <pt x="128" y="128" on="1"/>
      </contour>
      <contour>
        <pt x="448" y="128" on="1"/>
        <pt x="448" y="192" on="1"/>
        <pt x="448" y="256" on="1"/>
        <pt x="448" y="320" on="1"/>
        <pt x="512" y="320" on="1"/>
        <pt x="512" y="256" on="1"/>
        <pt x="512" y="192" on="1"/>
        <pt x="512" y="128" on="1"/>
      </contour>
      <contour>
        <pt x="256" y="192" on="1"/>
        <pt x="320" y="192" on="1"/>
        <pt x="320" y="128" on="1"/>
        <pt x="256" y="128" on="1"/>
        <pt x="192" y="128" on="1"/>
        <pt x="192" y="192" on="1"/>
      </contour>
      <contour>
        <pt x="64" y="128" on="1"/>
        <pt x="0" y="128" on="1"/>
        <pt x="0" y="192" on="1"/>
        <pt x="0" y="256" on="1"/>
        <pt x="0" y="320" on="1"/>
        <pt x="64" y="320" on="1"/>
        <pt x="64" y="256" on="1"/>
        <pt x="64" y="192" on="1"/>
      </contour>
      <contour>
        <pt x="192" y="192" on="1"/>
        <pt x="128" y="192" on="1"/>
        <pt x="128" y="256" on="1"/>
        <pt x="192" y="256" on="1"/>
      </contour>
      <contour>
        <pt x="256" y="320" on="1"/>
        <pt x="320" y="320" on="1"/>
        <pt x="320" y="256" on="1"/>
        <pt x="256" y="256" on="1"/>
        <pt x="192" y="256" on="1"/>
        <pt x="192" y="320" on="1"/>
      </contour>
      <contour>
        <pt x="448" y="320" on="1"/>
        <pt x="384" y="320" on="1"/>
        <pt x="384" y="384" on="1"/>
        <pt x="448" y="384" on="1"/>
      </contour>
      <contour>
        <pt x="64" y="320" on="1"/>
        <pt x="64" y="384" on="1"/>
        <pt x="128" y="384" on="1"/>
        <pt x="128" y="320" on="1"/>
      </contour>
      <contour>
        <pt x="384" y="384" on="1"/>
        <pt x="320" y="384" on="1"/>
        <pt x="256" y="384" on="1"/>
        <pt x="192" y="384" on="1"/>
        <pt x="128" y="384" on="1"/>
        <pt x="128" y="448" on="1"/>
        <pt x="192" y="448" on="1"/>
        <pt x="256" y="448" on="1"/>
        <pt x="320" y="448" on="1"/>
        <pt x="384" y="448" on="1"/>
      </contour>
    </TTGlyph>
    <TTGlyph name="currency" xMin="0" yMin="0" xMax="448" yMax="448">
      <contour>
        <pt x="384" y="320" on="1"/>
        <pt x="384" y="384" on="1"/>
        <pt x="448" y="384" on="1"/>
        <pt x="448" y="320" on="1"/>
      </contour>
      <contour>
        <pt x="320" y="64" on="1"/>
        <pt x="384" y="64" on="1"/>
        <pt x="384" y="0" on="1"/>
        <pt x="320" y="0" on="1"/>
        <pt x="256" y="0" on="1"/>
        <pt x="192" y="0" on="1"/>
        <pt x="192" y="64" on="1"/>
        <pt x="128" y="64" on="1"/>
        <pt x="128" y="128" on="1"/>
        <pt x="64" y="128" on="1"/>
        <pt x="0" y="128" on="1"/>
        <pt x="0" y="192" on="1"/>
        <pt x="64" y="192" on="1"/>
        <pt x="64" y="256" on="1"/>
        <pt x="0" y="256" on="1"/>
        <pt x="0" y="320" on="1"/>
        <pt x="64" y="320" on="1"/>
        <pt x="128" y="320" on="1"/>
        <pt x="128" y="384" on="1"/>
        <pt x="192" y="384" on="1"/>
        <pt x="192" y="448" on="1"/>
        <pt x="256" y="448" on="1"/>
        <pt x="320" y="448" on="1"/>
        <pt x="384" y="448" on="1"/>
        <pt x="384" y="384" on="1"/>
        <pt x="320" y="384" on="1"/>
        <pt x="256" y="384" on="1"/>
        <pt x="256" y="320" on="1"/>
        <pt x="320" y="320" on="1"/>
        <pt x="320" y="256" on="1"/>
        <pt x="256" y="256" on="1"/>
        <pt x="192" y="256" on="1"/>
        <pt x="192" y="192" on="1"/>
        <pt x="256" y="192" on="1"/>
        <pt x="320" y="192" on="1"/>
        <pt x="320" y="128" on="1"/>
        <pt x="256" y="128" on="1"/>
        <pt x="256" y="64" on="1"/>
      </contour>
      <contour>
        <pt x="384" y="64" on="1"/>
        <pt x="384" y="128" on="1"/>
        <pt x="448" y="128" on="1"/>
        <pt x="448" y="64" on="1"/>
      </contour>
    </TTGlyph>
    <TTGlyph name="d" xMin="0" yMin="0" xMax="448" yMax="448">
      <contour>
        <pt x="384" y="0" on="1"/>
        <pt x="320" y="0" on="1"/>
        <pt x="256" y="0" on="1"/>
        <pt x="192" y="0" on="1"/>
        <pt x="128" y="0" on="1"/>
        <pt x="64" y="0" on="1"/>
        <pt x="64" y="64" on="1"/>
        <pt x="0" y="64" on="1"/>
        <pt x="0" y="128" on="1"/>
        <pt x="0" y="192" on="1"/>
        <pt x="0" y="256" on="1"/>
        <pt x="64" y="256" on="1"/>
        <pt x="64" y="320" on="1"/>
        <pt x="128" y="320" on="1"/>
        <pt x="192" y="320" on="1"/>
        <pt x="256" y="320" on="1"/>
        <pt x="320" y="320" on="1"/>
        <pt x="320" y="384" on="1"/>
        <pt x="320" y="448" on="1"/>
        <pt x="384" y="448" on="1"/>
        <pt x="448" y="448" on="1"/>
        <pt x="448" y="384" on="1"/>
        <pt x="448" y="320" on="1"/>
        <pt x="448" y="256" on="1"/>
        <pt x="448" y="192" on="1"/>
        <pt x="448" y="128" on="1"/>
        <pt x="448" y="64" on="1"/>
        <pt x="448" y="0" on="1"/>
      </contour>
      <contour>
        <pt x="256" y="64" on="1"/>
        <pt x="320" y="64" on="1"/>
        <pt x="320" y="128" on="1"/>
        <pt x="320" y="192" on="1"/>
        <pt x="320" y="256" on="1"/>
        <pt x="256" y="256" on="1"/>
        <pt x="192" y="256" on="1"/>
        <pt x="128" y="256" on="1"/>
        <pt x="128" y="192" on="1"/>
        <pt x="128" y="128" on="1"/>
        <pt x="128" y="64" on="1"/>
        <pt x="192" y="64" on="1"/>
      </contour>
    </TTGlyph>
    <TTGlyph name="degree" xMin="64" yMin="128" xMax="384" yMax="448">
      <contour>
        <pt x="256" y="192" on="1"/>
        <pt x="320" y="192" on="1"/>
        <pt x="320" y="128" on="1"/>
        <pt x="256" y="128" on="1"/>
        <pt x="192" y="128" on="1"/>
        <pt x="128" y="128" on="1"/>
        <pt x="128" y="192" on="1"/>
        <pt x="192" y="192" on="1"/>
      </contour>
      <contour>
        <pt x="320" y="192" on="1"/>
        <pt x="320" y="256" on="1"/>
        <pt x="320" y="320" on="1"/>
        <pt x="320" y="384" on="1"/>
        <pt x="384" y="384" on="1"/>
        <pt x="384" y="320" on="1"/>
        <pt x="384" y="256" on="1"/>
        <pt x="384" y="192" on="1"/>
      </contour>
      <contour>
        <pt x="128" y="192" on="1"/>
        <pt x="64" y="192" on="1"/>
        <pt x="64" y="256" on="1"/>
        <pt x="64" y="320" on="1"/>
        <pt x="64" y="384" on="1"/>
        <pt x="128" y="384" on="1"/>
        <pt x="128" y="320" on="1"/>
        <pt x="128" y="256" on="1"/>
      </contour>
      <contour>
        <pt x="320" y="384" on="1"/>
        <pt x="256" y="384" on="1"/>
        <pt x="192" y="384" on="1"/>
        <pt x="128" y="384" on="1"/>
        <pt x="128" y="448" on="1"/>
        <pt x="192" y="448" on="1"/>
        <pt x="256" y="448" on="1"/>
        <pt x="320" y="448" on="1"/>
      </contour>
    </TTGlyph>
    <TTGlyph name="divide" xMin="64" yMin="64" xMax="384" yMax="384">
      <contour>
        <pt x="192" y="64" on="1"/>
        <pt x="192" y="128" on="1"/>
        <pt x="256" y="128" on="1"/>
        <pt x="256" y="64" on="1"/>
      </contour>
      <contour>
        <pt x="192" y="320" on="1"/>
        <pt x="192" y="384" on="1"/>
        <pt x="256" y="384" on="1"/>
        <pt x="256" y="320" on="1"/>
      </contour>
      <contour>
        <pt x="320" y="256" on="1"/>
        <pt x="384" y="256" on="1"/>
        <pt x="384" y="192" on="1"/>
        <pt x="320" y="192" on="1"/>
        <pt x="256" y="192" on="1"/>
        <pt x="192" y="192" on="1"/>
        <pt x="128" y="192" on="1"/>
        <pt x="64" y="192" on="1"/>
        <pt x="64" y="256" on="1"/>
        <pt x="128" y="256" on="1"/>
        <pt x="192" y="256" on="1"/>
        <pt x="256" y="256" on="1"/>
      </contour>
    </TTGlyph>
    <TTGlyph name="dollar" xMin="64" yMin="0" xMax="448" yMax="448">
      <contour>
        <pt x="256" y="0" on="1"/>
        <pt x="192" y="0" on="1"/>
        <pt x="192" y="64" on="1"/>
        <pt x="128" y="64" on="1"/>
        <pt x="64" y="64" on="1"/>
        <pt x="64" y="128" on="1"/>
        <pt x="128" y="128" on="1"/>
        <pt x="192" y="128" on="1"/>
        <pt x="256" y="128" on="1"/>
        <pt x="320" y="128" on="1"/>
        <pt x="320" y="192" on="1"/>
        <pt x="256" y="192" on="1"/>
        <pt x="192" y="192" on="1"/>
        <pt x="128" y="192" on="1"/>
        <pt x="128" y="256" on="1"/>
        <pt x="64" y="256" on="1"/>
        <pt x="64" y="320" on="1"/>
        <pt x="128" y="320" on="1"/>
        <pt x="128" y="384" on="1"/>
        <pt x="192" y="384" on="1"/>
        <pt x="192" y="448" on="1"/>
        <pt x="256" y="448" on="1"/>
        <pt x="320" y="448" on="1"/>
        <pt x="320" y="384" on="1"/>
        <pt x="384" y="384" on="1"/>
        <pt x="448" y="384" on="1"/>
        <pt x="448" y="320" on="1"/>
        <pt x="384" y="320" on="1"/>
        <pt x="320" y="320" on="1"/>
        <pt x="256" y="320" on="1"/>
        <pt x="192" y="320" on="1"/>
        <pt x="192" y="256" on="1"/>
        <pt x="256" y="256" on="1"/>
        <pt x="320" y="256" on="1"/>
        <pt x="384" y="256" on="1"/>
        <pt x="384" y="192" on="1"/>
        <pt x="448" y="192" on="1"/>
        <pt x="448" y="128" on="1"/>
        <pt x="384" y="128" on="1"/>
        <pt x="384" y="64" on="1"/>
        <pt x="320" y="64" on="1"/>
        <pt x="320" y="0" on="1"/>
      </contour>
    </TTGlyph>
    <TTGlyph name="e" xMin="0" yMin="0" xMax="448" yMax="320">
      <contour>
        <pt x="320" y="64" on="1"/>
        <pt x="384" y="64" on="1"/>
        <pt x="384" y="0" on="1"/>
        <pt x="320" y="0" on="1"/>
        <pt x="256" y="0" on="1"/>
        <pt x="192" y="0" on="1"/>
        <pt x="128" y="0" on="1"/>
        <pt x="64" y="0" on="1"/>
        <pt x="64" y="64" on="1"/>
        <pt x="0" y="64" on="1"/>
        <pt x="0" y="128" on="1"/>
        <pt x="0" y="192" on="1"/>
        <pt x="0" y="256" on="1"/>
        <pt x="64" y="256" on="1"/>
        <pt x="64" y="320" on="1"/>
        <pt x="128" y="320" on="1"/>
        <pt x="192" y="320" on="1"/>
        <pt x="256" y="320" on="1"/>
        <pt x="320" y="320" on="1"/>
        <pt x="384" y="320" on="1"/>
        <pt x="384" y="256" on="1"/>
        <pt x="448" y="256" on="1"/>
        <pt x="448" y="192" on="1"/>
        <pt x="448" y="128" on="1"/>
        <pt x="384" y="128" on="1"/>
        <pt x="320" y="128" on="1"/>
        <pt x="256" y="128" on="1"/>
        <pt x="192" y="128" on="1"/>
        <pt x="128" y="128" on="1"/>
        <pt x="128" y="64" on="1"/>
        <pt x="192" y="64" on="1"/>
        <pt x="256" y="64" on="1"/>
      </contour>
      <contour>
        <pt x="256" y="192" on="1"/>
        <pt x="320" y="192" on="1"/>
        <pt x="320" y="256" on="1"/>
        <pt x="256" y="256" on="1"/>
        <pt x="192" y="256" on="1"/>
        <pt x="128" y="256" on="1"/>
        <pt x="128" y="192" on="1"/>
        <pt x="192" y="192" on="1"/>
      </contour>
    </TTGlyph>
    <TTGlyph name="eacute" xMin="64" yMin="0" xMax="384" yMax="448">
      <contour>
        <pt x="256" y="64" on="1"/>
        <pt x="320" y="64" on="1"/>
        <pt x="320" y="0" on="1"/>
        <pt x="256" y="0" on="1"/>
        <pt x="192" y="0" on="1"/>
        <pt x="128" y="0" on="1"/>
        <pt x="128" y="64" on="1"/>
        <pt x="64" y="64" on="1"/>
        <pt x="64" y="128" on="1"/>
        <pt x="64" y="192" on="1"/>
        <pt x="64" y="256" on="1"/>
        <pt x="128" y="256" on="1"/>
        <pt x="128" y="320" on="1"/>
        <pt x="192" y="320" on="1"/>
        <pt x="192" y="384" on="1"/>
        <pt x="256" y="384" on="1"/>
        <pt x="256" y="320" on="1"/>
        <pt x="320" y="320" on="1"/>
        <pt x="320" y="256" on="1"/>
        <pt x="256" y="256" on="1"/>
        <pt x="192" y="256" on="1"/>
        <pt x="192" y="192" on="1"/>
        <pt x="256" y="192" on="1"/>
        <pt x="320" y="192" on="1"/>
        <pt x="320" y="256" on="1"/>
        <pt x="384" y="256" on="1"/>
        <pt x="384" y="192" on="1"/>
        <pt x="384" y="128" on="1"/>
        <pt x="320" y="128" on="1"/>
        <pt x="256" y="128" on="1"/>
        <pt x="192" y="128" on="1"/>
        <pt x="192" y="64" on="1"/>
      </contour>
      <contour>
        <pt x="256" y="384" on="1"/>
        <pt x="256" y="448" on="1"/>
        <pt x="320" y="448" on="1"/>
        <pt x="320" y="384" on="1"/>
      </contour>
    </TTGlyph>
    <TTGlyph name="ecircumflex" xMin="64" yMin="0" xMax="384" yMax="448">
      <contour>
        <pt x="256" y="64" on="1"/>
        <pt x="320" y="64" on="1"/>
        <pt x="320" y="0" on="1"/>
        <pt x="256" y="0" on="1"/>
        <pt x="192" y="0" on="1"/>
        <pt x="128" y="0" on="1"/>
        <pt x="128" y="64" on="1"/>
        <pt x="64" y="64" on="1"/>
        <pt x="64" y="128" on="1"/>
        <pt x="64" y="192" on="1"/>
        <pt x="64" y="256" on="1"/>
        <pt x="128" y="256" on="1"/>
        <pt x="128" y="320" on="1"/>
        <pt x="192" y="320" on="1"/>
        <pt x="256" y="320" on="1"/>
        <pt x="320" y="320" on="1"/>
        <pt x="320" y="256" on="1"/>
        <pt x="256" y="256" on="1"/>
        <pt x="192" y="256" on="1"/>
        <pt x="192" y="192" on="1"/>
        <pt x="256" y="192" on="1"/>
        <pt x="320" y="192" on="1"/>
        <pt x="320" y="256" on="1"/>
        <pt x="384" y="256" on="1"/>
        <pt x="384" y="192" on="1"/>
        <pt x="384" y="128" on="1"/>
        <pt x="320" y="128" on="1"/>
        <pt x="256" y="128" on="1"/>
        <pt x="192" y="128" on="1"/>
        <pt x="192" y="64" on="1"/>
      </contour>
      <contour>
        <pt x="320" y="320" on="1"/>
        <pt x="320" y="384" on="1"/>
        <pt x="384" y="384" on="1"/>
        <pt x="384" y="320" on="1"/>
      </contour>
      <contour>
        <pt x="128" y="320" on="1"/>
        <pt x="64" y="320" on="1"/>
        <pt x="64" y="384" on="1"/>
        <pt x="128" y="384" on="1"/>
      </contour>
      <contour>
        <pt x="320" y="384" on="1"/>
        <pt x="256" y="384" on="1"/>
        <pt x="192" y="384" on="1"/>
        <pt x="128" y="384" on="1"/>
        <pt x="128" y="448" on="1"/>
        <pt x="192" y="448" on="1"/>
        <pt x="256" y="448" on="1"/>
        <pt x="320" y="448" on="1"/>
      </contour>
    </TTGlyph>
    <TTGlyph name="edieresis" xMin="64" yMin="0" xMax="384" yMax="448">
      <contour>
        <pt x="256" y="384" on="1"/>
        <pt x="256" y="448" on="1"/>
        <pt x="320" y="448" on="1"/>
        <pt x="320" y="384" on="1"/>
      </contour>
      <contour>
        <pt x="128" y="384" on="1"/>
        <pt x="128" y="448" on="1"/>
        <pt x="192" y="448" on="1"/>
        <pt x="192" y="384" on="1"/>
      </contour>
      <contour>
        <pt x="256" y="64" on="1"/>
        <pt x="320" y="64" on="1"/>
        <pt x="320" y="0" on="1"/>
        <pt x="256" y="0" on="1"/>
        <pt x="192" y="0" on="1"/>
        <pt x="128" y="0" on="1"/>
        <pt x="128" y="64" on="1"/>
        <pt x="64" y="64" on="1"/>
        <pt x="64" y="128" on="1"/>
        <pt x="64" y="192" on="1"/>
        <pt x="64" y="256" on="1"/>
        <pt x="128" y="256" on="1"/>
        <pt x="128" y="320" on="1"/>
        <pt x="192" y="320" on="1"/>
        <pt x="256" y="320" on="1"/>
        <pt x="320" y="320" on="1"/>
        <pt x="320" y="256" on="1"/>
        <pt x="256" y="256" on="1"/>
        <pt x="192" y="256" on="1"/>
        <pt x="192" y="192" on="1"/>
        <pt x="256" y="192" on="1"/>
        <pt x="320" y="192" on="1"/>
        <pt x="320" y="256" on="1"/>
        <pt x="384" y="256" on="1"/>
        <pt x="384" y="192" on="1"/>
        <pt x="384" y="128" on="1"/>
        <pt x="320" y="128" on="1"/>
        <pt x="256" y="128" on="1"/>
        <pt x="192" y="128" on="1"/>
        <pt x="192" y="64" on="1"/>
      </contour>
    </TTGlyph>
    <TTGlyph name="egrave" xMin="64" yMin="0" xMax="384" yMax="448">
      <contour>
        <pt x="256" y="64" on="1"/>
        <pt x="320" y="64" on="1"/>
        <pt x="320" y="0" on="1"/>
        <pt x="256" y="0" on="1"/>
        <pt x="192" y="0" on="1"/>
        <pt x="128" y="0" on="1"/>
        <pt x="128" y="64" on="1"/>
        <pt x="64" y="64" on="1"/>
        <pt x="64" y="128" on="1"/>
        <pt x="64" y="192" on="1"/>
        <pt x="64" y="256" on="1"/>
        <pt x="128" y="256" on="1"/>
        <pt x="128" y="320" on="1"/>
        <pt x="192" y="320" on="1"/>
        <pt x="192" y="384" on="1"/>
        <pt x="256" y="384" on="1"/>
        <pt x="256" y="320" on="1"/>
        <pt x="320" y="320" on="1"/>
        <pt x="320" y="256" on="1"/>
        <pt x="256" y="256" on="1"/>
        <pt x="192" y="256" on="1"/>
        <pt x="192" y="192" on="1"/>
        <pt x="256" y="192" on="1"/>
        <pt x="320" y="192" on="1"/>
        <pt x="320" y="256" on="1"/>
        <pt x="384" y="256" on="1"/>
        <pt x="384" y="192" on="1"/>
        <pt x="384" y="128" on="1"/>
        <pt x="320" y="128" on="1"/>
        <pt x="256" y="128" on="1"/>
        <pt x="192" y="128" on="1"/>
        <pt x="192" y="64" on="1"/>
      </contour>
      <contour>
        <pt x="192" y="384" on="1"/>
        <pt x="128" y="384" on="1"/>
        <pt x="128" y="448" on="1"/>
        <pt x="192" y="448" on="1"/>
      </contour>
    </TTGlyph>
    <TTGlyph name="eight" xMin="0" yMin="0" xMax="448" yMax="448">
      <contour>
        <pt x="320" y="0" on="1"/>
        <pt x="256" y="0" on="1"/>
        <pt x="192" y="0" on="1"/>
        <pt x="128" y="0" on="1"/>
        <pt x="64" y="0" on="1"/>
        <pt x="64" y="64" on="1"/>
        <pt x="0" y="64" on="1"/>
        <pt x="0" y="128" on="1"/>
        <pt x="0" y="192" on="1"/>
        <pt x="64" y="192" on="1"/>
        <pt x="64" y="256" on="1"/>
        <pt x="0" y="256" on="1"/>
        <pt x="0" y="320" on="1"/>
        <pt x="0" y="384" on="1"/>
        <pt x="64" y="384" on="1"/>
        <pt x="64" y="320" on="1"/>
        <pt x="128" y="320" on="1"/>
        <pt x="128" y="256" on="1"/>
        <pt x="192" y="256" on="1"/>
        <pt x="256" y="256" on="1"/>
        <pt x="320" y="256" on="1"/>
        <pt x="320" y="192" on="1"/>
        <pt x="384" y="192" on="1"/>
        <pt x="448" y="192" on="1"/>
        <pt x="448" y="128" on="1"/>
        <pt x="448" y="64" on="1"/>
        <pt x="384" y="64" on="1"/>
        <pt x="384" y="0" on="1"/>
      </contour>
      <contour>
        <pt x="256" y="64" on="1"/>
        <pt x="320" y="64" on="1"/>
        <pt x="320" y="128" on="1"/>
        <pt x="256" y="128" on="1"/>
        <pt x="192" y="128" on="1"/>
        <pt x="192" y="192" on="1"/>
        <pt x="128" y="192" on="1"/>
        <pt x="64" y="192" on="1"/>
        <pt x="64" y="128" on="1"/>
        <pt x="64" y="64" on="1"/>
        <pt x="128" y="64" on="1"/>
        <pt x="192" y="64" on="1"/>
      </contour>
      <contour>
        <pt x="320" y="256" on="1"/>
        <pt x="320" y="320" on="1"/>
        <pt x="320" y="384" on="1"/>
        <pt x="384" y="384" on="1"/>
        <pt x="384" y="320" on="1"/>
        <pt x="384" y="256" on="1"/>
      </contour>
      <contour>
        <pt x="320" y="384" on="1"/>
        <pt x="256" y="384" on="1"/>
        <pt x="192" y="384" on="1"/>
        <pt x="128" y="384" on="1"/>
        <pt x="64" y="384" on="1"/>
        <pt x="64" y="448" on="1"/>
        <pt x="128" y="448" on="1"/>
        <pt x="192" y="448" on="1"/>
        <pt x="256" y="448" on="1"/>
        <pt x="320" y="448" on="1"/>
      </contour>
    </TTGlyph>
    <TTGlyph name="equal" xMin="128" yMin="128" xMax="384" yMax="320">
      <contour>
        <pt x="320" y="192" on="1"/>
        <pt x="384" y="192" on="1"/>
        <pt x="384" y="128" on="1"/>
        <pt x="320" y="128" on="1"/>
        <pt x="256" y="128" on="1"/>
        <pt x="192" y="128" on="1"/>
        <pt x="128" y="128" on="1"/>
        <pt x="128" y="192" on="1"/>
        <pt x="192" y="192" on="1"/>
        <pt x="256" y="192" on="1"/>
      </contour>
      <contour>
        <pt x="320" y="320" on="1"/>
        <pt x="384" y="320" on="1"/>
        <pt x="384" y="256" on="1"/>
        <pt x="320" y="256" on="1"/>
        <pt x="256" y="256" on="1"/>
        <pt x="192" y="256" on="1"/>
        <pt x="128" y="256" on="1"/>
        <pt x="128" y="320" on="1"/>
        <pt x="192" y="320" on="1"/>
        <pt x="256" y="320" on="1"/>
      </contour>
    </TTGlyph>
    <TTGlyph name="eth" xMin="64" yMin="0" xMax="384" yMax="448">
      <contour>
        <pt x="256" y="0" on="1"/>
        <pt x="192" y="0" on="1"/>
        <pt x="128" y="0" on="1"/>
        <pt x="128" y="64" on="1"/>
        <pt x="64" y="64" on="1"/>
        <pt x="64" y="128" on="1"/>
        <pt x="64" y="192" on="1"/>
        <pt x="128" y="192" on="1"/>
        <pt x="128" y="256" on="1"/>
        <pt x="128" y="320" on="1"/>
        <pt x="64" y="320" on="1"/>
        <pt x="64" y="384" on="1"/>
        <pt x="128" y="384" on="1"/>
        <pt x="128" y="448" on="1"/>
        <pt x="192" y="448" on="1"/>
        <pt x="256" y="448" on="1"/>
        <pt x="256" y="384" on="1"/>
        <pt x="320" y="384" on="1"/>
        <pt x="320" y="320" on="1"/>
        <pt x="384" y="320" on="1"/>
        <pt x="384" y="256" on="1"/>
        <pt x="384" y="192" on="1"/>
        <pt x="384" y="128" on="1"/>
        <pt x="384" y="64" on="1"/>
        <pt x="320" y="64" on="1"/>
        <pt x="320" y="0" on="1"/>
      </contour>
      <contour>
        <pt x="256" y="64" on="1"/>
        <pt x="256" y="128" on="1"/>
        <pt x="256" y="192" on="1"/>
        <pt x="192" y="192" on="1"/>
        <pt x="192" y="128" on="1"/>
        <pt x="192" y="64" on="1"/>
      </contour>
      <contour>
        <pt x="256" y="256" on="1"/>
        <pt x="256" y="320" on="1"/>
        <pt x="192" y="320" on="1"/>
        <pt x="192" y="384" on="1"/>
        <pt x="128" y="384" on="1"/>
        <pt x="128" y="320" on="1"/>
        <pt x="192" y="320" on="1"/>
        <pt x="192" y="256" on="1"/>
      </contour>
      <contour>
        <pt x="320" y="384" on="1"/>
        <pt x="320" y="448" on="1"/>
        <pt x="384" y="448" on="1"/>
        <pt x="384" y="384" on="1"/>
      </contour>
    </TTGlyph>
    <TTGlyph name="exclam" xMin="128" yMin="0" xMax="384" yMax="448">
      <contour>
        <pt x="256" y="64" on="1"/>
        <pt x="320" y="64" on="1"/>
        <pt x="320" y="0" on="1"/>
        <pt x="256" y="0" on="1"/>
        <pt x="192" y="0" on="1"/>
        <pt x="192" y="64" on="1"/>
      </contour>
      <contour>
        <pt x="256" y="128" on="1"/>
        <pt x="192" y="128" on="1"/>
        <pt x="192" y="192" on="1"/>
        <pt x="128" y="192" on="1"/>
        <pt x="128" y="256" on="1"/>
        <pt x="128" y="320" on="1"/>
        <pt x="128" y="384" on="1"/>
        <pt x="192" y="384" on="1"/>
        <pt x="192" y="448" on="1"/>
        <pt x="256" y="448" on="1"/>
        <pt x="320" y="448" on="1"/>
        <pt x="320" y="384" on="1"/>
        <pt x="384" y="384" on="1"/>
        <pt x="384" y="320" on="1"/>
        <pt x="384" y="256" on="1"/>
        <pt x="384" y="192" on="1"/>
        <pt x="320" y="192" on="1"/>
        <pt x="320" y="128" on="1"/>
      </contour>
    </TTGlyph>
    <TTGlyph name="exclamdown" xMin="128" yMin="0" xMax="384" yMax="448">
      <contour>
        <pt x="256" y="0" on="1"/>
        <pt x="192" y="0" on="1"/>
        <pt x="192" y="64" on="1"/>
        <pt x="128" y="64" on="1"/>
        <pt x="128" y="128" on="1"/>
        <pt x="128" y="192" on="1"/>
        <pt x="128" y="256" on="1"/>
        <pt x="192" y="256" on="1"/>
        <pt x="192" y="320" on="1"/>
        <pt x="256" y="320" on="1"/>
        <pt x="320" y="320" on="1"/>
        <pt x="320" y="256" on="1"/>
        <pt x="384" y="256" on="1"/>
        <pt x="384" y="192" on="1"/>
        <pt x="384" y="128" on="1"/>
        <pt x="384" y="64" on="1"/>
        <pt x="320" y="64" on="1"/>
        <pt x="320" y="0" on="1"/>
      </contour>
      <contour>
        <pt x="256" y="448" on="1"/>
        <pt x="320" y="448" on="1"/>
        <pt x="320" y="384" on="1"/>
        <pt x="256" y="384" on="1"/>
        <pt x="192" y="384" on="1"/>
        <pt x="192" y="448" on="1"/>
      </contour>
    </TTGlyph>
    <TTGlyph name="f" xMin="64" yMin="0" xMax="448" yMax="448">
      <contour>
        <pt x="192" y="0" on="1"/>
        <pt x="128" y="0" on="1"/>
        <pt x="128" y="64" on="1"/>
        <pt x="128" y="128" on="1"/>
        <pt x="128" y="192" on="1"/>
        <pt x="64" y="192" on="1"/>
        <pt x="64" y="256" on="1"/>
        <pt x="128" y="256" on="1"/>
        <pt x="128" y="320" on="1"/>
        <pt x="128" y="384" on="1"/>
        <pt x="192" y="384" on="1"/>
        <pt x="192" y="448" on="1"/>
        <pt x="256" y="448" on="1"/>
        <pt x="320" y="448" on="1"/>
        <pt x="384" y="448" on="1"/>
        <pt x="384" y="384" on="1"/>
        <pt x="448" y="384" on="1"/>
        <pt x="448" y="320" on="1"/>
        <pt x="384" y="320" on="1"/>
        <pt x="320" y="320" on="1"/>
        <pt x="320" y="384" on="1"/>
        <pt x="256" y="384" on="1"/>
        <pt x="256" y="320" on="1"/>
        <pt x="256" y="256" on="1"/>
        <pt x="320" y="256" on="1"/>
        <pt x="384" y="256" on="1"/>
        <pt x="384" y="192" on="1"/>
        <pt x="320" y="192" on="1"/>
        <pt x="256" y="192" on="1"/>
        <pt x="256" y="128" on="1"/>
        <pt x="256" y="64" on="1"/>
        <pt x="256" y="0" on="1"/>
      </contour>
    </TTGlyph>
    <TTGlyph name="five" xMin="0" yMin="0" xMax="448" yMax="448">
      <contour>
        <pt x="320" y="0" on="1"/>
        <pt x="256" y="0" on="1"/>
        <pt x="192" y="0" on="1"/>
        <pt x="128" y="0" on="1"/>
        <pt x="64" y="0" on="1"/>
        <pt x="64" y="64" on="1"/>
        <pt x="0" y="64" on="1"/>
        <pt x="0" y="128" on="1"/>
        <pt x="64" y="128" on="1"/>
        <pt x="128" y="128" on="1"/>
        <pt x="128" y="64" on="1"/>
        <pt x="192" y="64" on="1"/>
        <pt x="256" y="64" on="1"/>
        <pt x="320" y="64" on="1"/>
        <pt x="320" y="128" on="1"/>
        <pt x="320" y="192" on="1"/>
        <pt x="320" y="256" on="1"/>
        <pt x="256" y="256" on="1"/>
        <pt x="192" y="256" on="1"/>
        <pt x="128" y="256" on="1"/>
        <pt x="64" y="256" on="1"/>
        <pt x="0" y="256" on="1"/>
        <pt x="0" y="320" on="1"/>
        <pt x="0" y="384" on="1"/>
        <pt x="0" y="448" on="1"/>
        <pt x="64" y="448" on="1"/>
        <pt x="128" y="448" on="1"/>
        <pt x="192" y="448" on="1"/>
        <pt x="256" y="448" on="1"/>
        <pt x="320" y="448" on="1"/>
        <pt x="384" y="448" on="1"/>
        <pt x="384" y="384" on="1"/>
        <pt x="320" y="384" on="1"/>
        <pt x="256" y="384" on="1"/>
        <pt x="192" y="384" on="1"/>
        <pt x="128" y="384" on="1"/>
        <pt x="128" y="320" on="1"/>
        <pt x="192" y="320" on="1"/>
        <pt x="256" y="320" on="1"/>
        <pt x="320" y="320" on="1"/>
        <pt x="384" y="320" on="1"/>
        <pt x="384" y="256" on="1"/>
        <pt x="448" y="256" on="1"/>
        <pt x="448" y="192" on="1"/>
        <pt x="448" y="128" on="1"/>
        <pt x="448" y="64" on="1"/>
        <pt x="384" y="64" on="1"/>
        <pt x="384" y="0" on="1"/>
      </contour>
    </TTGlyph>
    <TTGlyph name="four" xMin="0" yMin="0" xMax="448" yMax="448">
      <contour>
        <pt x="320" y="0" on="1"/>
        <pt x="256" y="0" on="1"/>
        <pt x="256" y="64" on="1"/>
        <pt x="256" y="128" on="1"/>
        <pt x="192" y="128" on="1"/>
        <pt x="128" y="128" on="1"/>
        <pt x="64" y="128" on="1"/>
        <pt x="0" y="128" on="1"/>
        <pt x="0" y="192" on="1"/>
        <pt x="0" y="256" on="1"/>
        <pt x="64" y="256" on="1"/>
        <pt x="64" y="320" on="1"/>
        <pt x="128" y="320" on="1"/>
        <pt x="128" y="384" on="1"/>
        <pt x="192" y="384" on="1"/>
        <pt x="192" y="448" on="1"/>
        <pt x="256" y="448" on="1"/>
        <pt x="320" y="448" on="1"/>
        <pt x="384" y="448" on="1"/>
        <pt x="384" y="384" on="1"/>
        <pt x="384" y="320" on="1"/>
        <pt x="384" y="256" on="1"/>
        <pt x="384" y="192" on="1"/>
        <pt x="448" y="192" on="1"/>
        <pt x="448" y="128" on="1"/>
        <pt x="384" y="128" on="1"/>
        <pt x="384" y="64" on="1"/>
        <pt x="384" y="0" on="1"/>
      </contour>
      <contour>
        <pt x="192" y="192" on="1"/>
        <pt x="256" y="192" on="1"/>
        <pt x="256" y="256" on="1"/>
        <pt x="256" y="320" on="1"/>
        <pt x="192" y="320" on="1"/>
        <pt x="192" y="256" on="1"/>
        <pt x="128" y="256" on="1"/>
        <pt x="128" y="192" on="1"/>
      </contour>
    </TTGlyph>
    <TTGlyph name="g" xMin="0" yMin="-64" xMax="448" yMax="320">
      <contour>
        <pt x="320" y="-64" on="1"/>
        <pt x="256" y="-64" on="1"/>
        <pt x="192" y="-64" on="1"/>
        <pt x="128" y="-64" on="1"/>
        <pt x="64" y="-64" on="1"/>
        <pt x="64" y="0" on="1"/>
        <pt x="128" y="0" on="1"/>
        <pt x="192" y="0" on="1"/>
        <pt x="256" y="0" on="1"/>
        <pt x="320" y="0" on="1"/>
        <pt x="320" y="64" on="1"/>
        <pt x="256" y="64" on="1"/>
        <pt x="192" y="64" on="1"/>
        <pt x="128" y="64" on="1"/>
        <pt x="64" y="64" on="1"/>
        <pt x="64" y="128" on="1"/>
        <pt x="0" y="128" on="1"/>
        <pt x="0" y="192" on="1"/>
        <pt x="0" y="256" on="1"/>
        <pt x="64" y="256" on="1"/>
        <pt x="64" y="320" on="1"/>
        <pt x="128" y="320" on="1"/>
        <pt x="192" y="320" on="1"/>
        <pt x="256" y="320" on="1"/>
        <pt x="320" y="320" on="1"/>
        <pt x="384" y="320" on="1"/>
        <pt x="448" y="320" on="1"/>
        <pt x="448" y="256" on="1"/>
        <pt x="448" y="192" on="1"/>
        <pt x="448" y="128" on="1"/>
        <pt x="448" y="64" on="1"/>
        <pt x="448" y="0" on="1"/>
        <pt x="384" y="0" on="1"/>
        <pt x="384" y="-64" on="1"/>
      </contour>
      <contour>
        <pt x="256" y="128" on="1"/>
        <pt x="320" y="128" on="1"/>
        <pt x="320" y="192" on="1"/>
        <pt x="320" y="256" on="1"/>
        <pt x="256" y="256" on="1"/>
        <pt x="192" y="256" on="1"/>
        <pt x="128" y="256" on="1"/>
        <pt x="128" y="192" on="1"/>
        <pt x="128" y="128" on="1"/>
        <pt x="192" y="128" on="1"/>
      </contour>
    </TTGlyph>
    <TTGlyph name="germandbls" xMin="0" yMin="0" xMax="448" yMax="448">
      <contour>
        <pt x="64" y="0" on="1"/>
        <pt x="0" y="0" on="1"/>
        <pt x="0" y="64" on="1"/>
        <pt x="0" y="128" on="1"/>
        <pt x="0" y="192" on="1"/>
        <pt x="0" y="256" on="1"/>
        <pt x="0" y="320" on="1"/>
        <pt x="0" y="384" on="1"/>
        <pt x="64" y="384" on="1"/>
        <pt x="64" y="448" on="1"/>
        <pt x="128" y="448" on="1"/>
        <pt x="192" y="448" on="1"/>
        <pt x="256" y="448" on="1"/>
        <pt x="320" y="448" on="1"/>
        <pt x="384" y="448" on="1"/>
        <pt x="384" y="384" on="1"/>
        <pt x="448" y="384" on="1"/>
        <pt x="448" y="320" on="1"/>
        <pt x="384" y="320" on="1"/>
        <pt x="384" y="256" on="1"/>
        <pt x="448" y="256" on="1"/>
        <pt x="448" y="192" on="1"/>
        <pt x="448" y="128" on="1"/>
        <pt x="384" y="128" on="1"/>
        <pt x="384" y="64" on="1"/>
        <pt x="320" y="64" on="1"/>
        <pt x="256" y="64" on="1"/>
        <pt x="192" y="64" on="1"/>
        <pt x="192" y="128" on="1"/>
        <pt x="128" y="128" on="1"/>
        <pt x="128" y="64" on="1"/>
        <pt x="128" y="0" on="1"/>
      </contour>
      <contour>
        <pt x="256" y="128" on="1"/>
        <pt x="320" y="128" on="1"/>
        <pt x="320" y="192" on="1"/>
        <pt x="320" y="256" on="1"/>
        <pt x="256" y="256" on="1"/>
        <pt x="256" y="320" on="1"/>
        <pt x="320" y="320" on="1"/>
        <pt x="320" y="384" on="1"/>
        <pt x="256" y="384" on="1"/>
        <pt x="192" y="384" on="1"/>
        <pt x="128" y="384" on="1"/>
        <pt x="128" y="320" on="1"/>
        <pt x="128" y="256" on="1"/>
        <pt x="128" y="192" on="1"/>
        <pt x="192" y="192" on="1"/>
        <pt x="192" y="128" on="1"/>
      </contour>
    </TTGlyph>
    <TTGlyph name="grave" xMin="64" yMin="320" xMax="256" yMax="448">
      <contour>
        <pt x="192" y="320" on="1"/>
        <pt x="128" y="320" on="1"/>
        <pt x="128" y="384" on="1"/>
        <pt x="64" y="384" on="1"/>
        <pt x="64" y="448" on="1"/>
        <pt x="128" y="448" on="1"/>
        <pt x="192" y="448" on="1"/>
        <pt x="192" y="384" on="1"/>
        <pt x="256" y="384" on="1"/>
        <pt x="256" y="320" on="1"/>
      </contour>
    </TTGlyph>
    <TTGlyph name="greater" xMin="128" yMin="0" xMax="448" yMax="448">
      <contour>
        <pt x="192" y="0" on="1"/>
        <pt x="128" y="0" on="1"/>
        <pt x="128" y="64" on="1"/>
        <pt x="192" y="64" on="1"/>
        <pt x="192" y="128" on="1"/>
        <pt x="256" y="128" on="1"/>
        <pt x="256" y="192" on="1"/>
        <pt x="320" y="192" on="1"/>
        <pt x="320" y="256" on="1"/>
        <pt x="256" y="256" on="1"/>
        <pt x="256" y="320" on="1"/>
        <pt x="192" y="320" on="1"/>
        <pt x="192" y="384" on="1"/>
        <pt x="128" y="384" on="1"/>
        <pt x="128" y="448" on="1"/>
        <pt x="192" y="448" on="1"/>
        <pt x="256" y="448" on="1"/>
        <pt x="256" y="384" on="1"/>
        <pt x="320" y="384" on="1"/>
        <pt x="320" y="320" on="1"/>
        <pt x="384" y="320" on="1"/>
        <pt x="384" y="256" on="1"/>
        <pt x="448" y="256" on="1"/>
        <pt x="448" y="192" on="1"/>
        <pt x="384" y="192" on="1"/>
        <pt x="384" y="128" on="1"/>
        <pt x="320" y="128" on="1"/>
        <pt x="320" y="64" on="1"/>
        <pt x="256" y="64" on="1"/>
        <pt x="256" y="0" on="1"/>
      </contour>
    </TTGlyph>
    <TTGlyph name="guillemotleft" xMin="0" yMin="64" xMax="384" yMax="384">
      <contour>
        <pt x="320" y="64" on="1"/>
        <pt x="320" y="128" on="1"/>
        <pt x="384" y="128" on="1"/>
        <pt x="384" y="64" on="1"/>
      </contour>
      <contour>
        <pt x="128" y="64" on="1"/>
        <pt x="128" y="128" on="1"/>
        <pt x="192" y="128" on="1"/>
        <pt x="192" y="64" on="1"/>
      </contour>
      <contour>
        <pt x="320" y="128" on="1"/>
        <pt x="256" y="128" on="1"/>
        <pt x="256" y="192" on="1"/>
        <pt x="320" y="192" on="1"/>
      </contour>
      <contour>
        <pt x="128" y="128" on="1"/>
        <pt x="64" y="128" on="1"/>
        <pt x="64" y="192" on="1"/>
        <pt x="128" y="192" on="1"/>
      </contour>
      <contour>
        <pt x="256" y="192" on="1"/>
        <pt x="192" y="192" on="1"/>
        <pt x="192" y="256" on="1"/>
        <pt x="256" y="256" on="1"/>
      </contour>
      <contour>
        <pt x="64" y="192" on="1"/>
        <pt x="0" y="192" on="1"/>
        <pt x="0" y="256" on="1"/>
        <pt x="64" y="256" on="1"/>
      </contour>
      <contour>
        <pt x="256" y="256" on="1"/>
        <pt x="256" y="320" on="1"/>
        <pt x="320" y="320" on="1"/>
        <pt x="320" y="256" on="1"/>
      </contour>
      <contour>
        <pt x="64" y="256" on="1"/>
        <pt x="64" y="320" on="1"/>
        <pt x="128" y="320" on="1"/>
        <pt x="128" y="256" on="1"/>
      </contour>
      <contour>
        <pt x="320" y="320" on="1"/>
        <pt x="320" y="384" on="1"/>
        <pt x="384" y="384" on="1"/>
        <pt x="384" y="320" on="1"/>
      </contour>
      <contour>
        <pt x="128" y="320" on="1"/>
        <pt x="128" y="384" on="1"/>
        <pt x="192" y="384" on="1"/>
        <pt x="192" y="320" on="1"/>
      </contour>
    </TTGlyph>
    <TTGlyph name="guillemotright" xMin="64" yMin="64" xMax="448" yMax="384">
      <contour>
        <pt x="256" y="64" on="1"/>
        <pt x="256" y="128" on="1"/>
        <pt x="320" y="128" on="1"/>
        <pt x="320" y="64" on="1"/>
      </contour>
      <contour>
        <pt x="64" y="64" on="1"/>
        <pt x="64" y="128" on="1"/>
        <pt x="128" y="128" on="1"/>
        <pt x="128" y="64" on="1"/>
      </contour>
      <contour>
        <pt x="320" y="128" on="1"/>
        <pt x="320" y="192" on="1"/>
        <pt x="384" y="192" on="1"/>
        <pt x="384" y="128" on="1"/>
      </contour>
      <contour>
        <pt x="128" y="128" on="1"/>
        <pt x="128" y="192" on="1"/>
        <pt x="192" y="192" on="1"/>
        <pt x="192" y="128" on="1"/>
      </contour>
      <contour>
        <pt x="384" y="192" on="1"/>
        <pt x="384" y="256" on="1"/>
        <pt x="448" y="256" on="1"/>
        <pt x="448" y="192" on="1"/>
      </contour>
      <contour>
        <pt x="192" y="192" on="1"/>
        <pt x="192" y="256" on="1"/>
        <pt x="256" y="256" on="1"/>
        <pt x="256" y="192" on="1"/>
      </contour>
      <contour>
        <pt x="384" y="256" on="1"/>
        <pt x="320" y="256" on="1"/>
        <pt x="320" y="320" on="1"/>
        <pt x="384" y="320" on="1"/>
      </contour>
      <contour>
        <pt x="192" y="256" on="1"/>
        <pt x="128" y="256" on="1"/>
        <pt x="128" y="320" on="1"/>
        <pt x="192" y="320" on="1"/>
      </contour>
      <contour>
        <pt x="320" y="320" on="1"/>
        <pt x="256" y="320" on="1"/>
        <pt x="256" y="384" on="1"/>
        <pt x="320" y="384" on="1"/>
      </contour>
      <contour>
        <pt x="128" y="320" on="1"/>
        <pt x="64" y="320" on="1"/>
        <pt x="64" y="384" on="1"/>
        <pt x="128" y="384" on="1"/>
      </contour>
    </TTGlyph>
    <TTGlyph name="h" xMin="0" yMin="0" xMax="448" yMax="448">
      <contour>
        <pt x="384" y="0" on="1"/>
        <pt x="320" y="0" on="1"/>
        <pt x="320" y="64" on="1"/>
        <pt x="320" y="128" on="1"/>
        <pt x="320" y="192" on="1"/>
        <pt x="320" y="256" on="1"/>
        <pt x="256" y="256" on="1"/>
        <pt x="192" y="256" on="1"/>
        <pt x="128" y="256" on="1"/>
        <pt x="128" y="192" on="1"/>
        <pt x="128" y="128" on="1"/>
        <pt x="128" y="64" on="1"/>
        <pt x="128" y="0" on="1"/>
        <pt x="64" y="0" on="1"/>
        <pt x="0" y="0" on="1"/>
        <pt x="0" y="64" on="1"/>
        <pt x="0" y="128" on="1"/>
        <pt x="0" y="192" on="1"/>
        <pt x="0" y="256" on="1"/>
        <pt x="0" y="320" on="1"/>
        <pt x="0" y="384" on="1"/>
        <pt x="0" y="448" on="1"/>
        <pt x="64" y="448" on="1"/>
        <pt x="128" y="448" on="1"/>
        <pt x="128" y="384" on="1"/>
        <pt x="128" y="320" on="1"/>
        <pt x="192" y="320" on="1"/>
        <pt x="256" y="320" on="1"/>
        <pt x="320" y="320" on="1"/>
        <pt x="384" y="320" on="1"/>
        <pt x="384" y="256" on="1"/>
        <pt x="448" y="256" on="1"/>
        <pt x="448" y="192" on="1"/>
        <pt x="448" y="128" on="1"/>
        <pt x="448" y="64" on="1"/>
        <pt x="448" y="0" on="1"/>
      </contour>
    </TTGlyph>
    <TTGlyph name="hyphen" xMin="64" yMin="192" xMax="448" yMax="256">
      <contour>
        <pt x="384" y="256" on="1"/>
        <pt x="448" y="256" on="1"/>
        <pt x="448" y="192" on="1"/>
        <pt x="384" y="192" on="1"/>
        <pt x="320" y="192" on="1"/>
        <pt x="256" y="192" on="1"/>
        <pt x="192" y="192" on="1"/>
        <pt x="128" y="192" on="1"/>
        <pt x="64" y="192" on="1"/>
        <pt x="64" y="256" on="1"/>
        <pt x="128" y="256" on="1"/>
        <pt x="192" y="256" on="1"/>
        <pt x="256" y="256" on="1"/>
        <pt x="320" y="256" on="1"/>
      </contour>
    </TTGlyph>
    <TTGlyph name="i" xMin="128" yMin="0" xMax="384" yMax="448">
      <contour>
        <pt x="320" y="0" on="1"/>
        <pt x="256" y="0" on="1"/>
        <pt x="192" y="0" on="1"/>
        <pt x="128" y="0" on="1"/>
        <pt x="128" y="64" on="1"/>
        <pt x="192" y="64" on="1"/>
        <pt x="192" y="128" on="1"/>
        <pt x="192" y="192" on="1"/>
        <pt x="192" y="256" on="1"/>
        <pt x="128" y="256" on="1"/>
        <pt x="128" y="320" on="1"/>
        <pt x="192" y="320" on="1"/>
        <pt x="256" y="320" on="1"/>
        <pt x="320" y="320" on="1"/>
        <pt x="320" y="256" on="1"/>
        <pt x="320" y="192" on="1"/>
        <pt x="320" y="128" on="1"/>
        <pt x="320" y="64" on="1"/>
        <pt x="384" y="64" on="1"/>
        <pt x="384" y="0" on="1"/>
      </contour>
      <contour>
        <pt x="256" y="448" on="1"/>
        <pt x="320" y="448" on="1"/>
        <pt x="320" y="384" on="1"/>
        <pt x="256" y="384" on="1"/>
        <pt x="192" y="384" on="1"/>
        <pt x="192" y="448" on="1"/>
      </contour>
    </TTGlyph>
    <TTGlyph name="iacute" xMin="128" yMin="0" xMax="320" yMax="448">
      <contour>
        <pt x="192" y="320" on="1"/>
        <pt x="192" y="384" on="1"/>
        <pt x="256" y="384" on="1"/>
        <pt x="256" y="320" on="1"/>
      </contour>
      <contour>
        <pt x="256" y="0" on="1"/>
        <pt x="192" y="0" on="1"/>
        <pt x="192" y="64" on="1"/>
        <pt x="192" y="128" on="1"/>
        <pt x="192" y="192" on="1"/>
        <pt x="128" y="192" on="1"/>
        <pt x="128" y="256" on="1"/>
        <pt x="192" y="256" on="1"/>
        <pt x="256" y="256" on="1"/>
        <pt x="320" y="256" on="1"/>
        <pt x="320" y="192" on="1"/>
        <pt x="320" y="128" on="1"/>
        <pt x="320" y="64" on="1"/>
        <pt x="320" y="0" on="1"/>
      </contour>
      <contour>
        <pt x="256" y="384" on="1"/>
        <pt x="256" y="448" on="1"/>
        <pt x="320" y="448" on="1"/>
        <pt x="320" y="384" on="1"/>
      </contour>
    </TTGlyph>
    <TTGlyph name="icircumflex" xMin="64" yMin="0" xMax="384" yMax="448">
      <contour>
        <pt x="320" y="320" on="1"/>
        <pt x="320" y="384" on="1"/>
        <pt x="384" y="384" on="1"/>
        <pt x="384" y="320" on="1"/>
      </contour>
      <contour>
        <pt x="64" y="320" on="1"/>
        <pt x="64" y="384" on="1"/>
        <pt x="128" y="384" on="1"/>
        <pt x="128" y="320" on="1"/>
      </contour>
      <contour>
        <pt x="256" y="0" on="1"/>
        <pt x="192" y="0" on="1"/>
        <pt x="192" y="64" on="1"/>
        <pt x="192" y="128" on="1"/>
        <pt x="192" y="192" on="1"/>
        <pt x="128" y="192" on="1"/>
        <pt x="128" y="256" on="1"/>
        <pt x="192" y="256" on="1"/>
        <pt x="256" y="256" on="1"/>
        <pt x="320" y="256" on="1"/>
        <pt x="320" y="192" on="1"/>
        <pt x="320" y="128" on="1"/>
        <pt x="320" y="64" on="1"/>
        <pt x="320" y="0" on="1"/>
      </contour>
      <contour>
        <pt x="320" y="384" on="1"/>
        <pt x="256" y="384" on="1"/>
        <pt x="192" y="384" on="1"/>
        <pt x="128" y="384" on="1"/>
        <pt x="128" y="448" on="1"/>
        <pt x="192" y="448" on="1"/>
        <pt x="256" y="448" on="1"/>
        <pt x="320" y="448" on="1"/>
      </contour>
    </TTGlyph>
    <TTGlyph name="idieresis" xMin="128" yMin="0" xMax="320" yMax="384">
      <contour>
        <pt x="256" y="320" on="1"/>
        <pt x="256" y="384" on="1"/>
        <pt x="320" y="384" on="1"/>
        <pt x="320" y="320" on="1"/>
      </contour>
      <contour>
        <pt x="128" y="320" on="1"/>
        <pt x="128" y="384" on="1"/>
        <pt x="192" y="384" on="1"/>
        <pt x="192" y="320" on="1"/>
      </contour>
      <contour>
        <pt x="256" y="0" on="1"/>
        <pt x="192" y="0" on="1"/>
        <pt x="192" y="64" on="1"/>
        <pt x="192" y="128" on="1"/>
        <pt x="192" y="192" on="1"/>
        <pt x="128" y="192" on="1"/>
        <pt x="128" y="256" on="1"/>
        <pt x="192" y="256" on="1"/>
        <pt x="256" y="256" on="1"/>
        <pt x="320" y="256" on="1"/>
        <pt x="320" y="192" on="1"/>
        <pt x="320" y="128" on="1"/>
        <pt x="320" y="64" on="1"/>
        <pt x="320" y="0" on="1"/>
      </contour>
    </TTGlyph>
    <TTGlyph name="igrave" xMin="128" yMin="0" xMax="320" yMax="448">
      <contour>
        <pt x="256" y="320" on="1"/>
        <pt x="256" y="384" on="1"/>
        <pt x="320" y="384" on="1"/>
        <pt x="320" y="320" on="1"/>
      </contour>
      <contour>
        <pt x="256" y="0" on="1"/>
        <pt x="192" y="0" on="1"/>
        <pt x="192" y="64" on="1"/>
        <pt x="192" y="128" on="1"/>
        <pt x="192" y="192" on="1"/>
        <pt x="128" y="192" on="1"/>
        <pt x="128" y="256" on="1"/>
        <pt x="192" y="256" on="1"/>
        <pt x="256" y="256" on="1"/>
        <pt x="320" y="256" on="1"/>
        <pt x="320" y="192" on="1"/>
        <pt x="320" y="128" on="1"/>
        <pt x="320" y="64" on="1"/>
        <pt x="320" y="0" on="1"/>
      </contour>
      <contour>
        <pt x="256" y="384" on="1"/>
        <pt x="192" y="384" on="1"/>
        <pt x="192" y="448" on="1"/>
        <pt x="256" y="448" on="1"/>
      </contour>
    </TTGlyph>
    <TTGlyph name="j" xMin="64" yMin="-64" xMax="320" yMax="448">
      <contour>
        <pt x="192" y="-64" on="1"/>
        <pt x="128" y="-64" on="1"/>
        <pt x="64" y="-64" on="1"/>
        <pt x="64" y="0" on="1"/>
        <pt x="128" y="0" on="1"/>
        <pt x="192" y="0" on="1"/>
        <pt x="192" y="64" on="1"/>
        <pt x="192" y="128" on="1"/>
        <pt x="192" y="192" on="1"/>
        <pt x="192" y="256" on="1"/>
        <pt x="128" y="256" on="1"/>
        <pt x="128" y="320" on="1"/>
        <pt x="192" y="320" on="1"/>
        <pt x="256" y="320" on="1"/>
        <pt x="320" y="320" on="1"/>
        <pt x="320" y="256" on="1"/>
        <pt x="320" y="192" on="1"/>
        <pt x="320" y="128" on="1"/>
        <pt x="320" y="64" on="1"/>
        <pt x="320" y="0" on="1"/>
        <pt x="256" y="0" on="1"/>
        <pt x="256" y="-64" on="1"/>
      </contour>
      <contour>
        <pt x="256" y="448" on="1"/>
        <pt x="320" y="448" on="1"/>
        <pt x="320" y="384" on="1"/>
        <pt x="256" y="384" on="1"/>
        <pt x="192" y="384" on="1"/>
        <pt x="192" y="448" on="1"/>
      </contour>
    </TTGlyph>
    <TTGlyph name="k" xMin="0" yMin="0" xMax="384" yMax="448">
      <contour>
        <pt x="320" y="0" on="1"/>
        <pt x="256" y="0" on="1"/>
        <pt x="256" y="64" on="1"/>
        <pt x="192" y="64" on="1"/>
        <pt x="192" y="128" on="1"/>
        <pt x="128" y="128" on="1"/>
        <pt x="128" y="64" on="1"/>
        <pt x="128" y="0" on="1"/>
        <pt x="64" y="0" on="1"/>
        <pt x="0" y="0" on="1"/>
        <pt x="0" y="64" on="1"/>
        <pt x="0" y="128" on="1"/>
        <pt x="0" y="192" on="1"/>
        <pt x="0" y="256" on="1"/>
        <pt x="0" y="320" on="1"/>
        <pt x="0" y="384" on="1"/>
        <pt x="0" y="448" on="1"/>
        <pt x="64" y="448" on="1"/>
        <pt x="128" y="448" on="1"/>
        <pt x="128" y="384" on="1"/>
        <pt x="128" y="320" on="1"/>
        <pt x="128" y="256" on="1"/>
        <pt x="128" y="192" on="1"/>
        <pt x="192" y="192" on="1"/>
        <pt x="192" y="256" on="1"/>
        <pt x="256" y="256" on="1"/>
        <pt x="256" y="320" on="1"/>
        <pt x="320" y="320" on="1"/>
        <pt x="384" y="320" on="1"/>
        <pt x="384" y="256" on="1"/>
        <pt x="320" y="256" on="1"/>
        <pt x="320" y="192" on="1"/>
        <pt x="256" y="192" on="1"/>
        <pt x="256" y="128" on="1"/>
        <pt x="320" y="128" on="1"/>
        <pt x="320" y="64" on="1"/>
        <pt x="384" y="64" on="1"/>
        <pt x="384" y="0" on="1"/>
      </contour>
    </TTGlyph>
    <TTGlyph name="l" xMin="128" yMin="0" xMax="384" yMax="448">
      <contour>
        <pt x="320" y="0" on="1"/>
        <pt x="256" y="0" on="1"/>
        <pt x="192" y="0" on="1"/>
        <pt x="128" y="0" on="1"/>
        <pt x="128" y="64" on="1"/>
        <pt x="192" y="64" on="1"/>
        <pt x="192" y="128" on="1"/>
        <pt x="192" y="192" on="1"/>
        <pt x="192" y="256" on="1"/>
        <pt x="192" y="320" on="1"/>
        <pt x="192" y="384" on="1"/>
        <pt x="128" y="384" on="1"/>
        <pt x="128" y="448" on="1"/>
        <pt x="192" y="448" on="1"/>
        <pt x="256" y="448" on="1"/>
        <pt x="320" y="448" on="1"/>
        <pt x="320" y="384" on="1"/>
        <pt x="320" y="320" on="1"/>
        <pt x="320" y="256" on="1"/>
        <pt x="320" y="192" on="1"/>
        <pt x="320" y="128" on="1"/>
        <pt x="320" y="64" on="1"/>
        <pt x="384" y="64" on="1"/>
        <pt x="384" y="0" on="1"/>
      </contour>
    </TTGlyph>
    <TTGlyph name="less" xMin="64" yMin="0" xMax="384" yMax="448">
      <contour>
        <pt x="320" y="0" on="1"/>
        <pt x="256" y="0" on="1"/>
        <pt x="256" y="64" on="1"/>
        <pt x="192" y="64" on="1"/>
        <pt x="192" y="128" on="1"/>
        <pt x="128" y="128" on="1"/>
        <pt x="128" y="192" on="1"/>
        <pt x="64" y="192" on="1"/>
        <pt x="64" y="256" on="1"/>
        <pt x="128" y="256" on="1"/>
        <pt x="128" y="320" on="1"/>
        <pt x="192" y="320" on="1"/>
        <pt x="192" y="384" on="1"/>
        <pt x="256" y="384" on="1"/>
        <pt x="256" y="448" on="1"/>
        <pt x="320" y="448" on="1"/>
        <pt x="384" y="448" on="1"/>
        <pt x="384" y="384" on="1"/>
        <pt x="320" y="384" on="1"/>
        <pt x="320" y="320" on="1"/>
        <pt x="256" y="320" on="1"/>
        <pt x="256" y="256" on="1"/>
        <pt x="192" y="256" on="1"/>
        <pt x="192" y="192" on="1"/>
        <pt x="256" y="192" on="1"/>
        <pt x="256" y="128" on="1"/>
        <pt x="320" y="128" on="1"/>
        <pt x="320" y="64" on="1"/>
        <pt x="384" y="64" on="1"/>
        <pt x="384" y="0" on="1"/>
      </contour>
    </TTGlyph>
    <TTGlyph name="m" xMin="0" yMin="0" xMax="448" yMax="320">
      <contour>
        <pt x="192" y="128" on="1"/>
        <pt x="192" y="192" on="1"/>
        <pt x="128" y="192" on="1"/>
        <pt x="128" y="128" on="1"/>
        <pt x="128" y="64" on="1"/>
        <pt x="128" y="0" on="1"/>
        <pt x="64" y="0" on="1"/>
        <pt x="0" y="0" on="1"/>
        <pt x="0" y="64" on="1"/>
        <pt x="0" y="128" on="1"/>
        <pt x="0" y="192" on="1"/>
        <pt x="0" y="256" on="1"/>
        <pt x="0" y="320" on="1"/>
        <pt x="64" y="320" on="1"/>
        <pt x="128" y="320" on="1"/>
        <pt x="192" y="320" on="1"/>
        <pt x="192" y="256" on="1"/>
        <pt x="256" y="256" on="1"/>
        <pt x="256" y="320" on="1"/>
        <pt x="320" y="320" on="1"/>
        <pt x="384" y="320" on="1"/>
        <pt x="384" y="256" on="1"/>
        <pt x="448" y="256" on="1"/>
        <pt x="448" y="192" on="1"/>
        <pt x="448" y="128" on="1"/>
        <pt x="448" y="64" on="1"/>
        <pt x="448" y="0" on="1"/>
        <pt x="384" y="0" on="1"/>
        <pt x="320" y="0" on="1"/>
        <pt x="320" y="64" on="1"/>
        <pt x="320" y="128" on="1"/>
        <pt x="320" y="192" on="1"/>
        <pt x="256" y="192" on="1"/>
        <pt x="256" y="128" on="1"/>
      </contour>
    </TTGlyph>
    <TTGlyph name="multiply" xMin="64" yMin="64" xMax="384" yMax="384">
      <contour>
        <pt x="320" y="64" on="1"/>
        <pt x="320" y="128" on="1"/>
        <pt x="384" y="128" on="1"/>
        <pt x="384" y="64" on="1"/>
      </contour>
      <contour>
        <pt x="64" y="64" on="1"/>
        <pt x="64" y="128" on="1"/>
        <pt x="128" y="128" on="1"/>
        <pt x="128" y="64" on="1"/>
      </contour>
      <contour>
        <pt x="320" y="128" on="1"/>
        <pt x="256" y="128" on="1"/>
        <pt x="256" y="192" on="1"/>
        <pt x="320" y="192" on="1"/>
      </contour>
      <contour>
        <pt x="128" y="128" on="1"/>
        <pt x="128" y="192" on="1"/>
        <pt x="192" y="192" on="1"/>
        <pt x="192" y="128" on="1"/>
      </contour>
      <contour>
        <pt x="256" y="192" on="1"/>
        <pt x="192" y="192" on="1"/>
        <pt x="192" y="256" on="1"/>
        <pt x="256" y="256" on="1"/>
      </contour>
      <contour>
        <pt x="256" y="256" on="1"/>
        <pt x="256" y="320" on="1"/>
        <pt x="320" y="320" on="1"/>
        <pt x="320" y="256" on="1"/>
      </contour>
      <contour>
        <pt x="192" y="256" on="1"/>
        <pt x="128" y="256" on="1"/>
        <pt x="128" y="320" on="1"/>
        <pt x="192" y="320" on="1"/>
      </contour>
      <contour>
        <pt x="320" y="320" on="1"/>
        <pt x="320" y="384" on="1"/>
        <pt x="384" y="384" on="1"/>
        <pt x="384" y="320" on="1"/>
      </contour>
      <contour>
        <pt x="128" y="320" on="1"/>
        <pt x="64" y="320" on="1"/>
        <pt x="64" y="384" on="1"/>
        <pt x="128" y="384" on="1"/>
      </contour>
    </TTGlyph>
    <TTGlyph name="n" xMin="0" yMin="0" xMax="448" yMax="320">
      <contour>
        <pt x="384" y="0" on="1"/>
        <pt x="320" y="0" on="1"/>
        <pt x="320" y="64" on="1"/>
        <pt x="320" y="128" on="1"/>
        <pt x="320" y="192" on="1"/>
        <pt x="320" y="256" on="1"/>
        <pt x="256" y="256" on="1"/>
        <pt x="192" y="256" on="1"/>
        <pt x="128" y="256" on="1"/>
        <pt x="128" y="192" on="1"/>
        <pt x="128" y="128" on="1"/>
        <pt x="128" y="64" on="1"/>
        <pt x="128" y="0" on="1"/>
        <pt x="64" y="0" on="1"/>
        <pt x="0" y="0" on="1"/>
        <pt x="0" y="64" on="1"/>
        <pt x="0" y="128" on="1"/>
        <pt x="0" y="192" on="1"/>
        <pt x="0" y="256" on="1"/>
        <pt x="0" y="320" on="1"/>
        <pt x="64" y="320" on="1"/>
        <pt x="128" y="320" on="1"/>
        <pt x="192" y="320" on="1"/>
        <pt x="256" y="320" on="1"/>
        <pt x="320" y="320" on="1"/>
        <pt x="384" y="320" on="1"/>
        <pt x="384" y="256" on="1"/>
        <pt x="448" y="256" on="1"/>
        <pt x="448" y="192" on="1"/>
        <pt x="448" y="128" on="1"/>
        <pt x="448" y="64" on="1"/>
        <pt x="448" y="0" on="1"/>
      </contour>
    </TTGlyph>
    <TTGlyph name="nine" xMin="0" yMin="0" xMax="448" yMax="448">
      <contour>
        <pt x="256" y="0" on="1"/>
        <pt x="192" y="0" on="1"/>
        <pt x="128" y="0" on="1"/>
        <pt x="64" y="0" on="1"/>
        <pt x="64" y="64" on="1"/>
        <pt x="128" y="64" on="1"/>
        <pt x="192" y="64" on="1"/>
        <pt x="256" y="64" on="1"/>
        <pt x="256" y="128" on="1"/>
        <pt x="320" y="128" on="1"/>
        <pt x="320" y="192" on="1"/>
        <pt x="256" y="192" on="1"/>
        <pt x="192" y="192" on="1"/>
        <pt x="128" y="192" on="1"/>
        <pt x="64" y="192" on="1"/>
        <pt x="64" y="256" on="1"/>
        <pt x="0" y="256" on="1"/>
        <pt x="0" y="320" on="1"/>
        <pt x="0" y="384" on="1"/>
        <pt x="64" y="384" on="1"/>
        <pt x="64" y="448" on="1"/>
        <pt x="128" y="448" on="1"/>
        <pt x="192" y="448" on="1"/>
        <pt x="256" y="448" on="1"/>
        <pt x="320" y="448" on="1"/>
        <pt x="384" y="448" on="1"/>
        <pt x="384" y="384" on="1"/>
        <pt x="448" y="384" on="1"/>
        <pt x="448" y="320" on="1"/>
        <pt x="448" y="256" on="1"/>
        <pt x="448" y="192" on="1"/>
        <pt x="448" y="128" on="1"/>
        <pt x="384" y="128" on="1"/>
        <pt x="384" y="64" on="1"/>
        <pt x="320" y="64" on="1"/>
        <pt x="320" y="0" on="1"/>
      </contour>
      <contour>
        <pt x="256" y="256" on="1"/>
        <pt x="320" y="256" on="1"/>
        <pt x="320" y="320" on="1"/>
        <pt x="320" y="384" on="1"/>
        <pt x="256" y="384" on="1"/>
        <pt x="192" y="384" on="1"/>
        <pt x="128" y="384" on="1"/>
        <pt x="128" y="320" on="1"/>
        <pt x="128" y="256" on="1"/>
        <pt x="192" y="256" on="1"/>
      </contour>
    </TTGlyph>
    <TTGlyph name="ntilde" xMin="64" yMin="0" xMax="448" yMax="448">
      <contour>
        <pt x="128" y="320" on="1"/>
        <pt x="128" y="384" on="1"/>
        <pt x="192" y="384" on="1"/>
        <pt x="192" y="320" on="1"/>
      </contour>
      <contour>
        <pt x="384" y="0" on="1"/>
        <pt x="320" y="0" on="1"/>
        <pt x="320" y="64" on="1"/>
        <pt x="320" y="128" on="1"/>
        <pt x="320" y="192" on="1"/>
        <pt x="256" y="192" on="1"/>
        <pt x="256" y="128" on="1"/>
        <pt x="256" y="64" on="1"/>
        <pt x="256" y="0" on="1"/>
        <pt x="192" y="0" on="1"/>
        <pt x="128" y="0" on="1"/>
        <pt x="128" y="64" on="1"/>
        <pt x="128" y="128" on="1"/>
        <pt x="128" y="192" on="1"/>
        <pt x="192" y="192" on="1"/>
        <pt x="192" y="256" on="1"/>
        <pt x="256" y="256" on="1"/>
        <pt x="320" y="256" on="1"/>
        <pt x="384" y="256" on="1"/>
        <pt x="384" y="192" on="1"/>
        <pt x="448" y="192" on="1"/>
        <pt x="448" y="128" on="1"/>
        <pt x="448" y="64" on="1"/>
        <pt x="448" y="0" on="1"/>
      </contour>
      <contour>
        <pt x="128" y="192" on="1"/>
        <pt x="64" y="192" on="1"/>
        <pt x="64" y="256" on="1"/>
        <pt x="128" y="256" on="1"/>
      </contour>
      <contour>
        <pt x="320" y="320" on="1"/>
        <pt x="256" y="320" on="1"/>
        <pt x="256" y="384" on="1"/>
        <pt x="192" y="384" on="1"/>
        <pt x="192" y="448" on="1"/>
        <pt x="256" y="448" on="1"/>
        <pt x="320" y="448" on="1"/>
        <pt x="320" y="384" on="1"/>
        <pt x="384" y="384" on="1"/>
        <pt x="384" y="320" on="1"/>
      </contour>
      <contour>
        <pt x="384" y="384" on="1"/>
        <pt x="384" y="448" on="1"/>
        <pt x="448" y="448" on="1"/>
        <pt x="448" y="384" on="1"/>
      </contour>
    </TTGlyph>
    <TTGlyph name="numbersign" xMin="0" yMin="64" xMax="448" yMax="384">
      <contour>
        <pt x="320" y="64" on="1"/>
        <pt x="256" y="64" on="1"/>
        <pt x="256" y="128" on="1"/>
        <pt x="192" y="128" on="1"/>
        <pt x="192" y="64" on="1"/>
        <pt x="128" y="64" on="1"/>
        <pt x="64" y="64" on="1"/>
        <pt x="64" y="128" on="1"/>
        <pt x="0" y="128" on="1"/>
        <pt x="0" y="192" on="1"/>
        <pt x="64" y="192" on="1"/>
        <pt x="64" y="256" on="1"/>
        <pt x="0" y="256" on="1"/>
        <pt x="0" y="320" on="1"/>
        <pt x="64" y="320" on="1"/>
        <pt x="64" y="384" on="1"/>
        <pt x="128" y="384" on="1"/>
        <pt x="192" y="384" on="1"/>
        <pt x="192" y="320" on="1"/>
        <pt x="256" y="320" on="1"/>
        <pt x="256" y="384" on="1"/>
        <pt x="320" y="384" on="1"/>
        <pt x="384" y="384" on="1"/>
        <pt x="384" y="320" on="1"/>
        <pt x="448" y="320" on="1"/>
        <pt x="448" y="256" on="1"/>
        <pt x="384" y="256" on="1"/>
        <pt x="384" y="192" on="1"/>
        <pt x="448" y="192" on="1"/>
        <pt x="448" y="128" on="1"/>
        <pt x="384" y="128" on="1"/>
        <pt x="384" y="64" on="1"/>
      </contour>
      <contour>
        <pt x="256" y="192" on="1"/>
        <pt x="256" y="256" on="1"/>
        <pt x="192" y="256" on="1"/>
        <pt x="192" y="192" on="1"/>
      </contour>
    </TTGlyph>
    <TTGlyph name="o" xMin="0" yMin="0" xMax="448" yMax="320">
      <contour>
        <pt x="320" y="0" on="1"/>
        <pt x="256" y="0" on="1"/>
        <pt x="192" y="0" on="1"/>
        <pt x="128" y="0" on="1"/>
        <pt x="64" y="0" on="1"/>
        <pt x="64" y="64" on="1"/>
        <pt x="0" y="64" on="1"/>
        <pt x="0" y="128" on="1"/>
        <pt x="0" y="192" on="1"/>
        <pt x="0" y="256" on="1"/>
        <pt x="64" y="256" on="1"/>
        <pt x="64" y="320" on="1"/>
        <pt x="128" y="320" on="1"/>
        <pt x="192" y="320" on="1"/>
        <pt x="256" y="320" on="1"/>
        <pt x="320" y="320" on="1"/>
        <pt x="384" y="320" on="1"/>
        <pt x="384" y="256" on="1"/>
        <pt x="448" y="256" on="1"/>
        <pt x="448" y="192" on="1"/>
        <pt x="448" y="128" on="1"/>
        <pt x="448" y="64" on="1"/>
        <pt x="384" y="64" on="1"/>
        <pt x="384" y="0" on="1"/>
      </contour>
      <contour>
        <pt x="256" y="64" on="1"/>
        <pt x="320" y="64" on="1"/>
        <pt x="320" y="128" on="1"/>
        <pt x="320" y="192" on="1"/>
        <pt x="320" y="256" on="1"/>
        <pt x="256" y="256" on="1"/>
        <pt x="192" y="256" on="1"/>
        <pt x="128" y="256" on="1"/>
        <pt x="128" y="192" on="1"/>
        <pt x="128" y="128" on="1"/>
        <pt x="128" y="64" on="1"/>
        <pt x="192" y="64" on="1"/>
      </contour>
    </TTGlyph>
</ttFont>
